AsbirSerif-Black.ufo
<glyph name="uni0021" format="2">
  <advance width="250"/>
  <unicode hex="0021"/>
  <outline>
    <contour>
      <point x="218" y="130" type="line"/>
      <point x="336" y="130" type="line"/>
      <point x="336" y="555" type="line"/>
      <point x="218" y="555" type="line"/>
    </contour>
    <contour>
      <point x="309.0" y="35" type="curve"/>
      <point x="309.0" y="67.58480025"/>
      <point x="282.58480025" y="94.0"/>
      <point x="250" y="94.0" type="curve"/>
      <point x="217.41519975" y="94.0"/>
      <point x="191.0" y="67.58480025"/>
      <point x="191.0" y="35" type="curve"/>
      <point x="191.0" y="2.4151997499999993"/>
      <point x="217.41519975" y="-24.0"/>
      <point x="250" y="-24.0" type="curve"/>
      <point x="282.58480025" y="-24.0"/>
      <point x="309.0" y="2.4151997499999993"/>
    </contour>
  </outline>
</glyph>
<glyph name="uni0022" format="2">
  <advance width="500"/>
  <unicode hex="0022"/>
  <outline>
    <contour>
      <point x="216.95744068429758" y="543.0189152514233" type="line"/>
      <point x="176.95744068429758" y="453.0189152514233" type="line"/>
      <point x="123.04255931570242" y="476.9810847485767" type="line"/>
      <point x="163.04255931570242" y="566.9810847485767" type="line"/>
    </contour>
    <contour>
      <point x="336.9574406842976" y="566.9810847485767" type="line"/>
      <point x="376.9574406842976" y="476.9810847485767" type="line"/>
      <point x="323.0425593157024" y="453.0189152514233" type="line"/>
      <point x="283.0425593157024" y="543.0189152514233" type="line"/>
    </contour>
  </outline>
</glyph>
<glyph name="uni0026" format="2">
  <advance width="500"/>
  <unicode hex="0026"/>
  <outline>
    <contour>
      <point x="350" y="220" type="curve"/>
      <point x="350" y="319.411255"/>
      <point x="291.7970175" y="400"/>
      <point x="220" y="400" type="curve"/>
      <point x="148.20298250000002" y="400"/>
      <point x="90" y="319.411255"/>
      <point x="90" y="220" type="curve"/>
      <point x="90" y="120.588745"/>
      <point x="148.20298250000002" y="40"/>
      <point x="220" y="40" type="curve"/>
      <point x="291.7970175" y="40"/>
      <point x="350" y="120.588745"/>
    </contour>
    <contour>
      <point x="232" y="220" type="curve"/>
      <point x="232" y="185.7583455"/>
      <point x="226.627417" y="158"/>
      <point x="220" y="158" type="curve"/>
      <point x="213.372583" y="158"/>
      <point x="208" y="185.7583455"/>
      <point x="208" y="220" type="curve"/>
      <point x="208" y="254.2416545"/>
      <point x="213.372583" y="282"/>
      <point x="220" y="282" type="curve"/>
      <point x="226.627417" y="282"/>
      <point x="232" y="254.2416545"/>
    </contour>
    <contour>
      <point x="163.13254654551014" y="605.6501948840394" type="line"/>
      <point x="443.13254654551014" y="25.650194884039376" type="line"/>
      <point x="336.86745345448986" y="-25.650194884039376" type="line"/>
      <point x="56.86745345448987" y="554.3498051159606" type="line"/>
    </contour>
    <contour>
      <point x="400" y="520" type="curve"/>
      <point x="400" y="586.27417"/>
      <point x="355.228475" y="640"/>
      <point x="300" y="640" type="curve"/>
      <point x="244.771525" y="640"/>
      <point x="200" y="586.27417"/>
      <point x="200" y="520" type="curve"/>
      <point x="200" y="453.72583"/>
      <point x="244.771525" y="400"/>
      <point x="300" y="400" type="curve"/>
      <point x="355.228475" y="400"/>
      <point x="400" y="453.72583"/>
    </contour>
  </outline>
</glyph>
<glyph name="uni0027" format="2">
  <advance width="250"/>
  <unicode hex="0027"/>
  <outline>
    <contour>
      <point x="276.9574406842976" y="566.9810847485767" type="line"/>
      <point x="316.9574406842976" y="476.9810847485767" type="line"/>
      <point x="263.0425593157024" y="453.0189152514233" type="line"/>
      <point x="223.04255931570242" y="543.0189152514233" type="line"/>
    </contour>
  </outline>
</glyph>
<glyph name="uni002A" format="2">
  <advance width="500"/>
  <unicode hex="002A"/>
  <outline>
    <contour>
      <point x="80.1161547211727" y="191.50558649189094" type="line"/>
      <point x="320.11615472117273" y="571.5055864918909" type="line"/>
      <point x="419.88384527882727" y="508.49441350810906" type="line"/>
      <point x="179.8838452788273" y="128.49441350810906" type="line"/>
    </contour>
    <contour>
      <point x="320.11615472117273" y="128.49441350810906" type="line"/>
      <point x="80.1161547211727" y="508.49441350810906" type="line"/>
      <point x="179.8838452788273" y="571.5055864918909" type="line"/>
      <point x="419.88384527882727" y="191.50558649189094" type="line"/>
    </contour>
    <contour>
      <point x="90" y="330" type="line"/>
      <point x="410" y="330" type="line"/>
      <point x="410" y="448" type="line"/>
      <point x="90" y="448" type="line"/>
    </contour>
  </outline>
</glyph>
<glyph name="uni002C" format="2">
  <advance width="250"/>
  <unicode hex="002C"/>
  <outline>
    <contour>
      <point x="309.0" y="35" type="curve"/>
      <point x="309.0" y="67.58480025"/>
      <point x="282.58480025" y="94.0"/>
      <point x="250" y="94.0" type="curve"/>
      <point x="217.41519975" y="94.0"/>
      <point x="191.0" y="67.58480025"/>
      <point x="191.0" y="35" type="curve"/>
      <point x="191.0" y="2.4151997499999993"/>
      <point x="217.41519975" y="-24.0"/>
      <point x="250" y="-24.0" type="curve"/>
      <point x="282.58480025" y="-24.0"/>
      <point x="309.0" y="2.4151997499999993"/>
    </contour>
    <contour>
      <point x="278.09651234238004" y="11.00911605043838" type="line"/>
      <point x="238.09651234238007" y="-113.99088394956162" type="line"/>
      <point x="181.90348765761993" y="-96.00911605043838" type="line"/>
      <point x="221.90348765761993" y="28.99088394956162" type="line"/>
    </contour>
  </outline>
</glyph>
<glyph name="uni002F" format="2">
  <advance width="500"/>
  <unicode hex="002F"/>
  <outline>
    <contour>
      <point x="64.69190895142384" y="20.543005246614" type="line"/>
      <point x="324.69190895142384" y="720.543005246614" type="line"/>
      <point x="435.30809104857616" y="679.456994753386" type="line"/>
      <point x="175.30809104857616" y="-20.543005246614" type="line"/>
    </contour>
  </outline>
</glyph>
<glyph name="uni0030" format="2">
  <advance width="500"/>
  <unicode hex="0030"/>
  <outline>
    <contour>
      <point x="430" y="350" type="curve"/>
      <point x="430" y="543.2996625000001"/>
      <point x="349.411255" y="700"/>
      <point x="250" y="700" type="curve"/>
      <point x="150.58874500000002" y="700"/>
      <point x="70" y="543.2996625000001"/>
      <point x="70" y="350" type="curve"/>
      <point x="70" y="156.7003375"/>
      <point x="150.58874500000002" y="0"/>
      <point x="250" y="0" type="curve"/>
      <point x="349.411255" y="0"/>
      <point x="430" y="156.7003375"/>
    </contour>
    <contour>
      <point x="312" y="350" type="curve"/>
      <point x="312" y="221.869938"/>
      <point x="284.2416545" y="118"/>
      <point x="250" y="118" type="curve"/>
      <point x="215.7583455" y="118"/>
      <point x="188" y="221.869938"/>
      <point x="188" y="350" type="curve"/>
      <point x="188" y="478.130062"/>
      <point x="215.7583455" y="582"/>
      <point x="250" y="582" type="curve"/>
      <point x="284.2416545" y="582"/>
      <point x="312" y="478.130062"/>
    </contour>
    <contour>
      <point x="80" y="0" type="line"/>
      <point x="160" y="0" type="line"/>
      <point x="160" y="50" type="line"/>
      <point x="80" y="50" type="line"/>
    </contour>
    <contour>
      <point x="340" y="0" type="line"/>
      <point x="420" y="0" type="line"/>
      <point x="420" y="50" type="line"/>
      <point x="340" y="50" type="line"/>
    </contour>
  </outline>
</glyph>
<glyph name="uni0031" format="2">
  <advance width="500"/>
  <unicode hex="0031"/>
  <outline>
    <contour>
      <point x="236" y="0" type="curve"/>
      <point x="318" y="0" type="line"/>
      <point x="327.9411255" y="0"/>
      <point x="336" y="8.0588745"/>
      <point x="336" y="18" type="curve"/>
      <point x="336" y="682" type="line"/>
      <point x="336" y="691.9411255"/>
      <point x="327.9411255" y="700"/>
      <point x="318" y="700" type="curve"/>
      <point x="236" y="700" type="line"/>
      <point x="226.0588745" y="700"/>
      <point x="218" y="691.9411255"/>
      <point x="218" y="682" type="curve"/>
      <point x="218" y="18" type="line"/>
      <point x="218" y="8.0588745"/>
      <point x="226.0588745" y="0"/>
    </contour>
    <contour>
      <point x="59.08914232738444" y="597.056620835754" type="line"/>
      <point x="172.08914232738442" y="737.056620835754" type="line"/>
      <point x="263.9108576726156" y="662.943379164246" type="line"/>
      <point x="150.91085767261558" y="522.943379164246" type="line"/>
    </contour>
    <contour>
      <point x="80" y="0" type="line"/>
      <point x="160" y="0" type="line"/>
      <point x="160" y="50" type="line"/>
      <point x="80" y="50" type="line"/>
    </contour>
    <contour>
      <point x="340" y="0" type="line"/>
      <point x="420" y="0" type="line"/>
      <point x="420" y="50" type="line"/>
      <point x="340" y="50" type="line"/>
    </contour>
  </outline>
</glyph>
<glyph name="uni0033" format="2">
  <advance width="500"/>
  <unicode hex="0033"/>
  <outline>
    <contour>
      <point x="377.7" y="688.2" type="line"/>
      <point x="283.8" y="709.44"/>
      <point x="98.7" y="690.56"/>
      <point x="92.8" y="434.0" type="curve"/>
      <point x="86.9" y="357.0"/>
      <point x="229.72" y="359.44"/>
      <point x="246.62" y="350" type="curve"/>
      <point x="283.8" y="266.0"/>
      <point x="414.28" y="329.0"/>
      <point x="409.56" y="203.0" type="curve"/>
      <point x="404.84" y="5.9"/>
      <point x="209.44" y="-7.08"/>
      <point x="86.9" y="16.520000000000003" type="curve"/>
      <point x="99.88" y="115.64" type="line"/>
      <point x="216.2" y="73.16"/>
      <point x="342.3" y="100.3"/>
      <point x="350.56" y="189.0" type="curve"/>
      <point x="355.28" y="315.0"/>
      <point x="266.9" y="308.0"/>
      <point x="236.48" y="353.54" type="curve"/>
      <point x="192.54" y="367.7"/>
      <point x="135.28" y="364.16"/>
      <point x="142.36" y="448.0" type="curve"/>
      <point x="149.44" y="626.84"/>
      <point x="277.04" y="646.9"/>
      <point x="381.24" y="584.36" type="curve"/>
    </contour>
    <contour>
      <point x="251" y="316" type="curve"/>
      <point x="339" y="316" type="line"/>
      <point x="347.836556" y="316"/>
      <point x="355" y="323.163444"/>
      <point x="355" y="332" type="curve"/>
      <point x="355" y="418" type="line"/>
      <point x="355" y="426.836556"/>
      <point x="347.836556" y="434"/>
      <point x="339" y="434" type="curve"/>
      <point x="251" y="434" type="line"/>
      <point x="242.163444" y="434"/>
      <point x="235" y="426.836556"/>
      <point x="235" y="418" type="curve"/>
      <point x="235" y="332" type="line"/>
      <point x="235" y="323.163444"/>
      <point x="242.163444" y="316"/>
    </contour>
    <contour>
      <point x="80" y="0" type="line"/>
      <point x="160" y="0" type="line"/>
      <point x="160" y="50" type="line"/>
      <point x="80" y="50" type="line"/>
    </contour>
    <contour>
      <point x="340" y="0" type="line"/>
      <point x="420" y="0" type="line"/>
      <point x="420" y="50" type="line"/>
      <point x="340" y="50" type="line"/>
    </contour>
  </outline>
</glyph>
<glyph name="uni0034" format="2">
  <advance width="500"/>
  <unicode hex="0034"/>
  <outline>
    <contour>
      <point x="250" y="0" type="curve"/>
      <point x="332" y="0" type="line"/>
      <point x="341.9411255" y="0"/>
      <point x="350" y="8.0588745"/>
      <point x="350" y="18" type="curve"/>
      <point x="350" y="682" type="line"/>
      <point x="350" y="691.9411255"/>
      <point x="341.9411255" y="700"/>
      <point x="332" y="700" type="curve"/>
      <point x="250" y="700" type="line"/>
      <point x="240.0588745" y="700"/>
      <point x="232" y="691.9411255"/>
      <point x="232" y="682" type="curve"/>
      <point x="232" y="18" type="line"/>
      <point x="232" y="8.0588745"/>
      <point x="240.0588745" y="0"/>
    </contour>
    <contour>
      <point x="25.31013801983365" y="302.1363727062578" type="line"/>
      <point x="195.31013801983366" y="722.1363727062578" type="line"/>
      <point x="304.68986198016637" y="677.8636272937422" type="line"/>
      <point x="134.68986198016634" y="257.8636272937422" type="line"/>
    </contour>
    <contour>
      <point x="96" y="280" type="curve"/>
      <point x="394" y="280" type="line"/>
      <point x="402.836556" y="280"/>
      <point x="410" y="287.163444"/>
      <point x="410" y="296" type="curve"/>
      <point x="410" y="382" type="line"/>
      <point x="410" y="390.836556"/>
      <point x="402.836556" y="398"/>
      <point x="394" y="398" type="curve"/>
      <point x="96" y="398" type="line"/>
      <point x="87.163444" y="398"/>
      <point x="80" y="390.836556"/>
      <point x="80" y="382" type="curve"/>
      <point x="80" y="296" type="line"/>
      <point x="80" y="287.163444"/>
      <point x="87.163444" y="280"/>
    </contour>
    <contour>
      <point x="80" y="0" type="line"/>
      <point x="160" y="0" type="line"/>
      <point x="160" y="50" type="line"/>
      <point x="80" y="50" type="line"/>
    </contour>
    <contour>
      <point x="340" y="0" type="line"/>
      <point x="420" y="0" type="line"/>
      <point x="420" y="50" type="line"/>
      <point x="340" y="50" type="line"/>
    </contour>
  </outline>
</glyph>
<glyph name="uni0035" format="2">
  <advance width="500"/>
  <unicode hex="0035"/>
  <outline>
    <contour>
      <point x="104" y="700" type="line"/>
      <point x="402" y="700" type="line"/>
      <point x="402" y="636" type="line"/>
      <point x="168" y="636" type="line"/>
      <point x="168" y="425" type="line"/>
      <point x="210" y="454"/>
      <point x="245" y="468"/>
      <point x="286" y="468" type="curve"/>
      <point x="378" y="468"/>
      <point x="430" y="385"/>
      <point x="430" y="240" type="curve"/>
      <point x="430" y="83"/>
      <point x="356" y="-10"/>
      <point x="243" y="-10" type="curve"/>
      <point x="143" y="-10"/>
      <point x="80" y="44"/>
      <point x="70" y="133" type="curve"/>
      <point x="134" y="133" type="line"/>
      <point x="147" y="82"/>
      <point x="185" y="54"/>
      <point x="243" y="54" type="curve"/>
      <point x="324" y="54"/>
      <point x="366" y="118"/>
      <point x="366" y="240" type="curve"/>
      <point x="366" y="350"/>
      <point x="331" y="404"/>
      <point x="280" y="404" type="curve"/>
      <point x="240" y="404"/>
      <point x="201" y="387"/>
      <point x="168" y="351" type="curve"/>
      <point x="104" y="351" type="line"/>
    </contour>
    <contour>
      <point x="80" y="0" type="line"/>
      <point x="160" y="0" type="line"/>
      <point x="160" y="50" type="line"/>
      <point x="80" y="50" type="line"/>
    </contour>
    <contour>
      <point x="340" y="0" type="line"/>
      <point x="420" y="0" type="line"/>
      <point x="420" y="50" type="line"/>
      <point x="340" y="50" type="line"/>
    </contour>
  </outline>
</glyph>
<glyph name="uni0036" format="2">
  <advance width="500"/>
  <unicode hex="0036"/>
  <outline>
    <contour>
      <point x="425" y="190" type="curve"/>
      <point x="425" y="294.9341025"/>
      <point x="346.64983125000003" y="380"/>
      <point x="250" y="380" type="curve"/>
      <point x="153.35016875" y="380"/>
      <point x="75" y="294.9341025"/>
      <point x="75" y="190" type="curve"/>
      <point x="75" y="85.0658975"/>
      <point x="153.35016875" y="0"/>
      <point x="250" y="0" type="curve"/>
      <point x="346.64983125000003" y="0"/>
      <point x="425" y="85.0658975"/>
    </contour>
    <contour>
      <point x="307" y="190" type="curve"/>
      <point x="307" y="150.235498"/>
      <point x="281.48023075" y="118"/>
      <point x="250" y="118" type="curve"/>
      <point x="218.51976925" y="118"/>
      <point x="193" y="150.235498"/>
      <point x="193" y="190" type="curve"/>
      <point x="193" y="229.764502"/>
      <point x="218.51976925" y="262"/>
      <point x="250" y="262" type="curve"/>
      <point x="281.48023075" y="262"/>
      <point x="307" y="229.764502"/>
    </contour>
    <contour>
      <point x="75" y="190" type="line"/>
      <point x="75" y="505"/>
      <point x="188" y="710"/>
      <point x="352" y="710" type="curve"/>
      <point x="385" y="646" type="line"/>
      <point x="250" y="636"/>
      <point x="139" y="492"/>
      <point x="139" y="220" type="curve"/>
    </contour>
    <contour>
      <point x="80" y="0" type="line"/>
      <point x="160" y="0" type="line"/>
      <point x="160" y="50" type="line"/>
      <point x="80" y="50" type="line"/>
    </contour>
    <contour>
      <point x="340" y="0" type="line"/>
      <point x="420" y="0" type="line"/>
      <point x="420" y="50" type="line"/>
      <point x="340" y="50" type="line"/>
    </contour>
  </outline>
</glyph>
<glyph name="uni0037" format="2">
  <advance width="500"/>
  <unicode hex="0037"/>
  <outline>
    <contour>
      <point x="86" y="582" type="curve"/>
      <point x="414" y="582" type="line"/>
      <point x="422.836556" y="582"/>
      <point x="430" y="589.163444"/>
      <point x="430" y="598" type="curve"/>
      <point x="430" y="684" type="line"/>
      <point x="430" y="692.836556"/>
      <point x="422.836556" y="700"/>
      <point x="414" y="700" type="curve"/>
      <point x="86" y="700" type="line"/>
      <point x="77.163444" y="700"/>
      <point x="70" y="692.836556"/>
      <point x="70" y="684" type="curve"/>
      <point x="70" y="598" type="line"/>
      <point x="70" y="589.163444"/>
      <point x="77.163444" y="582"/>
    </contour>
    <contour>
      <point x="465.2540415743026" y="620.3120593169538" type="line"/>
      <point x="225.25404157430262" y="-20.68794068304622" type="line"/>
      <point x="114.74595842569738" y="20.68794068304622" type="line"/>
      <point x="354.7459584256974" y="661.6879406830462" type="line"/>
    </contour>
    <contour>
      <point x="80" y="0" type="line"/>
      <point x="160" y="0" type="line"/>
      <point x="160" y="50" type="line"/>
      <point x="80" y="50" type="line"/>
    </contour>
    <contour>
      <point x="340" y="0" type="line"/>
      <point x="420" y="0" type="line"/>
      <point x="420" y="50" type="line"/>
      <point x="340" y="50" type="line"/>
    </contour>
  </outline>
</glyph>
<glyph name="uni0038" format="2">
  <advance width="500"/>
  <unicode hex="0038"/>
  <outline>
    <contour>
      <point x="415" y="525" type="curve"/>
      <point x="415" y="613.36556"/>
      <point x="341.12698375" y="685"/>
      <point x="250" y="685" type="curve"/>
      <point x="158.87301625" y="685"/>
      <point x="85" y="613.36556"/>
      <point x="85" y="525" type="curve"/>
      <point x="85" y="436.63444"/>
      <point x="158.87301625" y="365"/>
      <point x="250" y="365" type="curve"/>
      <point x="341.12698375" y="365"/>
      <point x="415" y="436.63444"/>
    </contour>
    <contour>
      <point x="297" y="525" type="curve"/>
      <point x="297" y="501.8040405"/>
      <point x="275.95738325" y="483"/>
      <point x="250" y="483" type="curve"/>
      <point x="224.04261675" y="483"/>
      <point x="203" y="501.8040405"/>
      <point x="203" y="525" type="curve"/>
      <point x="203" y="548.1959595"/>
      <point x="224.04261675" y="567"/>
      <point x="250" y="567" type="curve"/>
      <point x="275.95738325" y="567"/>
      <point x="297" y="548.1959595"/>
    </contour>
    <contour>
      <point x="415" y="175" type="curve"/>
      <point x="415" y="263.36556"/>
      <point x="341.12698375" y="335"/>
      <point x="250" y="335" type="curve"/>
      <point x="158.87301625" y="335"/>
      <point x="85" y="263.36556"/>
      <point x="85" y="175" type="curve"/>
      <point x="85" y="86.63444"/>
      <point x="158.87301625" y="15"/>
      <point x="250" y="15" type="curve"/>
      <point x="341.12698375" y="15"/>
      <point x="415" y="86.63444"/>
    </contour>
    <contour>
      <point x="297" y="175" type="curve"/>
      <point x="297" y="151.80404049999999"/>
      <point x="275.95738325" y="133"/>
      <point x="250" y="133" type="curve"/>
      <point x="224.04261675" y="133"/>
      <point x="203" y="151.80404049999999"/>
      <point x="203" y="175" type="curve"/>
      <point x="203" y="198.19595950000001"/>
      <point x="224.04261675" y="217"/>
      <point x="250" y="217" type="curve"/>
      <point x="275.95738325" y="217"/>
      <point x="297" y="198.19595950000001"/>
    </contour>
    <contour>
      <point x="80" y="0" type="line"/>
      <point x="160" y="0" type="line"/>
      <point x="160" y="50" type="line"/>
      <point x="80" y="50" type="line"/>
    </contour>
    <contour>
      <point x="340" y="0" type="line"/>
      <point x="420" y="0" type="line"/>
      <point x="420" y="50" type="line"/>
      <point x="340" y="50" type="line"/>
    </contour>
  </outline>
</glyph>
<glyph name="uni0039" format="2">
  <advance width="500"/>
  <unicode hex="0039"/>
  <outline>
    <contour>
      <point x="425" y="510" type="curve"/>
      <point x="425" y="614.9341025"/>
      <point x="346.64983125000003" y="700"/>
      <point x="250" y="700" type="curve"/>
      <point x="153.35016875" y="700"/>
      <point x="75" y="614.9341025"/>
      <point x="75" y="510" type="curve"/>
      <point x="75" y="405.0658975"/>
      <point x="153.35016875" y="320"/>
      <point x="250" y="320" type="curve"/>
      <point x="346.64983125000003" y="320"/>
      <point x="425" y="405.0658975"/>
    </contour>
    <contour>
      <point x="307" y="510" type="curve"/>
      <point x="307" y="470.235498"/>
      <point x="281.48023075" y="438"/>
      <point x="250" y="438" type="curve"/>
      <point x="218.51976925" y="438"/>
      <point x="193" y="470.235498"/>
      <point x="193" y="510" type="curve"/>
      <point x="193" y="549.764502"/>
      <point x="218.51976925" y="582"/>
      <point x="250" y="582" type="curve"/>
      <point x="281.48023075" y="582"/>
      <point x="307" y="549.764502"/>
    </contour>
    <contour>
      <point x="425" y="510" type="line"/>
      <point x="425" y="194"/>
      <point x="312" y="-10"/>
      <point x="148" y="-10" type="curve"/>
      <point x="115" y="54" type="line"/>
      <point x="250" y="64"/>
      <point x="361" y="208"/>
      <point x="361" y="480" type="curve"/>
    </contour>
    <contour>
      <point x="80" y="0" type="line"/>
      <point x="160" y="0" type="line"/>
      <point x="160" y="50" type="line"/>
      <point x="80" y="50" type="line"/>
    </contour>
    <contour>
      <point x="340" y="0" type="line"/>
      <point x="420" y="0" type="line"/>
      <point x="420" y="50" type="line"/>
      <point x="340" y="50" type="line"/>
    </contour>
  </outline>
</glyph>
<glyph name="uni003A" format="2">
  <advance width="250"/>
  <unicode hex="003A"/>
  <outline>
    <contour>
      <point x="309.0" y="390" type="curve"/>
      <point x="309.0" y="422.58480025"/>
      <point x="282.58480025" y="449.0"/>
      <point x="250" y="449.0" type="curve"/>
      <point x="217.41519975" y="449.0"/>
      <point x="191.0" y="422.58480025"/>
      <point x="191.0" y="390" type="curve"/>
      <point x="191.0" y="357.41519975"/>
      <point x="217.41519975" y="331.0"/>
      <point x="250" y="331.0" type="curve"/>
      <point x="282.58480025" y="331.0"/>
      <point x="309.0" y="357.41519975"/>
    </contour>
    <contour>
      <point x="309.0" y="35" type="curve"/>
      <point x="309.0" y="67.58480025"/>
      <point x="282.58480025" y="94.0"/>
      <point x="250" y="94.0" type="curve"/>
      <point x="217.41519975" y="94.0"/>
      <point x="191.0" y="67.58480025"/>
      <point x="191.0" y="35" type="curve"/>
      <point x="191.0" y="2.4151997499999993"/>
      <point x="217.41519975" y="-24.0"/>
      <point x="250" y="-24.0" type="curve"/>
      <point x="282.58480025" y="-24.0"/>
      <point x="309.0" y="2.4151997499999993"/>
    </contour>
  </outline>
</glyph>
<glyph name="uni003D" format="2">
  <advance width="500"/>
  <unicode hex="003D"/>
  <outline>
    <contour>
      <point x="90" y="230" type="line"/>
      <point x="410" y="230" type="line"/>
      <point x="410" y="348" type="line"/>
      <point x="90" y="348" type="line"/>
    </contour>
    <contour>
      <point x="90" y="390" type="line"/>
      <point x="410" y="390" type="line"/>
      <point x="410" y="508" type="line"/>
      <point x="90" y="508" type="line"/>
    </contour>
  </outline>
</glyph>
<glyph name="uni003E" format="2">
  <advance width="500"/>
  <unicode hex="003E"/>
  <outline>
    <contour>
      <point x="80" y="0" type="line"/>
      <point x="420" y="0" type="line"/>
      <point x="420" y="118" type="line"/>
      <point x="80" y="118" type="line"/>
    </contour>
    <contour>
      <point x="80" y="582" type="line"/>
      <point x="420" y="582" type="line"/>
      <point x="420" y="700" type="line"/>
      <point x="80" y="700" type="line"/>
    </contour>
    <contour>
      <point x="80" y="0" type="line"/>
      <point x="198" y="0" type="line"/>
      <point x="198" y="700" type="line"/>
      <point x="80" y="700" type="line"/>
    </contour>
    <contour>
      <point x="302" y="0" type="line"/>
      <point x="420" y="0" type="line"/>
      <point x="420" y="700" type="line"/>
      <point x="302" y="700" type="line"/>
    </contour>
  </outline>
</glyph>
<glyph name="uni003F" format="2">
  <advance width="500"/>
  <unicode hex="003F"/>
  <outline>
    <contour>
      <point x="105" y="437" type="line"/>
      <point x="355" y="437" type="line"/>
      <point x="355" y="555" type="line"/>
      <point x="105" y="555" type="line"/>
    </contour>
    <contour>
      <point x="237" y="300" type="line"/>
      <point x="355" y="300" type="line"/>
      <point x="355" y="555" type="line"/>
      <point x="237" y="555" type="line"/>
    </contour>
    <contour>
      <point x="215" y="190" type="line"/>
      <point x="333" y="190" type="line"/>
      <point x="333" y="300" type="line"/>
      <point x="215" y="300" type="line"/>
    </contour>
    <contour>
      <point x="309.0" y="35" type="curve"/>
      <point x="309.0" y="67.58480025"/>
      <point x="282.58480025" y="94.0"/>
      <point x="250" y="94.0" type="curve"/>
      <point x="217.41519975" y="94.0"/>
      <point x="191.0" y="67.58480025"/>
      <point x="191.0" y="35" type="curve"/>
      <point x="191.0" y="2.4151997499999993"/>
      <point x="217.41519975" y="-24.0"/>
      <point x="250" y="-24.0" type="curve"/>
      <point x="282.58480025" y="-24.0"/>
      <point x="309.0" y="2.4151997499999993"/>
    </contour>
  </outline>
</glyph>
<glyph name="uni0040" format="2">
  <advance width="560"/>
  <unicode hex="0040"/>
  <outline>
    <contour>
      <point x="460" y="350" type="curve"/>
      <point x="460" y="504.63973"/>
      <point x="365.9797975" y="630"/>
      <point x="250" y="630" type="curve"/>
      <point x="134.02020249999998" y="630"/>
      <point x="40" y="504.63973"/>
      <point x="40" y="350" type="curve"/>
      <point x="40" y="195.36027"/>
      <point x="134.02020249999998" y="70"/>
      <point x="250" y="70" type="curve"/>
      <point x="365.9797975" y="70"/>
      <point x="460" y="195.36027"/>
    </contour>
    <contour>
      <point x="342" y="350" type="curve"/>
      <point x="342" y="260.5298705"/>
      <point x="300.810197" y="188"/>
      <point x="250" y="188" type="curve"/>
      <point x="199.18980299999998" y="188"/>
      <point x="158" y="260.5298705"/>
      <point x="158" y="350" type="curve"/>
      <point x="158" y="439.4701295"/>
      <point x="199.18980299999998" y="512"/>
      <point x="250" y="512" type="curve"/>
      <point x="300.810197" y="512"/>
      <point x="342" y="439.4701295"/>
    </contour>
    <contour>
      <point x="360" y="350" type="curve"/>
      <point x="360" y="416.27417"/>
      <point x="315.228475" y="470"/>
      <point x="260" y="470" type="curve"/>
      <point x="204.771525" y="470"/>
      <point x="160" y="416.27417"/>
      <point x="160" y="350" type="curve"/>
      <point x="160" y="283.72583"/>
      <point x="204.771525" y="230"/>
      <point x="260" y="230" type="curve"/>
      <point x="315.228475" y="230"/>
      <point x="360" y="283.72583"/>
    </contour>
    <contour>
      <point x="268" y="350" type="curve"/>
      <point x="268" y="345.581722"/>
      <point x="264.418278" y="342"/>
      <point x="260" y="342" type="curve"/>
      <point x="255.581722" y="342"/>
      <point x="252" y="345.581722"/>
      <point x="252" y="350" type="curve"/>
      <point x="252" y="354.418278"/>
      <point x="255.581722" y="358"/>
      <point x="260" y="358" type="curve"/>
      <point x="264.418278" y="358"/>
      <point x="268" y="354.418278"/>
    </contour>
    <contour>
      <point x="320" y="290" type="line"/>
      <point x="438" y="290" type="line"/>
      <point x="438" y="440" type="line"/>
      <point x="320" y="440" type="line"/>
    </contour>
  </outline>
</glyph>
<glyph name="A" format="2">
  <advance width="540"/>
  <unicode hex="0041"/>
  <outline>
    <contour>
      <point x="14.2760834599177" y="12.204485211331685" type="line"/>
      <point x="162.2760834599177" y="712.2044852113316" type="line"/>
      <point x="277.7239165400823" y="687.7955147886684" type="line"/>
      <point x="129.7239165400823" y="-12.204485211331685" type="line"/>
    </contour>
    <contour>
      <point x="370.2760834599177" y="-12.204485211331685" type="line"/>
      <point x="222.2760834599177" y="687.7955147886684" type="line"/>
      <point x="337.7239165400823" y="712.2044852113316" type="line"/>
      <point x="485.7239165400823" y="12.204485211331685" type="line"/>
    </contour>
    <contour>
      <point x="167" y="286" type="curve"/>
      <point x="333" y="286" type="line"/>
      <point x="341.836556" y="286"/>
      <point x="349" y="293.163444"/>
      <point x="349" y="302" type="curve"/>
      <point x="349" y="366.76" type="line"/>
      <point x="349" y="375.59655599999996"/>
      <point x="341.836556" y="382.76"/>
      <point x="333" y="382.76" type="curve"/>
      <point x="167" y="382.76" type="line"/>
      <point x="158.163444" y="382.76"/>
      <point x="151" y="375.59655599999996"/>
      <point x="151" y="366.76" type="curve"/>
      <point x="151" y="302" type="line"/>
      <point x="151" y="293.163444"/>
      <point x="158.163444" y="286"/>
    </contour>
    <contour>
      <point x="18" y="0" type="line"/>
      <point x="138" y="0" type="line"/>
      <point x="138" y="50" type="line"/>
      <point x="18" y="50" type="line"/>
    </contour>
    <contour>
      <point x="18" y="650" type="line"/>
      <point x="138" y="650" type="line"/>
      <point x="138" y="700" type="line"/>
      <point x="18" y="700" type="line"/>
    </contour>
    <contour>
      <point x="362" y="0" type="line"/>
      <point x="482" y="0" type="line"/>
      <point x="482" y="50" type="line"/>
      <point x="362" y="50" type="line"/>
    </contour>
    <contour>
      <point x="362" y="650" type="line"/>
      <point x="482" y="650" type="line"/>
      <point x="482" y="700" type="line"/>
      <point x="362" y="700" type="line"/>
    </contour>
  </outline>
</glyph>
<glyph name="B" format="2">
  <advance width="540"/>
  <unicode hex="0042"/>
  <outline>
    <contour>
      <point x="40" y="0" type="line"/>
      <point x="158" y="0" type="line"/>
      <point x="158" y="700" type="line"/>
      <point x="40" y="700" type="line"/>
    </contour>
    <contour>
      <point x="435" y="525" type="curve"/>
      <point x="435" y="613.36556"/>
      <point x="349.9341025" y="685"/>
      <point x="245" y="685" type="curve"/>
      <point x="140.0658975" y="685"/>
      <point x="55" y="613.36556"/>
      <point x="55" y="525" type="curve"/>
      <point x="55" y="436.63444"/>
      <point x="140.0658975" y="365"/>
      <point x="245" y="365" type="curve"/>
      <point x="349.9341025" y="365"/>
      <point x="435" y="436.63444"/>
    </contour>
    <contour>
      <point x="317" y="525" type="curve"/>
      <point x="317" y="501.8040405"/>
      <point x="284.764502" y="483"/>
      <point x="245" y="483" type="curve"/>
      <point x="205.235498" y="483"/>
      <point x="173" y="501.8040405"/>
      <point x="173" y="525" type="curve"/>
      <point x="173" y="548.1959595"/>
      <point x="205.235498" y="567"/>
      <point x="245" y="567" type="curve"/>
      <point x="284.764502" y="567"/>
      <point x="317" y="548.1959595"/>
    </contour>
    <contour>
      <point x="435" y="175" type="curve"/>
      <point x="435" y="263.36556"/>
      <point x="349.9341025" y="335"/>
      <point x="245" y="335" type="curve"/>
      <point x="140.0658975" y="335"/>
      <point x="55" y="263.36556"/>
      <point x="55" y="175" type="curve"/>
      <point x="55" y="86.63444"/>
      <point x="140.0658975" y="15"/>
      <point x="245" y="15" type="curve"/>
      <point x="349.9341025" y="15"/>
      <point x="435" y="86.63444"/>
    </contour>
    <contour>
      <point x="317" y="175" type="curve"/>
      <point x="317" y="151.80404049999999"/>
      <point x="284.764502" y="133"/>
      <point x="245" y="133" type="curve"/>
      <point x="205.235498" y="133"/>
      <point x="173" y="151.80404049999999"/>
      <point x="173" y="175" type="curve"/>
      <point x="173" y="198.19595950000001"/>
      <point x="205.235498" y="217"/>
      <point x="245" y="217" type="curve"/>
      <point x="284.764502" y="217"/>
      <point x="317" y="198.19595950000001"/>
    </contour>
    <contour>
      <point x="18" y="0" type="line"/>
      <point x="138" y="0" type="line"/>
      <point x="138" y="50" type="line"/>
      <point x="18" y="50" type="line"/>
    </contour>
    <contour>
      <point x="18" y="650" type="line"/>
      <point x="138" y="650" type="line"/>
      <point x="138" y="700" type="line"/>
      <point x="18" y="700" type="line"/>
    </contour>
    <contour>
      <point x="362" y="0" type="line"/>
      <point x="482" y="0" type="line"/>
      <point x="482" y="50" type="line"/>
      <point x="362" y="50" type="line"/>
    </contour>
    <contour>
      <point x="362" y="650" type="line"/>
      <point x="482" y="650" type="line"/>
      <point x="482" y="700" type="line"/>
      <point x="362" y="700" type="line"/>
    </contour>
  </outline>
</glyph>
<glyph name="C" format="2">
  <advance width="540"/>
  <unicode hex="0043"/>
  <outline>
    <contour>
      <point x="411.0" y="588.0" type="line"/>
      <point x="353.76" y="700"/>
      <point x="162.96" y="700"/>
      <point x="40" y="500.5" type="curve"/>
      <point x="40" y="199.5"/>
      <point x="162.96" y="0"/>
      <point x="353.76" y="0" type="curve"/>
      <point x="406.76" y="87.5"/>
      <point x="411.0" y="147.0"/>
      <point x="411.0" y="175.0" type="curve"/>
      <point x="322.5" y="213.5" type="line"/>
      <point x="332.56" y="118"/>
      <point x="158" y="238.0"/>
      <point x="158" y="350" type="curve"/>
      <point x="158" y="462.0"/>
      <point x="332.56" y="582"/>
      <point x="322.5" y="486.5" type="curve"/>
    </contour>
    <contour>
      <point x="18" y="0" type="line"/>
      <point x="138" y="0" type="line"/>
      <point x="138" y="50" type="line"/>
      <point x="18" y="50" type="line"/>
    </contour>
    <contour>
      <point x="18" y="650" type="line"/>
      <point x="138" y="650" type="line"/>
      <point x="138" y="700" type="line"/>
      <point x="18" y="700" type="line"/>
    </contour>
    <contour>
      <point x="362" y="0" type="line"/>
      <point x="482" y="0" type="line"/>
      <point x="482" y="50" type="line"/>
      <point x="362" y="50" type="line"/>
    </contour>
    <contour>
      <point x="362" y="650" type="line"/>
      <point x="482" y="650" type="line"/>
      <point x="482" y="700" type="line"/>
      <point x="362" y="700" type="line"/>
    </contour>
  </outline>
</glyph>
<glyph name="E" format="2">
  <advance width="540"/>
  <unicode hex="0045"/>
  <outline>
    <contour>
      <point x="40" y="0" type="line"/>
      <point x="158" y="0" type="line"/>
      <point x="158" y="700" type="line"/>
      <point x="40" y="700" type="line"/>
    </contour>
    <contour>
      <point x="40" y="582" type="line"/>
      <point x="430" y="582" type="line"/>
      <point x="430" y="700" type="line"/>
      <point x="40" y="700" type="line"/>
    </contour>
    <contour>
      <point x="40" y="310" type="line"/>
      <point x="350" y="310" type="line"/>
      <point x="350" y="428" type="line"/>
      <point x="40" y="428" type="line"/>
    </contour>
    <contour>
      <point x="40" y="0" type="line"/>
      <point x="430" y="0" type="line"/>
      <point x="430" y="118" type="line"/>
      <point x="40" y="118" type="line"/>
    </contour>
    <contour>
      <point x="18" y="0" type="line"/>
      <point x="138" y="0" type="line"/>
      <point x="138" y="50" type="line"/>
      <point x="18" y="50" type="line"/>
    </contour>
    <contour>
      <point x="18" y="650" type="line"/>
      <point x="138" y="650" type="line"/>
      <point x="138" y="700" type="line"/>
      <point x="18" y="700" type="line"/>
    </contour>
    <contour>
      <point x="362" y="0" type="line"/>
      <point x="482" y="0" type="line"/>
      <point x="482" y="50" type="line"/>
      <point x="362" y="50" type="line"/>
    </contour>
    <contour>
      <point x="362" y="650" type="line"/>
      <point x="482" y="650" type="line"/>
      <point x="482" y="700" type="line"/>
      <point x="362" y="700" type="line"/>
    </contour>
  </outline>
</glyph>
<glyph name="F" format="2">
  <advance width="540"/>
  <unicode hex="0046"/>
  <outline>
    <contour>
      <point x="40" y="0" type="line"/>
      <point x="158" y="0" type="line"/>
      <point x="158" y="700" type="line"/>
      <point x="40" y="700" type="line"/>
    </contour>
    <contour>
      <point x="40" y="582" type="line"/>
      <point x="430" y="582" type="line"/>
      <point x="430" y="700" type="line"/>
      <point x="40" y="700" type="line"/>
    </contour>
    <contour>
      <point x="40" y="310" type="line"/>
      <point x="310" y="310" type="line"/>
      <point x="310" y="428" type="line"/>
      <point x="40" y="428" type="line"/>
    </contour>
    <contour>
      <point x="18" y="0" type="line"/>
      <point x="138" y="0" type="line"/>
      <point x="138" y="50" type="line"/>
      <point x="18" y="50" type="line"/>
    </contour>
    <contour>
      <point x="18" y="650" type="line"/>
      <point x="138" y="650" type="line"/>
      <point x="138" y="700" type="line"/>
      <point x="18" y="700" type="line"/>
    </contour>
    <contour>
      <point x="362" y="0" type="line"/>
      <point x="482" y="0" type="line"/>
      <point x="482" y="50" type="line"/>
      <point x="362" y="50" type="line"/>
    </contour>
    <contour>
      <point x="362" y="650" type="line"/>
      <point x="482" y="650" type="line"/>
      <point x="482" y="700" type="line"/>
      <point x="362" y="700" type="line"/>
    </contour>
  </outline>
</glyph>
<glyph name="G" format="2">
  <advance width="540"/>
  <unicode hex="0047"/>
  <outline>
    <contour>
      <point x="419.48" y="588.0" type="line"/>
      <point x="353.76" y="700"/>
      <point x="162.96" y="700"/>
      <point x="40" y="500.5" type="curve"/>
      <point x="40" y="199.5"/>
      <point x="162.96" y="0"/>
      <point x="353.76" y="0" type="curve"/>
      <point x="406.76" y="87.5"/>
      <point x="419.48" y="147.0"/>
      <point x="419.48" y="175.0" type="curve"/>
      <point x="326.26" y="213.5" type="line"/>
      <point x="332.56" y="118"/>
      <point x="158" y="238.0"/>
      <point x="158" y="350" type="curve"/>
      <point x="158" y="462.0"/>
      <point x="332.56" y="582"/>
      <point x="326.26" y="486.5" type="curve"/>
    </contour>
    <contour>
      <point x="268" y="294" type="curve"/>
      <point x="422" y="294" type="line"/>
      <point x="431.9411255" y="294"/>
      <point x="440" y="302.0588745"/>
      <point x="440" y="312" type="curve"/>
      <point x="440" y="394" type="line"/>
      <point x="440" y="403.9411255"/>
      <point x="431.9411255" y="412"/>
      <point x="422" y="412" type="curve"/>
      <point x="268" y="412" type="line"/>
      <point x="258.0588745" y="412"/>
      <point x="250" y="403.9411255"/>
      <point x="250" y="394" type="curve"/>
      <point x="250" y="312" type="line"/>
      <point x="250" y="302.0588745"/>
      <point x="258.0588745" y="294"/>
    </contour>
    <contour>
      <point x="394" y="132" type="curve"/>
      <point x="476" y="132" type="line"/>
      <point x="485.9411255" y="132"/>
      <point x="494" y="140.0588745"/>
      <point x="494" y="150" type="curve"/>
      <point x="494" y="282" type="line"/>
      <point x="494" y="291.9411255"/>
      <point x="485.9411255" y="300"/>
      <point x="476" y="300" type="curve"/>
      <point x="394" y="300" type="line"/>
      <point x="384.0588745" y="300"/>
      <point x="376" y="291.9411255"/>
      <point x="376" y="282" type="curve"/>
      <point x="376" y="150" type="line"/>
      <point x="376" y="140.0588745"/>
      <point x="384.0588745" y="132"/>
    </contour>
    <contour>
      <point x="18" y="0" type="line"/>
      <point x="138" y="0" type="line"/>
      <point x="138" y="50" type="line"/>
      <point x="18" y="50" type="line"/>
    </contour>
    <contour>
      <point x="18" y="650" type="line"/>
      <point x="138" y="650" type="line"/>
      <point x="138" y="700" type="line"/>
      <point x="18" y="700" type="line"/>
    </contour>
    <contour>
      <point x="362" y="0" type="line"/>
      <point x="482" y="0" type="line"/>
      <point x="482" y="50" type="line"/>
      <point x="362" y="50" type="line"/>
    </contour>
    <contour>
      <point x="362" y="650" type="line"/>
      <point x="482" y="650" type="line"/>
      <point x="482" y="700" type="line"/>
      <point x="362" y="700" type="line"/>
    </contour>
  </outline>
</glyph>
<glyph name="H" format="2">
  <advance width="540"/>
  <unicode hex="0048"/>
  <outline>
    <contour>
      <point x="40" y="0" type="line"/>
      <point x="158" y="0" type="line"/>
      <point x="158" y="700" type="line"/>
      <point x="40" y="700" type="line"/>
    </contour>
    <contour>
      <point x="396" y="0" type="line"/>
      <point x="514" y="0" type="line"/>
      <point x="514" y="700" type="line"/>
      <point x="396" y="700" type="line"/>
    </contour>
    <contour>
      <point x="40" y="320" type="line"/>
      <point x="460" y="320" type="line"/>
      <point x="460" y="438" type="line"/>
      <point x="40" y="438" type="line"/>
    </contour>
    <contour>
      <point x="18" y="0" type="line"/>
      <point x="138" y="0" type="line"/>
      <point x="138" y="50" type="line"/>
      <point x="18" y="50" type="line"/>
    </contour>
    <contour>
      <point x="18" y="650" type="line"/>
      <point x="138" y="650" type="line"/>
      <point x="138" y="700" type="line"/>
      <point x="18" y="700" type="line"/>
    </contour>
    <contour>
      <point x="362" y="0" type="line"/>
      <point x="482" y="0" type="line"/>
      <point x="482" y="50" type="line"/>
      <point x="362" y="50" type="line"/>
    </contour>
    <contour>
      <point x="362" y="650" type="line"/>
      <point x="482" y="650" type="line"/>
      <point x="482" y="700" type="line"/>
      <point x="362" y="700" type="line"/>
    </contour>
  </outline>
</glyph>
<glyph name="I" format="2">
  <advance width="290"/>
  <unicode hex="0049"/>
  <outline>
    <contour>
      <point x="218" y="0" type="line"/>
      <point x="336" y="0" type="line"/>
      <point x="336" y="700" type="line"/>
      <point x="218" y="700" type="line"/>
    </contour>
    <contour>
      <point x="18" y="0" type="line"/>
      <point x="138" y="0" type="line"/>
      <point x="138" y="50" type="line"/>
      <point x="18" y="50" type="line"/>
    </contour>
    <contour>
      <point x="18" y="650" type="line"/>
      <point x="138" y="650" type="line"/>
      <point x="138" y="700" type="line"/>
      <point x="18" y="700" type="line"/>
    </contour>
    <contour>
      <point x="362" y="0" type="line"/>
      <point x="482" y="0" type="line"/>
      <point x="482" y="50" type="line"/>
      <point x="362" y="50" type="line"/>
    </contour>
    <contour>
      <point x="362" y="650" type="line"/>
      <point x="482" y="650" type="line"/>
      <point x="482" y="700" type="line"/>
      <point x="362" y="700" type="line"/>
    </contour>
  </outline>
</glyph>
<glyph name="J" format="2">
  <advance width="540"/>
  <unicode hex="004A"/>
  <outline>
    <contour>
      <point x="363" y="150" type="curve"/>
      <point x="445" y="150" type="line"/>
      <point x="454.9411255" y="150"/>
      <point x="463" y="158.0588745"/>
      <point x="463" y="168" type="curve"/>
      <point x="463" y="682" type="line"/>
      <point x="463" y="691.9411255"/>
      <point x="454.9411255" y="700"/>
      <point x="445" y="700" type="curve"/>
      <point x="363" y="700" type="line"/>
      <point x="353.0588745" y="700"/>
      <point x="345" y="691.9411255"/>
      <point x="345" y="682" type="curve"/>
      <point x="345" y="168" type="line"/>
      <point x="345" y="158.0588745"/>
      <point x="353.0588745" y="150"/>
    </contour>
    <contour>
      <point x="409" y="150" type="line"/>
      <point x="409" y="42"/>
      <point x="328" y="-8"/>
      <point x="218" y="-8" type="curve"/>
      <point x="110" y="-8"/>
      <point x="48" y="47"/>
      <point x="48" y="160" type="curve"/>
      <point x="112" y="160" type="line"/>
      <point x="112" y="85"/>
      <point x="147" y="54"/>
      <point x="218" y="54" type="curve"/>
      <point x="286" y="54"/>
      <point x="345" y="83"/>
      <point x="345" y="150" type="curve"/>
    </contour>
    <contour>
      <point x="18" y="0" type="line"/>
      <point x="138" y="0" type="line"/>
      <point x="138" y="50" type="line"/>
      <point x="18" y="50" type="line"/>
    </contour>
    <contour>
      <point x="18" y="650" type="line"/>
      <point x="138" y="650" type="line"/>
      <point x="138" y="700" type="line"/>
      <point x="18" y="700" type="line"/>
    </contour>
    <contour>
      <point x="362" y="0" type="line"/>
      <point x="482" y="0" type="line"/>
      <point x="482" y="50" type="line"/>
      <point x="362" y="50" type="line"/>
    </contour>
    <contour>
      <point x="362" y="650" type="line"/>
      <point x="482" y="650" type="line"/>
      <point x="482" y="700" type="line"/>
      <point x="362" y="700" type="line"/>
    </contour>
  </outline>
</glyph>
<glyph name="K" format="2">
  <advance width="540"/>
  <unicode hex="004B"/>
  <outline>
    <contour>
      <point x="40" y="0" type="line"/>
      <point x="158" y="0" type="line"/>
      <point x="158" y="700" type="line"/>
      <point x="40" y="700" type="line"/>
    </contour>
    <contour>
      <point x="473.17325815772006" y="659.7871938302379" type="line"/>
      <point x="147.17325815772006" y="309.78719383023787" type="line"/>
      <point x="60.82674184227994" y="390.21280616976213" type="line"/>
      <point x="386.82674184227994" y="740.2128061697621" type="line"/>
    </contour>
    <contour>
      <point x="146.56185194082616" y="390.8593778631931" type="line"/>
      <point x="482.56185194082616" y="40.859377863193096" type="line"/>
      <point x="397.43814805917384" y="-40.859377863193096" type="line"/>
      <point x="61.438148059173855" y="309.1406221368069" type="line"/>
    </contour>
    <contour>
      <point x="18" y="0" type="line"/>
      <point x="138" y="0" type="line"/>
      <point x="138" y="50" type="line"/>
      <point x="18" y="50" type="line"/>
    </contour>
    <contour>
      <point x="18" y="650" type="line"/>
      <point x="138" y="650" type="line"/>
      <point x="138" y="700" type="line"/>
      <point x="18" y="700" type="line"/>
    </contour>
    <contour>
      <point x="362" y="0" type="line"/>
      <point x="482" y="0" type="line"/>
      <point x="482" y="50" type="line"/>
      <point x="362" y="50" type="line"/>
    </contour>
    <contour>
      <point x="362" y="650" type="line"/>
      <point x="482" y="650" type="line"/>
      <point x="482" y="700" type="line"/>
      <point x="362" y="700" type="line"/>
    </contour>
  </outline>
</glyph>
<glyph name="L" format="2">
  <advance width="540"/>
  <unicode hex="004C"/>
  <outline>
    <contour>
      <point x="40" y="0" type="line"/>
      <point x="158" y="0" type="line"/>
      <point x="158" y="700" type="line"/>
      <point x="40" y="700" type="line"/>
    </contour>
    <contour>
      <point x="40" y="0" type="line"/>
      <point x="440" y="0" type="line"/>
      <point x="440" y="118" type="line"/>
      <point x="40" y="118" type="line"/>
    </contour>
    <contour>
      <point x="18" y="0" type="line"/>
      <point x="138" y="0" type="line"/>
      <point x="138" y="50" type="line"/>
      <point x="18" y="50" type="line"/>
    </contour>
    <contour>
      <point x="18" y="650" type="line"/>
      <point x="138" y="650" type="line"/>
      <point x="138" y="700" type="line"/>
      <point x="18" y="700" type="line"/>
    </contour>
    <contour>
      <point x="362" y="0" type="line"/>
      <point x="482" y="0" type="line"/>
      <point x="482" y="50" type="line"/>
      <point x="362" y="50" type="line"/>
    </contour>
    <contour>
      <point x="362" y="650" type="line"/>
      <point x="482" y="650" type="line"/>
      <point x="482" y="700" type="line"/>
      <point x="362" y="700" type="line"/>
    </contour>
  </outline>
</glyph>
<glyph name="M" format="2">
  <advance width="600"/>
  <unicode hex="004D"/>
  <outline>
    <contour>
      <point x="40" y="0" type="line"/>
      <point x="158" y="0" type="line"/>
      <point x="158" y="700" type="line"/>
      <point x="40" y="700" type="line"/>
    </contour>
    <contour>
      <point x="430" y="0" type="line"/>
      <point x="548" y="0" type="line"/>
      <point x="548" y="700" type="line"/>
      <point x="430" y="700" type="line"/>
    </contour>
    <contour>
      <point x="158.45232817643142" y="722.7143997535971" type="line"/>
      <point x="304.4523281764314" y="372.7143997535971" type="line"/>
      <point x="195.54767182356858" y="327.2856002464029" type="line"/>
      <point x="49.54767182356858" y="677.2856002464029" type="line"/>
    </contour>
    <contour>
      <point x="450.4523281764314" y="677.2856002464029" type="line"/>
      <point x="304.4523281764314" y="327.2856002464029" type="line"/>
      <point x="195.54767182356858" y="372.7143997535971" type="line"/>
      <point x="341.5476718235686" y="722.7143997535971" type="line"/>
    </contour>
    <contour>
      <point x="18" y="0" type="line"/>
      <point x="138" y="0" type="line"/>
      <point x="138" y="50" type="line"/>
      <point x="18" y="50" type="line"/>
    </contour>
    <contour>
      <point x="18" y="650" type="line"/>
      <point x="138" y="650" type="line"/>
      <point x="138" y="700" type="line"/>
      <point x="18" y="700" type="line"/>
    </contour>
    <contour>
      <point x="362" y="0" type="line"/>
      <point x="482" y="0" type="line"/>
      <point x="482" y="50" type="line"/>
      <point x="362" y="50" type="line"/>
    </contour>
    <contour>
      <point x="362" y="650" type="line"/>
      <point x="482" y="650" type="line"/>
      <point x="482" y="700" type="line"/>
      <point x="362" y="700" type="line"/>
    </contour>
  </outline>
</glyph>
<glyph name="N" format="2">
  <advance width="540"/>
  <unicode hex="004E"/>
  <outline>
    <contour>
      <point x="40" y="0" type="line"/>
      <point x="158" y="0" type="line"/>
      <point x="158" y="700" type="line"/>
      <point x="40" y="700" type="line"/>
    </contour>
    <contour>
      <point x="396" y="0" type="line"/>
      <point x="514" y="0" type="line"/>
      <point x="514" y="700" type="line"/>
      <point x="396" y="700" type="line"/>
    </contour>
    <contour>
      <point x="158.45232817643142" y="722.7143997535971" type="line"/>
      <point x="450.4523281764314" y="22.71439975359711" type="line"/>
      <point x="341.5476718235686" y="-22.71439975359711" type="line"/>
      <point x="49.54767182356858" y="677.2856002464029" type="line"/>
    </contour>
    <contour>
      <point x="18" y="0" type="line"/>
      <point x="138" y="0" type="line"/>
      <point x="138" y="50" type="line"/>
      <point x="18" y="50" type="line"/>
    </contour>
    <contour>
      <point x="18" y="650" type="line"/>
      <point x="138" y="650" type="line"/>
      <point x="138" y="700" type="line"/>
      <point x="18" y="700" type="line"/>
    </contour>
    <contour>
      <point x="362" y="0" type="line"/>
      <point x="482" y="0" type="line"/>
      <point x="482" y="50" type="line"/>
      <point x="362" y="50" type="line"/>
    </contour>
    <contour>
      <point x="362" y="650" type="line"/>
      <point x="482" y="650" type="line"/>
      <point x="482" y="700" type="line"/>
      <point x="362" y="700" type="line"/>
    </contour>
  </outline>
</glyph>
<glyph name="P" format="2">
  <advance width="540"/>
  <unicode hex="0050"/>
  <outline>
    <contour>
      <point x="40" y="0" type="line"/>
      <point x="158" y="0" type="line"/>
      <point x="158" y="700" type="line"/>
      <point x="40" y="700" type="line"/>
    </contour>
    <contour>
      <point x="435" y="525" type="curve"/>
      <point x="435" y="613.36556"/>
      <point x="349.9341025" y="685"/>
      <point x="245" y="685" type="curve"/>
      <point x="140.0658975" y="685"/>
      <point x="55" y="613.36556"/>
      <point x="55" y="525" type="curve"/>
      <point x="55" y="436.63444"/>
      <point x="140.0658975" y="365"/>
      <point x="245" y="365" type="curve"/>
      <point x="349.9341025" y="365"/>
      <point x="435" y="436.63444"/>
    </contour>
    <contour>
      <point x="317" y="525" type="curve"/>
      <point x="317" y="501.8040405"/>
      <point x="284.764502" y="483"/>
      <point x="245" y="483" type="curve"/>
      <point x="205.235498" y="483"/>
      <point x="173" y="501.8040405"/>
      <point x="173" y="525" type="curve"/>
      <point x="173" y="548.1959595"/>
      <point x="205.235498" y="567"/>
      <point x="245" y="567" type="curve"/>
      <point x="284.764502" y="567"/>
      <point x="317" y="548.1959595"/>
    </contour>
    <contour>
      <point x="18" y="0" type="line"/>
      <point x="138" y="0" type="line"/>
      <point x="138" y="50" type="line"/>
      <point x="18" y="50" type="line"/>
    </contour>
    <contour>
      <point x="18" y="650" type="line"/>
      <point x="138" y="650" type="line"/>
      <point x="138" y="700" type="line"/>
      <point x="18" y="700" type="line"/>
    </contour>
    <contour>
      <point x="362" y="0" type="line"/>
      <point x="482" y="0" type="line"/>
      <point x="482" y="50" type="line"/>
      <point x="362" y="50" type="line"/>
    </contour>
    <contour>
      <point x="362" y="650" type="line"/>
      <point x="482" y="650" type="line"/>
      <point x="482" y="700" type="line"/>
      <point x="362" y="700" type="line"/>
    </contour>
  </outline>
</glyph>
<glyph name="Q" format="2">
  <advance width="540"/>
  <unicode hex="0051"/>
  <outline>
    <contour>
      <point x="460" y="350" type="curve"/>
      <point x="460" y="543.2996625000001"/>
      <point x="365.9797975" y="700"/>
      <point x="250" y="700" type="curve"/>
      <point x="134.02020249999998" y="700"/>
      <point x="40" y="543.2996625000001"/>
      <point x="40" y="350" type="curve"/>
      <point x="40" y="156.7003375"/>
      <point x="134.02020249999998" y="0"/>
      <point x="250" y="0" type="curve"/>
      <point x="365.9797975" y="0"/>
      <point x="460" y="156.7003375"/>
    </contour>
    <contour>
      <point x="342" y="350" type="curve"/>
      <point x="342" y="221.869938"/>
      <point x="300.810197" y="118"/>
      <point x="250" y="118" type="curve"/>
      <point x="199.18980299999998" y="118"/>
      <point x="158" y="221.869938"/>
      <point x="158" y="350" type="curve"/>
      <point x="158" y="478.130062"/>
      <point x="199.18980299999998" y="582"/>
      <point x="250" y="582" type="curve"/>
      <point x="300.810197" y="582"/>
      <point x="342" y="478.130062"/>
    </contour>
    <contour>
      <point x="337.927774964933" y="175.47475925265115" type="line"/>
      <point x="502.927774964933" y="0.4747592526511397" type="line"/>
      <point x="417.072225035067" y="-80.47475925265114" type="line"/>
      <point x="252.07222503506696" y="94.52524074734886" type="line"/>
    </contour>
    <contour>
      <point x="18" y="0" type="line"/>
      <point x="138" y="0" type="line"/>
      <point x="138" y="50" type="line"/>
      <point x="18" y="50" type="line"/>
    </contour>
    <contour>
      <point x="18" y="650" type="line"/>
      <point x="138" y="650" type="line"/>
      <point x="138" y="700" type="line"/>
      <point x="18" y="700" type="line"/>
    </contour>
    <contour>
      <point x="362" y="0" type="line"/>
      <point x="482" y="0" type="line"/>
      <point x="482" y="50" type="line"/>
      <point x="362" y="50" type="line"/>
    </contour>
    <contour>
      <point x="362" y="650" type="line"/>
      <point x="482" y="650" type="line"/>
      <point x="482" y="700" type="line"/>
      <point x="362" y="700" type="line"/>
    </contour>
  </outline>
</glyph>
<glyph name="R" format="2">
  <advance width="540"/>
  <unicode hex="0052"/>
  <outline>
    <contour>
      <point x="40" y="0" type="line"/>
      <point x="158" y="0" type="line"/>
      <point x="158" y="700" type="line"/>
      <point x="40" y="700" type="line"/>
    </contour>
    <contour>
      <point x="435" y="525" type="curve"/>
      <point x="435" y="613.36556"/>
      <point x="349.9341025" y="685"/>
      <point x="245" y="685" type="curve"/>
      <point x="140.0658975" y="685"/>
      <point x="55" y="613.36556"/>
      <point x="55" y="525" type="curve"/>
      <point x="55" y="436.63444"/>
      <point x="140.0658975" y="365"/>
      <point x="245" y="365" type="curve"/>
      <point x="349.9341025" y="365"/>
      <point x="435" y="436.63444"/>
    </contour>
    <contour>
      <point x="317" y="525" type="curve"/>
      <point x="317" y="501.8040405"/>
      <point x="284.764502" y="483"/>
      <point x="245" y="483" type="curve"/>
      <point x="205.235498" y="483"/>
      <point x="173" y="501.8040405"/>
      <point x="173" y="525" type="curve"/>
      <point x="173" y="548.1959595"/>
      <point x="205.235498" y="567"/>
      <point x="245" y="567" type="curve"/>
      <point x="284.764502" y="567"/>
      <point x="317" y="548.1959595"/>
    </contour>
    <contour>
      <point x="302.1787004179712" y="387.53875855392926" type="line"/>
      <point x="492.1787004179712" y="27.53875855392925" type="line"/>
      <point x="387.8212995820288" y="-27.53875855392925" type="line"/>
      <point x="197.8212995820288" y="332.46124144607074" type="line"/>
    </contour>
    <contour>
      <point x="18" y="0" type="line"/>
      <point x="138" y="0" type="line"/>
      <point x="138" y="50" type="line"/>
      <point x="18" y="50" type="line"/>
    </contour>
    <contour>
      <point x="18" y="650" type="line"/>
      <point x="138" y="650" type="line"/>
      <point x="138" y="700" type="line"/>
      <point x="18" y="700" type="line"/>
    </contour>
    <contour>
      <point x="362" y="0" type="line"/>
      <point x="482" y="0" type="line"/>
      <point x="482" y="50" type="line"/>
      <point x="362" y="50" type="line"/>
    </contour>
    <contour>
      <point x="362" y="650" type="line"/>
      <point x="482" y="650" type="line"/>
      <point x="482" y="700" type="line"/>
      <point x="362" y="700" type="line"/>
    </contour>
  </outline>
</glyph>
<glyph name="S" format="2">
  <advance width="540"/>
  <unicode hex="0053"/>
  <outline>
    <contour>
      <point x="393.7" y="688.2" type="line"/>
      <point x="287.0" y="709.44"/>
      <point x="82.7" y="690.56"/>
      <point x="76.8" y="434.0" type="curve"/>
      <point x="70.9" y="357.0"/>
      <point x="227.8" y="359.44"/>
      <point x="246.3" y="350" type="curve"/>
      <point x="287.0" y="266.0"/>
      <point x="430.28" y="329.0"/>
      <point x="425.56" y="203.0" type="curve"/>
      <point x="420.84" y="5.9"/>
      <point x="205.6" y="-7.08"/>
      <point x="70.9" y="16.520000000000003" type="curve"/>
      <point x="83.88" y="115.64" type="line"/>
      <point x="213.0" y="73.16"/>
      <point x="358.3" y="100.3"/>
      <point x="366.56" y="189.0" type="curve"/>
      <point x="371.28" y="315.0"/>
      <point x="268.5" y="308.0"/>
      <point x="235.2" y="353.54" type="curve"/>
      <point x="187.1" y="367.7"/>
      <point x="119.28" y="364.16"/>
      <point x="126.36" y="448.0" type="curve"/>
      <point x="133.44" y="626.84"/>
      <point x="279.6" y="646.9"/>
      <point x="397.24" y="584.36" type="curve"/>
    </contour>
    <contour>
      <point x="18" y="0" type="line"/>
      <point x="138" y="0" type="line"/>
      <point x="138" y="50" type="line"/>
      <point x="18" y="50" type="line"/>
    </contour>
    <contour>
      <point x="18" y="650" type="line"/>
      <point x="138" y="650" type="line"/>
      <point x="138" y="700" type="line"/>
      <point x="18" y="700" type="line"/>
    </contour>
    <contour>
      <point x="362" y="0" type="line"/>
      <point x="482" y="0" type="line"/>
      <point x="482" y="50" type="line"/>
      <point x="362" y="50" type="line"/>
    </contour>
    <contour>
      <point x="362" y="650" type="line"/>
      <point x="482" y="650" type="line"/>
      <point x="482" y="700" type="line"/>
      <point x="362" y="700" type="line"/>
    </contour>
  </outline>
</glyph>
<glyph name="U" format="2">
  <advance width="540"/>
  <unicode hex="0055"/>
  <outline>
    <contour>
      <point x="58" y="210" type="curve"/>
      <point x="140" y="210" type="line"/>
      <point x="149.9411255" y="210"/>
      <point x="158" y="218.0588745"/>
      <point x="158" y="228" type="curve"/>
      <point x="158" y="682" type="line"/>
      <point x="158" y="691.9411255"/>
      <point x="149.9411255" y="700"/>
      <point x="140" y="700" type="curve"/>
      <point x="58" y="700" type="line"/>
      <point x="48.0588745" y="700"/>
      <point x="40" y="691.9411255"/>
      <point x="40" y="682" type="curve"/>
      <point x="40" y="228" type="line"/>
      <point x="40" y="218.0588745"/>
      <point x="48.0588745" y="210"/>
    </contour>
    <contour>
      <point x="414" y="210" type="curve"/>
      <point x="496" y="210" type="line"/>
      <point x="505.9411255" y="210"/>
      <point x="514" y="218.0588745"/>
      <point x="514" y="228" type="curve"/>
      <point x="514" y="682" type="line"/>
      <point x="514" y="691.9411255"/>
      <point x="505.9411255" y="700"/>
      <point x="496" y="700" type="curve"/>
      <point x="414" y="700" type="line"/>
      <point x="404.0588745" y="700"/>
      <point x="396" y="691.9411255"/>
      <point x="396" y="682" type="curve"/>
      <point x="396" y="228" type="line"/>
      <point x="396" y="218.0588745"/>
      <point x="404.0588745" y="210"/>
    </contour>
    <contour>
      <point x="40" y="210" type="line"/>
      <point x="40" y="68"/>
      <point x="127" y="-8"/>
      <point x="250" y="-8" type="curve"/>
      <point x="373" y="-8"/>
      <point x="460" y="68"/>
      <point x="460" y="210" type="curve"/>
      <point x="396" y="210" type="line"/>
      <point x="396" y="104"/>
      <point x="345" y="54"/>
      <point x="250" y="54" type="curve"/>
      <point x="155" y="54"/>
      <point x="104" y="104"/>
      <point x="104" y="210" type="curve"/>
    </contour>
    <contour>
      <point x="18" y="0" type="line"/>
      <point x="138" y="0" type="line"/>
      <point x="138" y="50" type="line"/>
      <point x="18" y="50" type="line"/>
    </contour>
    <contour>
      <point x="18" y="650" type="line"/>
      <point x="138" y="650" type="line"/>
      <point x="138" y="700" type="line"/>
      <point x="18" y="700" type="line"/>
    </contour>
    <contour>
      <point x="362" y="0" type="line"/>
      <point x="482" y="0" type="line"/>
      <point x="482" y="50" type="line"/>
      <point x="362" y="50" type="line"/>
    </contour>
    <contour>
      <point x="362" y="650" type="line"/>
      <point x="482" y="650" type="line"/>
      <point x="482" y="700" type="line"/>
      <point x="362" y="700" type="line"/>
    </contour>
  </outline>
</glyph>
<glyph name="V" format="2">
  <advance width="540"/>
  <unicode hex="0056"/>
  <outline>
    <contour>
      <point x="132.23840750857457" y="714.3096018771437" type="line"/>
      <point x="307.2384075085746" y="14.309601877143644" type="line"/>
      <point x="192.76159249142543" y="-14.309601877143644" type="line"/>
      <point x="17.761592491425425" y="685.6903981228563" type="line"/>
    </contour>
    <contour>
      <point x="482.2384075085746" y="685.6903981228563" type="line"/>
      <point x="307.2384075085746" y="-14.309601877143644" type="line"/>
      <point x="192.76159249142543" y="14.309601877143644" type="line"/>
      <point x="367.7615924914254" y="714.3096018771437" type="line"/>
    </contour>
    <contour>
      <point x="18" y="0" type="line"/>
      <point x="138" y="0" type="line"/>
      <point x="138" y="50" type="line"/>
      <point x="18" y="50" type="line"/>
    </contour>
    <contour>
      <point x="18" y="650" type="line"/>
      <point x="138" y="650" type="line"/>
      <point x="138" y="700" type="line"/>
      <point x="18" y="700" type="line"/>
    </contour>
    <contour>
      <point x="362" y="0" type="line"/>
      <point x="482" y="0" type="line"/>
      <point x="482" y="50" type="line"/>
      <point x="362" y="50" type="line"/>
    </contour>
    <contour>
      <point x="362" y="650" type="line"/>
      <point x="482" y="650" type="line"/>
      <point x="482" y="700" type="line"/>
      <point x="362" y="700" type="line"/>
    </contour>
  </outline>
</glyph>
<glyph name="W" format="2">
  <advance width="600"/>
  <unicode hex="0057"/>
  <outline>
    <contour>
      <point x="103.464050390961" y="707.9344068387733" type="line"/>
      <point x="198.464050390961" y="7.9344068387732785" type="line"/>
      <point x="81.535949609039" y="-7.9344068387732785" type="line"/>
      <point x="-13.464050390961006" y="692.0655931612267" type="line"/>
    </contour>
    <contour>
      <point x="513.464050390961" y="692.0655931612267" type="line"/>
      <point x="418.464050390961" y="-7.9344068387732785" type="line"/>
      <point x="301.535949609039" y="7.9344068387732785" type="line"/>
      <point x="396.535949609039" y="707.9344068387733" type="line"/>
    </contour>
    <contour>
      <point x="83.21546911680218" y="16.016149736286565" type="line"/>
      <point x="193.21546911680218" y="406.0161497362866" type="line"/>
      <point x="306.7845308831978" y="373.9838502637134" type="line"/>
      <point x="196.78453088319782" y="-16.016149736286565" type="line"/>
    </contour>
    <contour>
      <point x="303.2154691168022" y="-16.016149736286565" type="line"/>
      <point x="193.21546911680218" y="373.9838502637134" type="line"/>
      <point x="306.7845308831978" y="406.0161497362866" type="line"/>
      <point x="416.7845308831978" y="16.016149736286565" type="line"/>
    </contour>
    <contour>
      <point x="18" y="0" type="line"/>
      <point x="138" y="0" type="line"/>
      <point x="138" y="50" type="line"/>
      <point x="18" y="50" type="line"/>
    </contour>
    <contour>
      <point x="18" y="650" type="line"/>
      <point x="138" y="650" type="line"/>
      <point x="138" y="700" type="line"/>
      <point x="18" y="700" type="line"/>
    </contour>
    <contour>
      <point x="362" y="0" type="line"/>
      <point x="482" y="0" type="line"/>
      <point x="482" y="50" type="line"/>
      <point x="362" y="50" type="line"/>
    </contour>
    <contour>
      <point x="362" y="650" type="line"/>
      <point x="482" y="650" type="line"/>
      <point x="482" y="700" type="line"/>
      <point x="362" y="700" type="line"/>
    </contour>
  </outline>
</glyph>
<glyph name="Y" format="2">
  <advance width="540"/>
  <unicode hex="0059"/>
  <outline>
    <contour>
      <point x="122.46798033677068" y="726.9835327446249" type="line"/>
      <point x="302.46798033677067" y="376.98353274462494" type="line"/>
      <point x="197.53201966322933" y="323.01646725537506" type="line"/>
      <point x="17.53201966322932" y="673.0164672553751" type="line"/>
    </contour>
    <contour>
      <point x="482.46798033677067" y="673.0164672553751" type="line"/>
      <point x="302.46798033677067" y="323.01646725537506" type="line"/>
      <point x="197.53201966322933" y="376.98353274462494" type="line"/>
      <point x="377.53201966322933" y="726.9835327446249" type="line"/>
    </contour>
    <contour>
      <point x="218" y="0" type="line"/>
      <point x="336" y="0" type="line"/>
      <point x="336" y="350" type="line"/>
      <point x="218" y="350" type="line"/>
    </contour>
    <contour>
      <point x="18" y="0" type="line"/>
      <point x="138" y="0" type="line"/>
      <point x="138" y="50" type="line"/>
      <point x="18" y="50" type="line"/>
    </contour>
    <contour>
      <point x="18" y="650" type="line"/>
      <point x="138" y="650" type="line"/>
      <point x="138" y="700" type="line"/>
      <point x="18" y="700" type="line"/>
    </contour>
    <contour>
      <point x="362" y="0" type="line"/>
      <point x="482" y="0" type="line"/>
      <point x="482" y="50" type="line"/>
      <point x="362" y="50" type="line"/>
    </contour>
    <contour>
      <point x="362" y="650" type="line"/>
      <point x="482" y="650" type="line"/>
      <point x="482" y="700" type="line"/>
      <point x="362" y="700" type="line"/>
    </contour>
  </outline>
</glyph>
<glyph name="Z" format="2">
  <advance width="540"/>
  <unicode hex="005A"/>
  <outline>
    <contour>
      <point x="50" y="582" type="line"/>
      <point x="450" y="582" type="line"/>
      <point x="450" y="700" type="line"/>
      <point x="50" y="700" type="line"/>
    </contour>
    <contour>
      <point x="480.1766646046074" y="609.9628878734387" type="line"/>
      <point x="120.17666460460741" y="27.962887873438714" type="line"/>
      <point x="19.82333539539259" y="90.03711212656128" type="line"/>
      <point x="379.8233353953926" y="672.0371121265613" type="line"/>
    </contour>
    <contour>
      <point x="50" y="0" type="line"/>
      <point x="450" y="0" type="line"/>
      <point x="450" y="118" type="line"/>
      <point x="50" y="118" type="line"/>
    </contour>
    <contour>
      <point x="18" y="0" type="line"/>
      <point x="138" y="0" type="line"/>
      <point x="138" y="50" type="line"/>
      <point x="18" y="50" type="line"/>
    </contour>
    <contour>
      <point x="18" y="650" type="line"/>
      <point x="138" y="650" type="line"/>
      <point x="138" y="700" type="line"/>
      <point x="18" y="700" type="line"/>
    </contour>
    <contour>
      <point x="362" y="0" type="line"/>
      <point x="482" y="0" type="line"/>
      <point x="482" y="50" type="line"/>
      <point x="362" y="50" type="line"/>
    </contour>
    <contour>
      <point x="362" y="650" type="line"/>
      <point x="482" y="650" type="line"/>
      <point x="482" y="700" type="line"/>
      <point x="362" y="700" type="line"/>
    </contour>
  </outline>
</glyph>
<glyph name="uni005B" format="2">
  <advance width="310"/>
  <unicode hex="005B"/>
  <outline>
    <contour>
      <point x="150" y="80" type="line"/>
      <point x="268" y="80" type="line"/>
      <point x="268" y="620" type="line"/>
      <point x="150" y="620" type="line"/>
    </contour>
    <contour>
      <point x="150" y="620" type="line"/>
      <point x="250" y="620" type="line"/>
      <point x="250" y="738" type="line"/>
      <point x="150" y="738" type="line"/>
    </contour>
    <contour>
      <point x="150" y="80" type="line"/>
      <point x="250" y="80" type="line"/>
      <point x="250" y="198" type="line"/>
      <point x="150" y="198" type="line"/>
    </contour>
  </outline>
</glyph>
<glyph name="uni005D" format="2">
  <advance width="310"/>
  <unicode hex="005D"/>
  <outline>
    <contour>
      <point x="232" y="80" type="line"/>
      <point x="350" y="80" type="line"/>
      <point x="350" y="620" type="line"/>
      <point x="232" y="620" type="line"/>
    </contour>
    <contour>
      <point x="114" y="620" type="line"/>
      <point x="214" y="620" type="line"/>
      <point x="214" y="738" type="line"/>
      <point x="114" y="738" type="line"/>
    </contour>
    <contour>
      <point x="114" y="80" type="line"/>
      <point x="214" y="80" type="line"/>
      <point x="214" y="198" type="line"/>
      <point x="114" y="198" type="line"/>
    </contour>
  </outline>
</glyph>
<glyph name="uni0060" format="2">
  <advance width="250"/>
  <unicode hex="0060"/>
  <outline>
    <contour>
      <point x="276.9574406842976" y="543.0189152514233" type="line"/>
      <point x="236.95744068429758" y="453.0189152514233" type="line"/>
      <point x="183.04255931570242" y="476.9810847485767" type="line"/>
      <point x="223.04255931570242" y="566.9810847485767" type="line"/>
    </contour>
  </outline>
</glyph>
<glyph name="a" format="2">
  <advance width="540"/>
  <unicode hex="0061"/>
  <outline>
    <contour>
      <point x="378" y="244" type="curve"/>
      <point x="378" y="378.757479"/>
      <point x="310.8427125" y="488"/>
      <point x="228" y="488" type="curve"/>
      <point x="145.1572875" y="488"/>
      <point x="78" y="378.757479"/>
      <point x="78" y="244" type="curve"/>
      <point x="78" y="109.24252100000001"/>
      <point x="145.1572875" y="0"/>
      <point x="228" y="0" type="curve"/>
      <point x="310.8427125" y="0"/>
      <point x="378" y="109.24252100000001"/>
    </contour>
    <contour>
      <point x="260" y="244" type="curve"/>
      <point x="260" y="174.4121215"/>
      <point x="245.673112" y="118"/>
      <point x="228" y="118" type="curve"/>
      <point x="210.326888" y="118"/>
      <point x="196" y="174.4121215"/>
      <point x="196" y="244" type="curve"/>
      <point x="196" y="313.5878785"/>
      <point x="210.326888" y="370"/>
      <point x="228" y="370" type="curve"/>
      <point x="245.673112" y="370"/>
      <point x="260" y="313.5878785"/>
    </contour>
    <contour>
      <point x="362" y="0" type="curve"/>
      <point x="444" y="0" type="line"/>
      <point x="453.9411255" y="0"/>
      <point x="462" y="8.0588745"/>
      <point x="462" y="18" type="curve"/>
      <point x="462" y="537" type="line"/>
      <point x="462" y="546.9411255"/>
      <point x="453.9411255" y="555"/>
      <point x="444" y="555" type="curve"/>
      <point x="362" y="555" type="line"/>
      <point x="352.0588745" y="555"/>
      <point x="344" y="546.9411255"/>
      <point x="344" y="537" type="curve"/>
      <point x="344" y="18" type="line"/>
      <point x="344" y="8.0588745"/>
      <point x="352.0588745" y="0"/>
    </contour>
  </outline>
</glyph>
<glyph name="b" format="2">
  <advance width="540"/>
  <unicode hex="0062"/>
  <outline>
    <contour>
      <point x="78" y="0" type="curve"/>
      <point x="160" y="0" type="line"/>
      <point x="169.9411255" y="0"/>
      <point x="178" y="8.0588745"/>
      <point x="178" y="18" type="curve"/>
      <point x="178" y="742" type="line"/>
      <point x="178" y="751.9411255"/>
      <point x="169.9411255" y="760"/>
      <point x="160" y="760" type="curve"/>
      <point x="78" y="760" type="line"/>
      <point x="68.0588745" y="760"/>
      <point x="60" y="751.9411255"/>
      <point x="60" y="742" type="curve"/>
      <point x="60" y="18" type="line"/>
      <point x="60" y="8.0588745"/>
      <point x="68.0588745" y="0"/>
    </contour>
    <contour>
      <point x="430" y="278" type="curve"/>
      <point x="430" y="431.53516049999996"/>
      <point x="349.411255" y="556"/>
      <point x="250" y="556" type="curve"/>
      <point x="150.58874500000002" y="556"/>
      <point x="70" y="431.53516049999996"/>
      <point x="70" y="278" type="curve"/>
      <point x="70" y="124.46483950000001"/>
      <point x="150.58874500000002" y="0"/>
      <point x="250" y="0" type="curve"/>
      <point x="349.411255" y="0"/>
      <point x="430" y="124.46483950000001"/>
    </contour>
    <contour>
      <point x="312" y="278" type="curve"/>
      <point x="312" y="189.63443999999998"/>
      <point x="284.2416545" y="118"/>
      <point x="250" y="118" type="curve"/>
      <point x="215.7583455" y="118"/>
      <point x="188" y="189.63443999999998"/>
      <point x="188" y="278" type="curve"/>
      <point x="188" y="366.36556"/>
      <point x="215.7583455" y="438"/>
      <point x="250" y="438" type="curve"/>
      <point x="284.2416545" y="438"/>
      <point x="312" y="366.36556"/>
    </contour>
    <contour>
      <point x="38" y="0" type="line"/>
      <point x="138" y="0" type="line"/>
      <point x="138" y="50" type="line"/>
      <point x="38" y="50" type="line"/>
    </contour>
    <contour>
      <point x="38" y="710" type="line"/>
      <point x="138" y="710" type="line"/>
      <point x="138" y="760" type="line"/>
      <point x="38" y="760" type="line"/>
    </contour>
    <contour>
      <point x="362" y="0" type="line"/>
      <point x="462" y="0" type="line"/>
      <point x="462" y="50" type="line"/>
      <point x="362" y="50" type="line"/>
    </contour>
  </outline>
</glyph>
<glyph name="c" format="2">
  <advance width="540"/>
  <unicode hex="0063"/>
  <outline>
    <contour>
      <point x="386.35" y="467.04" type="line"/>
      <point x="343.8" y="556"/>
      <point x="177.3" y="556"/>
      <point x="70" y="397.53999999999996" type="curve"/>
      <point x="70" y="158.46"/>
      <point x="177.3" y="0"/>
      <point x="343.8" y="0" type="curve"/>
      <point x="390.04999999999995" y="69.5"/>
      <point x="386.35" y="116.76000000000002"/>
      <point x="386.35" y="139.0" type="curve"/>
      <point x="302.57" y="169.57999999999998" type="line"/>
      <point x="325.3" y="118"/>
      <point x="188" y="189.04"/>
      <point x="188" y="278" type="curve"/>
      <point x="188" y="366.96000000000004"/>
      <point x="325.3" y="438"/>
      <point x="302.57" y="386.42" type="curve"/>
    </contour>
  </outline>
</glyph>
<glyph name="e" format="2">
  <advance width="540"/>
  <unicode hex="0065"/>
  <outline>
    <contour>
      <point x="388.6" y="467.04" type="line"/>
      <point x="336.4" y="556"/>
      <point x="174.4" y="556"/>
      <point x="70" y="397.53999999999996" type="curve"/>
      <point x="70" y="158.46"/>
      <point x="174.4" y="0"/>
      <point x="336.4" y="0" type="curve"/>
      <point x="381.4" y="69.5"/>
      <point x="388.6" y="116.76000000000002"/>
      <point x="388.6" y="139.0" type="curve"/>
      <point x="297.74" y="169.57999999999998" type="line"/>
      <point x="318.4" y="118"/>
      <point x="188" y="189.04"/>
      <point x="188" y="278" type="curve"/>
      <point x="188" y="366.96000000000004"/>
      <point x="318.4" y="438"/>
      <point x="297.74" y="386.42" type="curve"/>
    </contour>
    <contour>
      <point x="108" y="246" type="curve"/>
      <point x="386" y="246" type="line"/>
      <point x="394.836556" y="246"/>
      <point x="402" y="253.163444"/>
      <point x="402" y="262" type="curve"/>
      <point x="402" y="348" type="line"/>
      <point x="402" y="356.836556"/>
      <point x="394.836556" y="364"/>
      <point x="386" y="364" type="curve"/>
      <point x="108" y="364" type="line"/>
      <point x="99.163444" y="364"/>
      <point x="92" y="356.836556"/>
      <point x="92" y="348" type="curve"/>
      <point x="92" y="262" type="line"/>
      <point x="92" y="253.163444"/>
      <point x="99.163444" y="246"/>
    </contour>
  </outline>
</glyph>
<glyph name="f" format="2">
  <advance width="540"/>
  <unicode hex="0066"/>
  <outline>
    <contour>
      <point x="233" y="0" type="curve"/>
      <point x="315" y="0" type="line"/>
      <point x="324.9411255" y="0"/>
      <point x="333" y="8.0588745"/>
      <point x="333" y="18" type="curve"/>
      <point x="333" y="742" type="line"/>
      <point x="333" y="751.9411255"/>
      <point x="324.9411255" y="760"/>
      <point x="315" y="760" type="curve"/>
      <point x="233" y="760" type="line"/>
      <point x="223.0588745" y="760"/>
      <point x="215" y="751.9411255"/>
      <point x="215" y="742" type="curve"/>
      <point x="215" y="18" type="line"/>
      <point x="215" y="8.0588745"/>
      <point x="223.0588745" y="0"/>
    </contour>
    <contour>
      <point x="215" y="500" type="line"/>
      <point x="215" y="670"/>
      <point x="294" y="770"/>
      <point x="398" y="734" type="curve"/>
      <point x="398" y="670" type="line"/>
      <point x="325" y="687"/>
      <point x="279" y="632"/>
      <point x="279" y="500" type="curve"/>
    </contour>
    <contour>
      <point x="121" y="350" type="curve"/>
      <point x="379" y="350" type="line"/>
      <point x="387.836556" y="350"/>
      <point x="395" y="357.163444"/>
      <point x="395" y="366" type="curve"/>
      <point x="395" y="452" type="line"/>
      <point x="395" y="460.836556"/>
      <point x="387.836556" y="468"/>
      <point x="379" y="468" type="curve"/>
      <point x="121" y="468" type="line"/>
      <point x="112.163444" y="468"/>
      <point x="105" y="460.836556"/>
      <point x="105" y="452" type="curve"/>
      <point x="105" y="366" type="line"/>
      <point x="105" y="357.163444"/>
      <point x="112.163444" y="350"/>
    </contour>
    <contour>
      <point x="38" y="0" type="line"/>
      <point x="138" y="0" type="line"/>
      <point x="138" y="50" type="line"/>
      <point x="38" y="50" type="line"/>
    </contour>
    <contour>
      <point x="38" y="710" type="line"/>
      <point x="138" y="710" type="line"/>
      <point x="138" y="760" type="line"/>
      <point x="38" y="760" type="line"/>
    </contour>
    <contour>
      <point x="362" y="0" type="line"/>
      <point x="462" y="0" type="line"/>
      <point x="462" y="50" type="line"/>
      <point x="362" y="50" type="line"/>
    </contour>
  </outline>
</glyph>
<glyph name="g" format="2">
  <advance width="540"/>
  <unicode hex="0067"/>
  <outline>
    <contour>
      <point x="378" y="260" type="curve"/>
      <point x="378" y="392.54834"/>
      <point x="310.8427125" y="500"/>
      <point x="228" y="500" type="curve"/>
      <point x="145.1572875" y="500"/>
      <point x="78" y="392.54834"/>
      <point x="78" y="260" type="curve"/>
      <point x="78" y="127.45166"/>
      <point x="145.1572875" y="20"/>
      <point x="228" y="20" type="curve"/>
      <point x="310.8427125" y="20"/>
      <point x="378" y="127.45166"/>
    </contour>
    <contour>
      <point x="260" y="260" type="curve"/>
      <point x="260" y="192.6212605"/>
      <point x="245.673112" y="138"/>
      <point x="228" y="138" type="curve"/>
      <point x="210.326888" y="138"/>
      <point x="196" y="192.6212605"/>
      <point x="196" y="260" type="curve"/>
      <point x="196" y="327.3787395"/>
      <point x="210.326888" y="382"/>
      <point x="228" y="382" type="curve"/>
      <point x="245.673112" y="382"/>
      <point x="260" y="327.3787395"/>
    </contour>
    <contour>
      <point x="362" y="-210" type="curve"/>
      <point x="444" y="-210" type="line"/>
      <point x="453.9411255" y="-210"/>
      <point x="462" y="-201.9411255"/>
      <point x="462" y="-192" type="curve"/>
      <point x="462" y="537" type="line"/>
      <point x="462" y="546.9411255"/>
      <point x="453.9411255" y="555"/>
      <point x="444" y="555" type="curve"/>
      <point x="362" y="555" type="line"/>
      <point x="352.0588745" y="555"/>
      <point x="344" y="546.9411255"/>
      <point x="344" y="537" type="curve"/>
      <point x="344" y="-192" type="line"/>
      <point x="344" y="-201.9411255"/>
      <point x="352.0588745" y="-210"/>
    </contour>
    <contour>
      <point x="408" y="0" type="line"/>
      <point x="408" y="-210"/>
      <point x="324" y="-210"/>
      <point x="230" y="-210" type="curve"/>
      <point x="173" y="-210"/>
      <point x="139" y="-185"/>
      <point x="128" y="-146" type="curve"/>
      <point x="192" y="-146" type="line"/>
      <point x="205" y="-175"/>
      <point x="221" y="-180"/>
      <point x="245" y="-180" type="curve"/>
      <point x="305" y="-180"/>
      <point x="344" y="-138"/>
      <point x="344" y="0" type="curve"/>
    </contour>
    <contour>
      <point x="38" y="0" type="line"/>
      <point x="138" y="0" type="line"/>
      <point x="138" y="50" type="line"/>
      <point x="38" y="50" type="line"/>
    </contour>
    <contour>
      <point x="362" y="-210" type="line"/>
      <point x="462" y="-210" type="line"/>
      <point x="462" y="-160" type="line"/>
      <point x="362" y="-160" type="line"/>
    </contour>
  </outline>
</glyph>
<glyph name="h" format="2">
  <advance width="540"/>
  <unicode hex="0068"/>
  <outline>
    <contour>
      <point x="78" y="0" type="curve"/>
      <point x="160" y="0" type="line"/>
      <point x="169.9411255" y="0"/>
      <point x="178" y="8.0588745"/>
      <point x="178" y="18" type="curve"/>
      <point x="178" y="742" type="line"/>
      <point x="178" y="751.9411255"/>
      <point x="169.9411255" y="760"/>
      <point x="160" y="760" type="curve"/>
      <point x="78" y="760" type="line"/>
      <point x="68.0588745" y="760"/>
      <point x="60" y="751.9411255"/>
      <point x="60" y="742" type="curve"/>
      <point x="60" y="18" type="line"/>
      <point x="60" y="8.0588745"/>
      <point x="68.0588745" y="0"/>
    </contour>
    <contour>
      <point x="124" y="0" type="line"/>
      <point x="124" y="555" type="line"/>
      <point x="198.8" y="565"/>
      <point x="344" y="460.65"/>
      <point x="344" y="349.65" type="curve"/>
      <point x="344" y="0" type="line"/>
      <point x="226" y="0" type="line"/>
      <point x="226" y="349.65" type="line"/>
      <point x="226" y="490.1"/>
      <point x="316.8" y="437"/>
      <point x="242" y="437" type="curve"/>
      <point x="242" y="0" type="line"/>
    </contour>
    <contour>
      <point x="38" y="0" type="line"/>
      <point x="138" y="0" type="line"/>
      <point x="138" y="50" type="line"/>
      <point x="38" y="50" type="line"/>
    </contour>
    <contour>
      <point x="38" y="710" type="line"/>
      <point x="138" y="710" type="line"/>
      <point x="138" y="760" type="line"/>
      <point x="38" y="760" type="line"/>
    </contour>
    <contour>
      <point x="362" y="0" type="line"/>
      <point x="462" y="0" type="line"/>
      <point x="462" y="50" type="line"/>
      <point x="362" y="50" type="line"/>
    </contour>
  </outline>
</glyph>
<glyph name="i" format="2">
  <advance width="290"/>
  <unicode hex="0069"/>
  <outline>
    <contour>
      <point x="236" y="0" type="curve"/>
      <point x="318" y="0" type="line"/>
      <point x="327.9411255" y="0"/>
      <point x="336" y="8.0588745"/>
      <point x="336" y="18" type="curve"/>
      <point x="336" y="437" type="line"/>
      <point x="336" y="446.9411255"/>
      <point x="327.9411255" y="455"/>
      <point x="318" y="455" type="curve"/>
      <point x="236" y="455" type="line"/>
      <point x="226.0588745" y="455"/>
      <point x="218" y="446.9411255"/>
      <point x="218" y="437" type="curve"/>
      <point x="218" y="18" type="line"/>
      <point x="218" y="8.0588745"/>
      <point x="226.0588745" y="0"/>
    </contour>
    <contour>
      <point x="314.9" y="525" type="curve"/>
      <point x="314.9" y="560.843280275"/>
      <point x="285.843280275" y="589.9"/>
      <point x="250" y="589.9" type="curve"/>
      <point x="214.156719725" y="589.9"/>
      <point x="185.1" y="560.843280275"/>
      <point x="185.1" y="525" type="curve"/>
      <point x="185.1" y="489.156719725"/>
      <point x="214.156719725" y="460.1"/>
      <point x="250" y="460.1" type="curve"/>
      <point x="285.843280275" y="460.1"/>
      <point x="314.9" y="489.156719725"/>
    </contour>
    <contour>
      <point x="38" y="0" type="line"/>
      <point x="138" y="0" type="line"/>
      <point x="138" y="50" type="line"/>
      <point x="38" y="50" type="line"/>
    </contour>
    <contour>
      <point x="362" y="0" type="line"/>
      <point x="462" y="0" type="line"/>
      <point x="462" y="50" type="line"/>
      <point x="362" y="50" type="line"/>
    </contour>
  </outline>
</glyph>
<glyph name="j" format="2">
  <advance width="540"/>
  <unicode hex="006A"/>
  <outline>
    <contour>
      <point x="236" y="-190" type="curve"/>
      <point x="318" y="-190" type="line"/>
      <point x="327.9411255" y="-190"/>
      <point x="336" y="-181.9411255"/>
      <point x="336" y="-172" type="curve"/>
      <point x="336" y="437" type="line"/>
      <point x="336" y="446.9411255"/>
      <point x="327.9411255" y="455"/>
      <point x="318" y="455" type="curve"/>
      <point x="236" y="455" type="line"/>
      <point x="226.0588745" y="455"/>
      <point x="218" y="446.9411255"/>
      <point x="218" y="437" type="curve"/>
      <point x="218" y="-172" type="line"/>
      <point x="218" y="-181.9411255"/>
      <point x="226.0588745" y="-190"/>
    </contour>
    <contour>
      <point x="314.9" y="525" type="curve"/>
      <point x="314.9" y="560.843280275"/>
      <point x="285.843280275" y="589.9"/>
      <point x="250" y="589.9" type="curve"/>
      <point x="214.156719725" y="589.9"/>
      <point x="185.1" y="560.843280275"/>
      <point x="185.1" y="525" type="curve"/>
      <point x="185.1" y="489.156719725"/>
      <point x="214.156719725" y="460.1"/>
      <point x="250" y="460.1" type="curve"/>
      <point x="285.843280275" y="460.1"/>
      <point x="314.9" y="489.156719725"/>
    </contour>
    <contour>
      <point x="282" y="-190" type="line"/>
      <point x="282" y="-210"/>
      <point x="247" y="-210"/>
      <point x="201" y="-210" type="curve"/>
      <point x="177" y="-210" type="line"/>
      <point x="177" y="-185" type="line"/>
      <point x="201" y="-185" type="line"/>
      <point x="212" y="-185"/>
      <point x="218" y="-188"/>
      <point x="218" y="-190" type="curve"/>
    </contour>
    <contour>
      <point x="38" y="0" type="line"/>
      <point x="138" y="0" type="line"/>
      <point x="138" y="50" type="line"/>
      <point x="38" y="50" type="line"/>
    </contour>
    <contour>
      <point x="362" y="-210" type="line"/>
      <point x="462" y="-210" type="line"/>
      <point x="462" y="-160" type="line"/>
      <point x="362" y="-160" type="line"/>
    </contour>
  </outline>
</glyph>
<glyph name="k" format="2">
  <advance width="540"/>
  <unicode hex="006B"/>
  <outline>
    <contour>
      <point x="78" y="0" type="curve"/>
      <point x="160" y="0" type="line"/>
      <point x="169.9411255" y="0"/>
      <point x="178" y="8.0588745"/>
      <point x="178" y="18" type="curve"/>
      <point x="178" y="742" type="line"/>
      <point x="178" y="751.9411255"/>
      <point x="169.9411255" y="760"/>
      <point x="160" y="760" type="curve"/>
      <point x="78" y="760" type="line"/>
      <point x="68.0588745" y="760"/>
      <point x="60" y="751.9411255"/>
      <point x="60" y="742" type="curve"/>
      <point x="60" y="18" type="line"/>
      <point x="60" y="8.0588745"/>
      <point x="68.0588745" y="0"/>
    </contour>
    <contour>
      <point x="79.88528123217823" y="317.1776924797262" type="line"/>
      <point x="325.8852812321782" y="594.1776924797261" type="line"/>
      <point x="414.1147187678218" y="515.8223075202739" type="line"/>
      <point x="168.11471876782178" y="238.8223075202738" type="line"/>
    </contour>
    <contour>
      <point x="167.40125553408913" y="317.9666238011756" type="line"/>
      <point x="423.40125553408916" y="39.966623801175615" type="line"/>
      <point x="336.59874446591084" y="-39.966623801175615" type="line"/>
      <point x="80.59874446591087" y="238.03337619882439" type="line"/>
    </contour>
    <contour>
      <point x="38" y="0" type="line"/>
      <point x="138" y="0" type="line"/>
      <point x="138" y="50" type="line"/>
      <point x="38" y="50" type="line"/>
    </contour>
    <contour>
      <point x="38" y="710" type="line"/>
      <point x="138" y="710" type="line"/>
      <point x="138" y="760" type="line"/>
      <point x="38" y="760" type="line"/>
    </contour>
    <contour>
      <point x="362" y="0" type="line"/>
      <point x="462" y="0" type="line"/>
      <point x="462" y="50" type="line"/>
      <point x="362" y="50" type="line"/>
    </contour>
  </outline>
</glyph>
<glyph name="l" format="2">
  <advance width="290"/>
  <unicode hex="006C"/>
  <outline>
    <contour>
      <point x="236" y="0" type="curve"/>
      <point x="318" y="0" type="line"/>
      <point x="327.9411255" y="0"/>
      <point x="336" y="8.0588745"/>
      <point x="336" y="18" type="curve"/>
      <point x="336" y="742" type="line"/>
      <point x="336" y="751.9411255"/>
      <point x="327.9411255" y="760"/>
      <point x="318" y="760" type="curve"/>
      <point x="236" y="760" type="line"/>
      <point x="226.0588745" y="760"/>
      <point x="218" y="751.9411255"/>
      <point x="218" y="742" type="curve"/>
      <point x="218" y="18" type="line"/>
      <point x="218" y="8.0588745"/>
      <point x="226.0588745" y="0"/>
    </contour>
    <contour>
      <point x="38" y="0" type="line"/>
      <point x="138" y="0" type="line"/>
      <point x="138" y="50" type="line"/>
      <point x="38" y="50" type="line"/>
    </contour>
    <contour>
      <point x="38" y="710" type="line"/>
      <point x="138" y="710" type="line"/>
      <point x="138" y="760" type="line"/>
      <point x="38" y="760" type="line"/>
    </contour>
    <contour>
      <point x="362" y="0" type="line"/>
      <point x="462" y="0" type="line"/>
      <point x="462" y="50" type="line"/>
      <point x="362" y="50" type="line"/>
    </contour>
  </outline>
</glyph>
<glyph name="m" format="2">
  <advance width="600"/>
  <unicode hex="006D"/>
  <outline>
    <contour>
      <point x="58" y="0" type="curve"/>
      <point x="140" y="0" type="line"/>
      <point x="149.9411255" y="0"/>
      <point x="158" y="8.0588745"/>
      <point x="158" y="18" type="curve"/>
      <point x="158" y="537" type="line"/>
      <point x="158" y="546.9411255"/>
      <point x="149.9411255" y="555"/>
      <point x="140" y="555" type="curve"/>
      <point x="58" y="555" type="line"/>
      <point x="48.0588745" y="555"/>
      <point x="40" y="546.9411255"/>
      <point x="40" y="537" type="curve"/>
      <point x="40" y="18" type="line"/>
      <point x="40" y="8.0588745"/>
      <point x="48.0588745" y="0"/>
    </contour>
    <contour>
      <point x="104" y="0" type="line"/>
      <point x="104" y="555" type="line"/>
      <point x="153.64" y="565"/>
      <point x="250" y="460.65"/>
      <point x="250" y="349.65" type="curve"/>
      <point x="250" y="0" type="line"/>
      <point x="132" y="0" type="line"/>
      <point x="132" y="349.65" type="line"/>
      <point x="132" y="490.1"/>
      <point x="271.64" y="437"/>
      <point x="222" y="437" type="curve"/>
      <point x="222" y="0" type="line"/>
    </contour>
    <contour>
      <point x="239" y="0" type="line"/>
      <point x="239" y="555" type="line"/>
      <point x="284.9" y="565"/>
      <point x="374" y="460.65"/>
      <point x="374" y="349.65" type="curve"/>
      <point x="374" y="0" type="line"/>
      <point x="256" y="0" type="line"/>
      <point x="256" y="349.65" type="line"/>
      <point x="256" y="490.1"/>
      <point x="402.9" y="437"/>
      <point x="357" y="437" type="curve"/>
      <point x="357" y="0" type="line"/>
    </contour>
    <contour>
      <point x="38" y="0" type="line"/>
      <point x="138" y="0" type="line"/>
      <point x="138" y="50" type="line"/>
      <point x="38" y="50" type="line"/>
    </contour>
    <contour>
      <point x="362" y="0" type="line"/>
      <point x="462" y="0" type="line"/>
      <point x="462" y="50" type="line"/>
      <point x="362" y="50" type="line"/>
    </contour>
  </outline>
</glyph>
<glyph name="o" format="2">
  <advance width="540"/>
  <unicode hex="006F"/>
  <outline>
    <contour>
      <point x="430" y="278" type="curve"/>
      <point x="430" y="431.53516049999996"/>
      <point x="349.411255" y="556"/>
      <point x="250" y="556" type="curve"/>
      <point x="150.58874500000002" y="556"/>
      <point x="70" y="431.53516049999996"/>
      <point x="70" y="278" type="curve"/>
      <point x="70" y="124.46483950000001"/>
      <point x="150.58874500000002" y="0"/>
      <point x="250" y="0" type="curve"/>
      <point x="349.411255" y="0"/>
      <point x="430" y="124.46483950000001"/>
    </contour>
    <contour>
      <point x="312" y="278" type="curve"/>
      <point x="312" y="189.63443999999998"/>
      <point x="284.2416545" y="118"/>
      <point x="250" y="118" type="curve"/>
      <point x="215.7583455" y="118"/>
      <point x="188" y="189.63443999999998"/>
      <point x="188" y="278" type="curve"/>
      <point x="188" y="366.36556"/>
      <point x="215.7583455" y="438"/>
      <point x="250" y="438" type="curve"/>
      <point x="284.2416545" y="438"/>
      <point x="312" y="366.36556"/>
    </contour>
  </outline>
</glyph>
<glyph name="p" format="2">
  <advance width="540"/>
  <unicode hex="0070"/>
  <outline>
    <contour>
      <point x="78" y="-210" type="curve"/>
      <point x="160" y="-210" type="line"/>
      <point x="169.9411255" y="-210"/>
      <point x="178" y="-201.9411255"/>
      <point x="178" y="-192" type="curve"/>
      <point x="178" y="537" type="line"/>
      <point x="178" y="546.9411255"/>
      <point x="169.9411255" y="555"/>
      <point x="160" y="555" type="curve"/>
      <point x="78" y="555" type="line"/>
      <point x="68.0588745" y="555"/>
      <point x="60" y="546.9411255"/>
      <point x="60" y="537" type="curve"/>
      <point x="60" y="-192" type="line"/>
      <point x="60" y="-201.9411255"/>
      <point x="68.0588745" y="-210"/>
    </contour>
    <contour>
      <point x="430" y="278" type="curve"/>
      <point x="430" y="431.53516049999996"/>
      <point x="349.411255" y="556"/>
      <point x="250" y="556" type="curve"/>
      <point x="150.58874500000002" y="556"/>
      <point x="70" y="431.53516049999996"/>
      <point x="70" y="278" type="curve"/>
      <point x="70" y="124.46483950000001"/>
      <point x="150.58874500000002" y="0"/>
      <point x="250" y="0" type="curve"/>
      <point x="349.411255" y="0"/>
      <point x="430" y="124.46483950000001"/>
    </contour>
    <contour>
      <point x="312" y="278" type="curve"/>
      <point x="312" y="189.63443999999998"/>
      <point x="284.2416545" y="118"/>
      <point x="250" y="118" type="curve"/>
      <point x="215.7583455" y="118"/>
      <point x="188" y="189.63443999999998"/>
      <point x="188" y="278" type="curve"/>
      <point x="188" y="366.36556"/>
      <point x="215.7583455" y="438"/>
      <point x="250" y="438" type="curve"/>
      <point x="284.2416545" y="438"/>
      <point x="312" y="366.36556"/>
    </contour>
    <contour>
      <point x="38" y="0" type="line"/>
      <point x="138" y="0" type="line"/>
      <point x="138" y="50" type="line"/>
      <point x="38" y="50" type="line"/>
    </contour>
    <contour>
      <point x="362" y="-210" type="line"/>
      <point x="462" y="-210" type="line"/>
      <point x="462" y="-160" type="line"/>
      <point x="362" y="-160" type="line"/>
    </contour>
  </outline>
</glyph>
<glyph name="q" format="2">
  <advance width="540"/>
  <unicode hex="0071"/>
  <outline>
    <contour>
      <point x="276" y="-210" type="curve"/>
      <point x="358" y="-210" type="line"/>
      <point x="367.9411255" y="-210"/>
      <point x="376" y="-201.9411255"/>
      <point x="376" y="-192" type="curve"/>
      <point x="376" y="537" type="line"/>
      <point x="376" y="546.9411255"/>
      <point x="367.9411255" y="555"/>
      <point x="358" y="555" type="curve"/>
      <point x="276" y="555" type="line"/>
      <point x="266.0588745" y="555"/>
      <point x="258" y="546.9411255"/>
      <point x="258" y="537" type="curve"/>
      <point x="258" y="-192" type="line"/>
      <point x="258" y="-201.9411255"/>
      <point x="266.0588745" y="-210"/>
    </contour>
    <contour>
      <point x="430" y="278" type="curve"/>
      <point x="430" y="431.53516049999996"/>
      <point x="349.411255" y="556"/>
      <point x="250" y="556" type="curve"/>
      <point x="150.58874500000002" y="556"/>
      <point x="70" y="431.53516049999996"/>
      <point x="70" y="278" type="curve"/>
      <point x="70" y="124.46483950000001"/>
      <point x="150.58874500000002" y="0"/>
      <point x="250" y="0" type="curve"/>
      <point x="349.411255" y="0"/>
      <point x="430" y="124.46483950000001"/>
    </contour>
    <contour>
      <point x="312" y="278" type="curve"/>
      <point x="312" y="189.63443999999998"/>
      <point x="284.2416545" y="118"/>
      <point x="250" y="118" type="curve"/>
      <point x="215.7583455" y="118"/>
      <point x="188" y="189.63443999999998"/>
      <point x="188" y="278" type="curve"/>
      <point x="188" y="366.36556"/>
      <point x="215.7583455" y="438"/>
      <point x="250" y="438" type="curve"/>
      <point x="284.2416545" y="438"/>
      <point x="312" y="366.36556"/>
    </contour>
    <contour>
      <point x="38" y="0" type="line"/>
      <point x="138" y="0" type="line"/>
      <point x="138" y="50" type="line"/>
      <point x="38" y="50" type="line"/>
    </contour>
    <contour>
      <point x="362" y="-210" type="line"/>
      <point x="462" y="-210" type="line"/>
      <point x="462" y="-160" type="line"/>
      <point x="362" y="-160" type="line"/>
    </contour>
  </outline>
</glyph>
<glyph name="t" format="2">
  <advance width="540"/>
  <unicode hex="0074"/>
  <outline>
    <contour>
      <point x="233" y="0" type="curve"/>
      <point x="315" y="0" type="line"/>
      <point x="324.9411255" y="0"/>
      <point x="333" y="8.0588745"/>
      <point x="333" y="18" type="curve"/>
      <point x="333" y="742" type="line"/>
      <point x="333" y="751.9411255"/>
      <point x="324.9411255" y="760"/>
      <point x="315" y="760" type="curve"/>
      <point x="233" y="760" type="line"/>
      <point x="223.0588745" y="760"/>
      <point x="215" y="751.9411255"/>
      <point x="215" y="742" type="curve"/>
      <point x="215" y="18" type="line"/>
      <point x="215" y="8.0588745"/>
      <point x="223.0588745" y="0"/>
    </contour>
    <contour>
      <point x="121" y="360" type="curve"/>
      <point x="359" y="360" type="line"/>
      <point x="367.836556" y="360"/>
      <point x="375" y="367.163444"/>
      <point x="375" y="376" type="curve"/>
      <point x="375" y="462" type="line"/>
      <point x="375" y="470.836556"/>
      <point x="367.836556" y="478"/>
      <point x="359" y="478" type="curve"/>
      <point x="121" y="478" type="line"/>
      <point x="112.163444" y="478"/>
      <point x="105" y="470.836556"/>
      <point x="105" y="462" type="curve"/>
      <point x="105" y="376" type="line"/>
      <point x="105" y="367.163444"/>
      <point x="112.163444" y="360"/>
    </contour>
    <contour>
      <point x="38" y="0" type="line"/>
      <point x="138" y="0" type="line"/>
      <point x="138" y="50" type="line"/>
      <point x="38" y="50" type="line"/>
    </contour>
    <contour>
      <point x="38" y="710" type="line"/>
      <point x="138" y="710" type="line"/>
      <point x="138" y="760" type="line"/>
      <point x="38" y="760" type="line"/>
    </contour>
    <contour>
      <point x="362" y="0" type="line"/>
      <point x="462" y="0" type="line"/>
      <point x="462" y="50" type="line"/>
      <point x="362" y="50" type="line"/>
    </contour>
  </outline>
</glyph>
<glyph name="u" format="2">
  <advance width="540"/>
  <unicode hex="0075"/>
  <outline>
    <contour>
      <point x="78" y="190" type="curve"/>
      <point x="160" y="190" type="line"/>
      <point x="169.9411255" y="190"/>
      <point x="178" y="198.0588745"/>
      <point x="178" y="208" type="curve"/>
      <point x="178" y="537" type="line"/>
      <point x="178" y="546.9411255"/>
      <point x="169.9411255" y="555"/>
      <point x="160" y="555" type="curve"/>
      <point x="78" y="555" type="line"/>
      <point x="68.0588745" y="555"/>
      <point x="60" y="546.9411255"/>
      <point x="60" y="537" type="curve"/>
      <point x="60" y="208" type="line"/>
      <point x="60" y="198.0588745"/>
      <point x="68.0588745" y="190"/>
    </contour>
    <contour>
      <point x="244" y="0" type="curve"/>
      <point x="326" y="0" type="line"/>
      <point x="335.9411255" y="0"/>
      <point x="344" y="8.0588745"/>
      <point x="344" y="18" type="curve"/>
      <point x="344" y="537" type="line"/>
      <point x="344" y="546.9411255"/>
      <point x="335.9411255" y="555"/>
      <point x="326" y="555" type="curve"/>
      <point x="244" y="555" type="line"/>
      <point x="234.0588745" y="555"/>
      <point x="226" y="546.9411255"/>
      <point x="226" y="537" type="curve"/>
      <point x="226" y="18" type="line"/>
      <point x="226" y="8.0588745"/>
      <point x="234.0588745" y="0"/>
    </contour>
    <contour>
      <point x="60" y="190" type="line"/>
      <point x="60" y="67"/>
      <point x="125" y="-4"/>
      <point x="234" y="-4" type="curve"/>
      <point x="320" y="-4"/>
      <point x="344" y="67"/>
      <point x="344" y="190" type="curve"/>
      <point x="280" y="190" type="line"/>
      <point x="280" y="91"/>
      <point x="263" y="54"/>
      <point x="234" y="54" type="curve"/>
      <point x="201" y="54"/>
      <point x="124" y="91"/>
      <point x="124" y="190" type="curve"/>
    </contour>
    <contour>
      <point x="38" y="0" type="line"/>
      <point x="138" y="0" type="line"/>
      <point x="138" y="50" type="line"/>
      <point x="38" y="50" type="line"/>
    </contour>
    <contour>
      <point x="362" y="0" type="line"/>
      <point x="462" y="0" type="line"/>
      <point x="462" y="50" type="line"/>
      <point x="362" y="50" type="line"/>
    </contour>
  </outline>
</glyph>
<glyph name="v" format="2">
  <advance width="540"/>
  <unicode hex="0076"/>
  <outline>
    <contour>
      <point x="131.26903339579604" y="572.7424880076834" type="line"/>
      <point x="306.26903339579604" y="17.742488007683434" type="line"/>
      <point x="193.73096660420396" y="-17.742488007683434" type="line"/>
      <point x="18.730966604203964" y="537.2575119923166" type="line"/>
    </contour>
    <contour>
      <point x="481.26903339579604" y="537.2575119923166" type="line"/>
      <point x="306.26903339579604" y="-17.742488007683434" type="line"/>
      <point x="193.73096660420396" y="17.742488007683434" type="line"/>
      <point x="368.73096660420396" y="572.7424880076834" type="line"/>
    </contour>
  </outline>
</glyph>
<glyph name="w" format="2">
  <advance width="600"/>
  <unicode hex="0077"/>
  <outline>
    <contour>
      <point x="103.3199908459867" y="563.9318904899259" type="line"/>
      <point x="188.3199908459867" y="8.93189048992589" type="line"/>
      <point x="71.6800091540133" y="-8.93189048992589" type="line"/>
      <point x="-13.319990845986688" y="546.0681095100741" type="line"/>
    </contour>
    <contour>
      <point x="513.3199908459867" y="546.0681095100741" type="line"/>
      <point x="428.3199908459867" y="-8.93189048992589" type="line"/>
      <point x="311.6800091540133" y="8.93189048992589" type="line"/>
      <point x="396.6800091540133" y="563.9318904899259" type="line"/>
    </contour>
    <contour>
      <point x="75.2198752377697" y="21.91204990489212" type="line"/>
      <point x="195.2198752377697" y="321.9120499048921" type="line"/>
      <point x="304.7801247622303" y="278.0879500951079" type="line"/>
      <point x="184.7801247622303" y="-21.91204990489212" type="line"/>
    </contour>
    <contour>
      <point x="315.2198752377697" y="-21.91204990489212" type="line"/>
      <point x="195.2198752377697" y="278.0879500951079" type="line"/>
      <point x="304.7801247622303" y="321.9120499048921" type="line"/>
      <point x="424.7801247622303" y="21.91204990489212" type="line"/>
    </contour>
  </outline>
</glyph>
<glyph name="x" format="2">
  <advance width="540"/>
  <unicode hex="0078"/>
  <outline>
    <contour>
      <point x="119.49871593463186" y="587.1072752008423" type="line"/>
      <point x="479.49871593463183" y="32.10727520084229" type="line"/>
      <point x="380.50128406536817" y="-32.10727520084229" type="line"/>
      <point x="20.50128406536814" y="522.8927247991577" type="line"/>
    </contour>
    <contour>
      <point x="479.49871593463183" y="522.8927247991577" type="line"/>
      <point x="119.49871593463186" y="-32.10727520084229" type="line"/>
      <point x="20.50128406536814" y="32.10727520084229" type="line"/>
      <point x="380.50128406536817" y="587.1072752008423" type="line"/>
    </contour>
  </outline>
</glyph>
<glyph name="y" format="2">
  <advance width="540"/>
  <unicode hex="0079"/>
  <outline>
    <contour>
      <point x="131.26903339579604" y="572.7424880076834" type="line"/>
      <point x="306.26903339579604" y="17.742488007683434" type="line"/>
      <point x="193.73096660420396" y="-17.742488007683434" type="line"/>
      <point x="18.730966604203964" y="537.2575119923166" type="line"/>
    </contour>
    <contour>
      <point x="481.26903339579604" y="537.2575119923166" type="line"/>
      <point x="306.26903339579604" y="-17.742488007683434" type="line"/>
      <point x="193.73096660420396" y="17.742488007683434" type="line"/>
      <point x="368.73096660420396" y="572.7424880076834" type="line"/>
    </contour>
    <contour>
      <point x="218" y="-210" type="line"/>
      <point x="336" y="-210" type="line"/>
      <point x="336" y="-110" type="line"/>
      <point x="218" y="-110" type="line"/>
    </contour>
    <contour>
      <point x="38" y="0" type="line"/>
      <point x="138" y="0" type="line"/>
      <point x="138" y="50" type="line"/>
      <point x="38" y="50" type="line"/>
    </contour>
    <contour>
      <point x="362" y="-210" type="line"/>
      <point x="462" y="-210" type="line"/>
      <point x="462" y="-160" type="line"/>
      <point x="362" y="-160" type="line"/>
    </contour>
  </outline>
</glyph>
<glyph name="z" format="2">
  <advance width="540"/>
  <unicode hex="007A"/>
  <outline>
    <contour>
      <point x="70" y="437" type="line"/>
      <point x="430" y="437" type="line"/>
      <point x="430" y="555" type="line"/>
      <point x="70" y="555" type="line"/>
    </contour>
    <contour>
      <point x="457.60212477395453" y="461.14260886117745" type="line"/>
      <point x="137.60212477395453" y="24.142608861177465" type="line"/>
      <point x="42.39787522604547" y="93.85739113882254" type="line"/>
      <point x="362.39787522604547" y="530.8573911388225" type="line"/>
    </contour>
    <contour>
      <point x="70" y="0" type="line"/>
      <point x="430" y="0" type="line"/>
      <point x="430" y="118" type="line"/>
      <point x="70" y="118" type="line"/>
    </contour>
  </outline>
</glyph>
<glyph name="uni007B" format="2">
  <advance width="310"/>
  <unicode hex="007B"/>
  <outline>
    <contour>
      <point x="150" y="80" type="line"/>
      <point x="268" y="80" type="line"/>
      <point x="268" y="620" type="line"/>
      <point x="150" y="620" type="line"/>
    </contour>
  </outline>
</glyph>
<glyph name="uni007C" format="2">
  <advance width="250"/>
  <unicode hex="007C"/>
  <outline>
    <contour>
      <point x="80" y="0" type="line"/>
      <point x="420" y="0" type="line"/>
      <point x="420" y="118" type="line"/>
      <point x="80" y="118" type="line"/>
    </contour>
    <contour>
      <point x="80" y="582" type="line"/>
      <point x="420" y="582" type="line"/>
      <point x="420" y="700" type="line"/>
      <point x="80" y="700" type="line"/>
    </contour>
    <contour>
      <point x="80" y="0" type="line"/>
      <point x="198" y="0" type="line"/>
      <point x="198" y="700" type="line"/>
      <point x="80" y="700" type="line"/>
    </contour>
    <contour>
      <point x="302" y="0" type="line"/>
      <point x="420" y="0" type="line"/>
      <point x="420" y="700" type="line"/>
      <point x="302" y="700" type="line"/>
    </contour>
  </outline>
</glyph>
<glyph name="uni00A1" format="2">
  <advance width="500"/>
  <unicode hex="00A1"/>
  <outline>
    <contour>
      <point x="191.0" y="0" type="line"/>
      <point x="309.0" y="0" type="line"/>
      <point x="309.0" y="425" type="line"/>
      <point x="191.0" y="425" type="line"/>
    </contour>
    <contour>
      <point x="309.0" y="520" type="curve" smooth="yes"/>
      <point x="309.0" y="552.58480025"/>
      <point x="282.58480025" y="579.0"/>
      <point x="250.0" y="579.0" type="curve" smooth="yes"/>
      <point x="217.41519975" y="579.0"/>
      <point x="191.0" y="552.58480025"/>
      <point x="191.0" y="520" type="curve" smooth="yes"/>
      <point x="191.0" y="487.41519975"/>
      <point x="217.41519975" y="461.0"/>
      <point x="250.0" y="461.0" type="curve" smooth="yes"/>
      <point x="282.58480025" y="461.0"/>
      <point x="309.0" y="487.41519975"/>
    </contour>
  </outline>
</glyph>
<glyph name="uni00B1" format="2">
  <advance width="500"/>
  <unicode hex="00B1"/>
  <outline>
    <contour>
      <point x="100.0" y="410" type="line"/>
      <point x="400.0" y="410" type="line"/>
      <point x="400.0" y="528" type="line"/>
      <point x="100.0" y="528" type="line"/>
    </contour>
    <contour>
      <point x="191.0" y="270" type="line"/>
      <point x="309.0" y="270" type="line"/>
      <point x="309.0" y="550" type="line"/>
      <point x="191.0" y="550" type="line"/>
    </contour>
    <contour>
      <point x="100.0" y="120" type="line"/>
      <point x="400.0" y="120" type="line"/>
      <point x="400.0" y="238" type="line"/>
      <point x="100.0" y="238" type="line"/>
    </contour>
  </outline>
</glyph>
<glyph name="uni00B5" format="2">
  <advance width="500"/>
  <unicode hex="00B5"/>
  <outline>
    <contour>
      <point x="80" y="0" type="line"/>
      <point x="198" y="0" type="line"/>
      <point x="198" y="555" type="line"/>
      <point x="80" y="555" type="line"/>
    </contour>
    <contour>
      <point x="302" y="-210" type="line"/>
      <point x="420" y="-210" type="line"/>
      <point x="420" y="555" type="line"/>
      <point x="302" y="555" type="line"/>
    </contour>
    <contour>
      <point x="145" y="0" type="line"/>
      <point x="420" y="0" type="line"/>
      <point x="420" y="118" type="line"/>
      <point x="145" y="118" type="line"/>
    </contour>
  </outline>
</glyph>
<glyph name="uni00B7" format="2">
  <advance width="500"/>
  <unicode hex="00B7"/>
  <outline>
    <contour>
      <point x="309.0" y="280" type="curve" smooth="yes"/>
      <point x="309.0" y="312.58480025"/>
      <point x="282.58480025" y="339.0"/>
      <point x="250.0" y="339.0" type="curve" smooth="yes"/>
      <point x="217.41519975" y="339.0"/>
      <point x="191.0" y="312.58480025"/>
      <point x="191.0" y="280" type="curve" smooth="yes"/>
      <point x="191.0" y="247.41519975"/>
      <point x="217.41519975" y="221.0"/>
      <point x="250.0" y="221.0" type="curve" smooth="yes"/>
      <point x="282.58480025" y="221.0"/>
      <point x="309.0" y="247.41519975"/>
    </contour>
  </outline>
</glyph>
<glyph name="uni00C8" format="2">
  <advance width="540"/>
  <unicode hex="00C8"/>
  <outline>
    <contour>
      <point x="332.35180599692706" y="758.2725992850454" type="line"/>
      <point x="256.35180599692706" y="680.2725992850454" type="line"/>
      <point x="207.64819400307294" y="727.7274007149546" type="line"/>
      <point x="283.64819400307294" y="805.7274007149546" type="line"/>
    </contour>
    <component base="E"/>
  </outline>
</glyph>
<glyph name="uni00CC" format="2">
  <advance width="290"/>
  <unicode hex="00CC"/>
  <outline>
    <contour>
      <point x="207.35180599692706" y="758.2725992850454" type="line"/>
      <point x="131.35180599692706" y="680.2725992850454" type="line"/>
      <point x="82.64819400307293" y="727.7274007149546" type="line"/>
      <point x="158.64819400307294" y="805.7274007149546" type="line"/>
    </contour>
    <component base="I"/>
  </outline>
</glyph>
<glyph name="uni00CE" format="2">
  <advance width="290"/>
  <unicode hex="00CE"/>
  <outline>
    <contour>
      <point x="61.293916079239246" y="743.2530278717034" type="line"/>
      <point x="119.29391607923924" y="810.2530278717034" type="line"/>
      <point x="170.70608392076076" y="765.7469721282966" type="line"/>
      <point x="112.70608392076076" y="698.7469721282966" type="line"/>
    </contour>
    <contour>
      <point x="170.70608392076076" y="810.2530278717034" type="line"/>
      <point x="228.70608392076076" y="743.2530278717034" type="line"/>
      <point x="177.29391607923924" y="698.7469721282966" type="line"/>
      <point x="119.29391607923924" y="765.7469721282966" type="line"/>
    </contour>
    <component base="I"/>
  </outline>
</glyph>
<glyph name="uni00CF" format="2">
  <advance width="290"/>
  <unicode hex="00CF"/>
  <outline>
    <contour>
      <point x="141.0" y="764" type="curve" smooth="yes"/>
      <point x="141.0" y="782.7776815"/>
      <point x="125.7776815" y="798.0"/>
      <point x="107.0" y="798.0" type="curve" smooth="yes"/>
      <point x="88.2223185" y="798.0"/>
      <point x="73.0" y="782.7776815"/>
      <point x="73.0" y="764" type="curve" smooth="yes"/>
      <point x="73.0" y="745.2223185"/>
      <point x="88.2223185" y="730.0"/>
      <point x="107.0" y="730.0" type="curve" smooth="yes"/>
      <point x="125.7776815" y="730.0"/>
      <point x="141.0" y="745.2223185"/>
    </contour>
    <contour>
      <point x="217.0" y="764" type="curve" smooth="yes"/>
      <point x="217.0" y="782.7776815"/>
      <point x="201.7776815" y="798.0"/>
      <point x="183.0" y="798.0" type="curve" smooth="yes"/>
      <point x="164.2223185" y="798.0"/>
      <point x="149.0" y="782.7776815"/>
      <point x="149.0" y="764" type="curve" smooth="yes"/>
      <point x="149.0" y="745.2223185"/>
      <point x="164.2223185" y="730.0"/>
      <point x="183.0" y="730.0" type="curve" smooth="yes"/>
      <point x="201.7776815" y="730.0"/>
      <point x="217.0" y="745.2223185"/>
    </contour>
    <component base="I"/>
  </outline>
</glyph>
<glyph name="uni00D5" format="2">
  <advance width="540"/>
  <unicode hex="00D5"/>
  <outline>
    <contour>
      <point x="192.50228029164683" y="783.8538852976474" type="line"/>
      <point x="232.50228029164683" y="811.8538852976474" type="line"/>
      <point x="271.49771970835315" y="756.1461147023526" type="line"/>
      <point x="231.49771970835317" y="728.1461147023526" type="line"/>
    </contour>
    <contour>
      <point x="271.49771970835315" y="811.8538852976474" type="line"/>
      <point x="311.49771970835315" y="783.8538852976474" type="line"/>
      <point x="272.50228029164685" y="728.1461147023526" type="line"/>
      <point x="232.50228029164683" y="756.1461147023526" type="line"/>
    </contour>
    <contour>
      <point x="271.8312327063051" y="783.3718984700145" type="line"/>
      <point x="309.8312327063051" y="811.3718984700145" type="line"/>
      <point x="350.1687672936949" y="756.6281015299855" type="line"/>
      <point x="312.1687672936949" y="728.6281015299855" type="line"/>
    </contour>
    <component base="O"/>
  </outline>
</glyph>
<glyph name="uni00D7" format="2">
  <advance width="500"/>
  <unicode hex="00D7"/>
  <outline>
    <contour>
      <point x="78.2806999099937" y="251.7193000900063" type="line"/>
      <point x="338.2806999099937" y="511.7193000900063" type="line"/>
      <point x="421.7193000900063" y="428.2806999099937" type="line"/>
      <point x="161.7193000900063" y="168.2806999099937" type="line"/>
    </contour>
    <contour>
      <point x="338.2806999099937" y="168.2806999099937" type="line"/>
      <point x="78.2806999099937" y="428.2806999099937" type="line"/>
      <point x="161.7193000900063" y="511.7193000900063" type="line"/>
      <point x="421.7193000900063" y="251.7193000900063" type="line"/>
    </contour>
  </outline>
</glyph>
<glyph name="uni00E1" format="2">
  <advance width="540"/>
  <unicode hex="00E1"/>
  <outline>
    <contour>
      <point x="207.64819400307294" y="578.7274007149546" type="line"/>
      <point x="283.64819400307294" y="656.7274007149546" type="line"/>
      <point x="332.35180599692706" y="609.2725992850454" type="line"/>
      <point x="256.35180599692706" y="531.2725992850454" type="line"/>
    </contour>
    <component base="a"/>
  </outline>
</glyph>
<glyph name="uni00E3" format="2">
  <advance width="540"/>
  <unicode hex="00E3"/>
  <outline>
    <contour>
      <point x="208.0" y="605" type="line"/>
      <point x="232.0" y="631" type="line"/>
      <point x="256.0" y="631" type="line"/>
      <point x="280.0" y="605" type="line"/>
      <point x="304.0" y="605" type="line"/>
      <point x="332.0" y="631" type="line"/>
      <point x="332.0" y="591.56" type="line"/>
      <point x="304.0" y="565.56" type="line"/>
      <point x="280.0" y="565.56" type="line"/>
      <point x="256.0" y="591.56" type="line"/>
      <point x="232.0" y="591.56" type="line"/>
      <point x="208.0" y="565.56" type="line"/>
    </contour>
    <component base="a"/>
  </outline>
</glyph>
<glyph name="uni00E5" format="2">
  <advance width="540"/>
  <unicode hex="00E5"/>
  <outline>
    <contour>
      <point x="312.0" y="615" type="curve" smooth="yes"/>
      <point x="312.0" y="638.1959595"/>
      <point x="293.1959595" y="657"/>
      <point x="270.0" y="657" type="curve" smooth="yes"/>
      <point x="246.80404049999999" y="657"/>
      <point x="228.0" y="638.1959595"/>
      <point x="228.0" y="615" type="curve" smooth="yes"/>
      <point x="228.0" y="591.8040405"/>
      <point x="246.80404049999999" y="573"/>
      <point x="270.0" y="573" type="curve" smooth="yes"/>
      <point x="293.1959595" y="573"/>
      <point x="312.0" y="591.8040405"/>
    </contour>
    <contour>
      <point x="291.0" y="615" type="curve" smooth="yes"/>
      <point x="291.0" y="603.40202025"/>
      <point x="281.59797975" y="594"/>
      <point x="270.0" y="594" type="curve" smooth="yes"/>
      <point x="258.40202025" y="594"/>
      <point x="249.0" y="603.40202025"/>
      <point x="249.0" y="615" type="curve" smooth="yes"/>
      <point x="249.0" y="626.59797975"/>
      <point x="258.40202025" y="636"/>
      <point x="270.0" y="636" type="curve" smooth="yes"/>
      <point x="281.59797975" y="636"/>
      <point x="291.0" y="626.59797975"/>
    </contour>
    <component base="a"/>
  </outline>
</glyph>
<glyph name="uni00EB" format="2">
  <advance width="540"/>
  <unicode hex="00EB"/>
  <outline>
    <contour>
      <point x="266.0" y="615" type="curve" smooth="yes"/>
      <point x="266.0" y="633.7776815"/>
      <point x="250.7776815" y="649.0"/>
      <point x="232.0" y="649.0" type="curve" smooth="yes"/>
      <point x="213.2223185" y="649.0"/>
      <point x="198.0" y="633.7776815"/>
      <point x="198.0" y="615" type="curve" smooth="yes"/>
      <point x="198.0" y="596.2223185"/>
      <point x="213.2223185" y="581.0"/>
      <point x="232.0" y="581.0" type="curve" smooth="yes"/>
      <point x="250.7776815" y="581.0"/>
      <point x="266.0" y="596.2223185"/>
    </contour>
    <contour>
      <point x="342.0" y="615" type="curve" smooth="yes"/>
      <point x="342.0" y="633.7776815"/>
      <point x="326.77768149999997" y="649.0"/>
      <point x="308.0" y="649.0" type="curve" smooth="yes"/>
      <point x="289.22231850000003" y="649.0"/>
      <point x="274.0" y="633.7776815"/>
      <point x="274.0" y="615" type="curve" smooth="yes"/>
      <point x="274.0" y="596.2223185"/>
      <point x="289.22231850000003" y="581.0"/>
      <point x="308.0" y="581.0" type="curve" smooth="yes"/>
      <point x="326.77768149999997" y="581.0"/>
      <point x="342.0" y="596.2223185"/>
    </contour>
    <component base="e"/>
  </outline>
</glyph>
<glyph name="uni00EE" format="2">
  <advance width="290"/>
  <unicode hex="00EE"/>
  <outline>
    <contour>
      <point x="61.293916079239246" y="594.2530278717034" type="line"/>
      <point x="119.29391607923924" y="661.2530278717034" type="line"/>
      <point x="170.70608392076076" y="616.7469721282966" type="line"/>
      <point x="112.70608392076076" y="549.7469721282966" type="line"/>
    </contour>
    <contour>
      <point x="170.70608392076076" y="661.2530278717034" type="line"/>
      <point x="228.70608392076076" y="594.2530278717034" type="line"/>
      <point x="177.29391607923924" y="549.7469721282966" type="line"/>
      <point x="119.29391607923924" y="616.7469721282966" type="line"/>
    </contour>
    <component base="i"/>
  </outline>
</glyph>
<glyph name="uni00EF" format="2">
  <advance width="290"/>
  <unicode hex="00EF"/>
  <outline>
    <contour>
      <point x="141.0" y="615" type="curve" smooth="yes"/>
      <point x="141.0" y="633.7776815"/>
      <point x="125.7776815" y="649.0"/>
      <point x="107.0" y="649.0" type="curve" smooth="yes"/>
      <point x="88.2223185" y="649.0"/>
      <point x="73.0" y="633.7776815"/>
      <point x="73.0" y="615" type="curve" smooth="yes"/>
      <point x="73.0" y="596.2223185"/>
      <point x="88.2223185" y="581.0"/>
      <point x="107.0" y="581.0" type="curve" smooth="yes"/>
      <point x="125.7776815" y="581.0"/>
      <point x="141.0" y="596.2223185"/>
    </contour>
    <contour>
      <point x="217.0" y="615" type="curve" smooth="yes"/>
      <point x="217.0" y="633.7776815"/>
      <point x="201.7776815" y="649.0"/>
      <point x="183.0" y="649.0" type="curve" smooth="yes"/>
      <point x="164.2223185" y="649.0"/>
      <point x="149.0" y="633.7776815"/>
      <point x="149.0" y="615" type="curve" smooth="yes"/>
      <point x="149.0" y="596.2223185"/>
      <point x="164.2223185" y="581.0"/>
      <point x="183.0" y="581.0" type="curve" smooth="yes"/>
      <point x="201.7776815" y="581.0"/>
      <point x="217.0" y="596.2223185"/>
    </contour>
    <component base="i"/>
  </outline>
</glyph>
<glyph name="uni00F5" format="2">
  <advance width="540"/>
  <unicode hex="00F5"/>
  <outline>
    <contour>
      <point x="192.50228029164683" y="634.8538852976474" type="line"/>
      <point x="232.50228029164683" y="662.8538852976474" type="line"/>
      <point x="271.49771970835315" y="607.1461147023526" type="line"/>
      <point x="231.49771970835317" y="579.1461147023526" type="line"/>
    </contour>
    <contour>
      <point x="271.49771970835315" y="662.8538852976474" type="line"/>
      <point x="311.49771970835315" y="634.8538852976474" type="line"/>
      <point x="272.50228029164685" y="579.1461147023526" type="line"/>
      <point x="232.50228029164683" y="607.1461147023526" type="line"/>
    </contour>
    <contour>
      <point x="271.8312327063051" y="634.3718984700145" type="line"/>
      <point x="309.8312327063051" y="662.3718984700145" type="line"/>
      <point x="350.1687672936949" y="607.6281015299855" type="line"/>
      <point x="312.1687672936949" y="579.6281015299855" type="line"/>
    </contour>
    <component base="o"/>
  </outline>
</glyph>
<glyph name="uni00F7" format="2">
  <advance width="500"/>
  <unicode hex="00F7"/>
  <outline>
    <contour>
      <point x="100.0" y="320" type="line"/>
      <point x="400.0" y="320" type="line"/>
      <point x="400.0" y="438" type="line"/>
      <point x="100.0" y="438" type="line"/>
    </contour>
    <contour>
      <point x="309.0" y="500" type="curve" smooth="yes"/>
      <point x="309.0" y="532.58480025"/>
      <point x="282.58480025" y="559.0"/>
      <point x="250.0" y="559.0" type="curve" smooth="yes"/>
      <point x="217.41519975" y="559.0"/>
      <point x="191.0" y="532.58480025"/>
      <point x="191.0" y="500" type="curve" smooth="yes"/>
      <point x="191.0" y="467.41519975"/>
      <point x="217.41519975" y="441.0"/>
      <point x="250.0" y="441.0" type="curve" smooth="yes"/>
      <point x="282.58480025" y="441.0"/>
      <point x="309.0" y="467.41519975"/>
    </contour>
    <contour>
      <point x="309.0" y="140" type="curve" smooth="yes"/>
      <point x="309.0" y="172.58480025"/>
      <point x="282.58480025" y="199.0"/>
      <point x="250.0" y="199.0" type="curve" smooth="yes"/>
      <point x="217.41519975" y="199.0"/>
      <point x="191.0" y="172.58480025"/>
      <point x="191.0" y="140" type="curve" smooth="yes"/>
      <point x="191.0" y="107.41519975"/>
      <point x="217.41519975" y="81.0"/>
      <point x="250.0" y="81.0" type="curve" smooth="yes"/>
      <point x="282.58480025" y="81.0"/>
      <point x="309.0" y="107.41519975"/>
    </contour>
  </outline>
</glyph>
<glyph name="uni0101" format="2">
  <advance width="540"/>
  <unicode hex="0101"/>
  <outline>
    <contour>
      <point x="202.0" y="597" type="line"/>
      <point x="338.0" y="597" type="line"/>
      <point x="338.0" y="665" type="line"/>
      <point x="202.0" y="665" type="line"/>
    </contour>
    <component base="a"/>
  </outline>
</glyph>
<glyph name="uni0105" format="2">
  <advance width="540"/>
  <unicode hex="0105"/>
  <outline>
    <contour>
      <point x="315.0773287338996" y="17.867040347522064" type="line"/>
      <point x="359.0773287338996" y="-167.13295965247792" type="line"/>
      <point x="292.9226712661004" y="-182.86704034752208" type="line"/>
      <point x="248.9226712661004" y="2.1329596524779344" type="line"/>
    </contour>
    <component base="a"/>
  </outline>
</glyph>
<glyph name="uni010B" format="2">
  <advance width="540"/>
  <unicode hex="010B"/>
  <outline>
    <contour>
      <point x="304.0" y="615" type="curve" smooth="yes"/>
      <point x="304.0" y="633.7776815"/>
      <point x="288.77768149999997" y="649.0"/>
      <point x="270.0" y="649.0" type="curve" smooth="yes"/>
      <point x="251.2223185" y="649.0"/>
      <point x="236.0" y="633.7776815"/>
      <point x="236.0" y="615" type="curve" smooth="yes"/>
      <point x="236.0" y="596.2223185"/>
      <point x="251.2223185" y="581.0"/>
      <point x="270.0" y="581.0" type="curve" smooth="yes"/>
      <point x="288.77768149999997" y="581.0"/>
      <point x="304.0" y="596.2223185"/>
    </contour>
    <component base="c"/>
  </outline>
</glyph>
<glyph name="uni011A" format="2">
  <advance width="540"/>
  <unicode hex="011A"/>
  <outline>
    <contour>
      <point x="237.70608392076076" y="810.2530278717034" type="line"/>
      <point x="295.70608392076076" y="743.2530278717034" type="line"/>
      <point x="244.29391607923924" y="698.7469721282966" type="line"/>
      <point x="186.29391607923924" y="765.7469721282966" type="line"/>
    </contour>
    <contour>
      <point x="244.29391607923924" y="743.2530278717034" type="line"/>
      <point x="302.29391607923924" y="810.2530278717034" type="line"/>
      <point x="353.70608392076076" y="765.7469721282966" type="line"/>
      <point x="295.70608392076076" y="698.7469721282966" type="line"/>
    </contour>
    <component base="E"/>
  </outline>
</glyph>
<glyph name="uni0126" format="2">
  <advance width="540"/>
  <unicode hex="0126"/>
  <outline>
    <contour>
      <point x="116.51926776526729" y="113.98718055213001" type="line"/>
      <point x="364.91926776526725" y="633.98718055213" type="line"/>
      <point x="423.4807322347327" y="606.01281944787" type="line"/>
      <point x="175.08073223473275" y="86.01281944786999" type="line"/>
    </contour>
    <component base="H"/>
  </outline>
</glyph>
<glyph name="uni0128" format="2">
  <advance width="290"/>
  <unicode hex="0128"/>
  <outline>
    <contour>
      <point x="83.0" y="754" type="line"/>
      <point x="107.0" y="780" type="line"/>
      <point x="131.0" y="780" type="line"/>
      <point x="155.0" y="754" type="line"/>
      <point x="179.0" y="754" type="line"/>
      <point x="207.0" y="780" type="line"/>
      <point x="207.0" y="740.56" type="line"/>
      <point x="179.0" y="714.56" type="line"/>
      <point x="155.0" y="714.56" type="line"/>
      <point x="131.0" y="740.56" type="line"/>
      <point x="107.0" y="740.56" type="line"/>
      <point x="83.0" y="714.56" type="line"/>
    </contour>
    <component base="I"/>
  </outline>
</glyph>
<glyph name="uni012A" format="2">
  <advance width="290"/>
  <unicode hex="012A"/>
  <outline>
    <contour>
      <point x="77.0" y="746" type="line"/>
      <point x="213.0" y="746" type="line"/>
      <point x="213.0" y="814" type="line"/>
      <point x="77.0" y="814" type="line"/>
    </contour>
    <component base="I"/>
  </outline>
</glyph>
<glyph name="uni012D" format="2">
  <advance width="290"/>
  <unicode hex="012D"/>
  <outline>
    <contour>
      <point x="209.0" y="615" type="curve" smooth="yes"/>
      <point x="209.0" y="595.67003375"/>
      <point x="180.346224" y="580"/>
      <point x="145.0" y="580" type="curve" smooth="yes"/>
      <point x="109.653776" y="580"/>
      <point x="81.0" y="595.67003375"/>
      <point x="81.0" y="615" type="curve" smooth="yes"/>
      <point x="81.0" y="634.32996625"/>
      <point x="109.653776" y="650"/>
      <point x="145.0" y="650" type="curve" smooth="yes"/>
      <point x="180.346224" y="650"/>
      <point x="209.0" y="634.32996625"/>
    </contour>
    <contour>
      <point x="75.0" y="579" type="line"/>
      <point x="215.0" y="579" type="line"/>
      <point x="215.0" y="617" type="line"/>
      <point x="75.0" y="617" type="line"/>
    </contour>
    <component base="i"/>
  </outline>
</glyph>
<glyph name="uni012F" format="2">
  <advance width="290"/>
  <unicode hex="012F"/>
  <outline>
    <contour>
      <point x="190.0773287338996" y="17.867040347522064" type="line"/>
      <point x="234.0773287338996" y="-167.13295965247792" type="line"/>
      <point x="167.9226712661004" y="-182.86704034752208" type="line"/>
      <point x="123.92267126610041" y="2.1329596524779344" type="line"/>
    </contour>
    <component base="i"/>
  </outline>
</glyph>
<glyph name="uni0130" format="2">
  <advance width="290"/>
  <unicode hex="0130"/>
  <outline>
    <contour>
      <point x="179.0" y="764" type="curve" smooth="yes"/>
      <point x="179.0" y="782.7776815"/>
      <point x="163.7776815" y="798.0"/>
      <point x="145.0" y="798.0" type="curve" smooth="yes"/>
      <point x="126.2223185" y="798.0"/>
      <point x="111.0" y="782.7776815"/>
      <point x="111.0" y="764" type="curve" smooth="yes"/>
      <point x="111.0" y="745.2223185"/>
      <point x="126.2223185" y="730.0"/>
      <point x="145.0" y="730.0" type="curve" smooth="yes"/>
      <point x="163.7776815" y="730.0"/>
      <point x="179.0" y="745.2223185"/>
    </contour>
    <component base="I"/>
  </outline>
</glyph>
<glyph name="uni0139" format="2">
  <advance width="540"/>
  <unicode hex="0139"/>
  <outline>
    <contour>
      <point x="207.64819400307294" y="727.7274007149546" type="line"/>
      <point x="283.64819400307294" y="805.7274007149546" type="line"/>
      <point x="332.35180599692706" y="758.2725992850454" type="line"/>
      <point x="256.35180599692706" y="680.2725992850454" type="line"/>
    </contour>
    <component base="L"/>
  </outline>
</glyph>
<glyph name="uni013A" format="2">
  <advance width="290"/>
  <unicode hex="013A"/>
  <outline>
    <contour>
      <point x="82.64819400307293" y="578.7274007149546" type="line"/>
      <point x="158.64819400307294" y="656.7274007149546" type="line"/>
      <point x="207.35180599692706" y="609.2725992850454" type="line"/>
      <point x="131.35180599692706" y="531.2725992850454" type="line"/>
    </contour>
    <component base="l"/>
  </outline>
</glyph>
<glyph name="uni013C" format="2">
  <advance width="290"/>
  <unicode hex="013C"/>
  <outline>
    <contour>
      <point x="179.0" y="-105.0" type="curve" smooth="yes"/>
      <point x="179.0" y="-86.2223185"/>
      <point x="163.7776815" y="-71.0"/>
      <point x="145.0" y="-71.0" type="curve" smooth="yes"/>
      <point x="126.2223185" y="-71.0"/>
      <point x="111.0" y="-86.2223185"/>
      <point x="111.0" y="-105.0" type="curve" smooth="yes"/>
      <point x="111.0" y="-123.7776815"/>
      <point x="126.2223185" y="-139.0"/>
      <point x="145.0" y="-139.0" type="curve" smooth="yes"/>
      <point x="163.7776815" y="-139.0"/>
      <point x="179.0" y="-123.7776815"/>
    </contour>
    <contour>
      <point x="178.5077220059172" y="-17.7647693773621" type="line"/>
      <point x="146.5077220059172" y="-203.7647693773621" type="line"/>
      <point x="79.4922779940828" y="-192.2352306226379" type="line"/>
      <point x="111.4922779940828" y="-6.2352306226379" type="line"/>
    </contour>
    <component base="l"/>
  </outline>
</glyph>
<glyph name="uni013E" format="2">
  <advance width="290"/>
  <unicode hex="013E"/>
  <outline>
    <contour>
      <point x="112.70608392076076" y="661.2530278717034" type="line"/>
      <point x="170.70608392076076" y="594.2530278717034" type="line"/>
      <point x="119.29391607923924" y="549.7469721282966" type="line"/>
      <point x="61.293916079239246" y="616.7469721282966" type="line"/>
    </contour>
    <contour>
      <point x="119.29391607923924" y="594.2530278717034" type="line"/>
      <point x="177.29391607923924" y="661.2530278717034" type="line"/>
      <point x="228.70608392076076" y="616.7469721282966" type="line"/>
      <point x="170.70608392076076" y="549.7469721282966" type="line"/>
    </contour>
    <component base="l"/>
  </outline>
</glyph>
<glyph name="uni013F" format="2">
  <advance width="540"/>
  <unicode hex="013F"/>
  <outline>
    <contour>
      <point x="429.59999999999997" y="266.4" type="curve" smooth="yes"/>
      <point x="429.59999999999997" y="285.95088015"/>
      <point x="413.75088015" y="301.79999999999995"/>
      <point x="394.2" y="301.79999999999995" type="curve" smooth="yes"/>
      <point x="374.64911985" y="301.79999999999995"/>
      <point x="358.8" y="285.95088015"/>
      <point x="358.8" y="266.4" type="curve" smooth="yes"/>
      <point x="358.8" y="246.84911984999997"/>
      <point x="374.64911985" y="230.99999999999997"/>
      <point x="394.2" y="230.99999999999997" type="curve" smooth="yes"/>
      <point x="413.75088015" y="230.99999999999997"/>
      <point x="429.59999999999997" y="246.84911984999997"/>
    </contour>
    <component base="L"/>
  </outline>
</glyph>
<glyph name="uni0140" format="2">
  <advance width="290"/>
  <unicode hex="0140"/>
  <outline>
    <contour>
      <point x="247.1" y="266.4" type="curve" smooth="yes"/>
      <point x="247.1" y="285.95088015"/>
      <point x="231.25088015" y="301.79999999999995"/>
      <point x="211.7" y="301.79999999999995" type="curve" smooth="yes"/>
      <point x="192.14911984999998" y="301.79999999999995"/>
      <point x="176.29999999999998" y="285.95088015"/>
      <point x="176.29999999999998" y="266.4" type="curve" smooth="yes"/>
      <point x="176.29999999999998" y="246.84911984999997"/>
      <point x="192.14911984999998" y="230.99999999999997"/>
      <point x="211.7" y="230.99999999999997" type="curve" smooth="yes"/>
      <point x="231.25088015" y="230.99999999999997"/>
      <point x="247.1" y="246.84911984999997"/>
    </contour>
    <component base="l"/>
  </outline>
</glyph>
<glyph name="uni0142" format="2">
  <advance width="290"/>
  <unicode hex="0142"/>
  <outline>
    <contour>
      <point x="46.86782730460505" y="108.06356122608786" type="line"/>
      <point x="180.26782730460502" y="628.0635612260878" type="line"/>
      <point x="243.13217269539496" y="611.9364387739122" type="line"/>
      <point x="109.73217269539498" y="91.93643877391214" type="line"/>
    </contour>
    <component base="l"/>
  </outline>
</glyph>
<glyph name="uni0144" format="2">
  <advance width="540"/>
  <unicode hex="0144"/>
  <outline>
    <contour>
      <point x="207.64819400307294" y="578.7274007149546" type="line"/>
      <point x="283.64819400307294" y="656.7274007149546" type="line"/>
      <point x="332.35180599692706" y="609.2725992850454" type="line"/>
      <point x="256.35180599692706" y="531.2725992850454" type="line"/>
    </contour>
    <component base="n"/>
  </outline>
</glyph>
<glyph name="uni0149" format="2">
  <advance width="540"/>
  <unicode hex="0149"/>
  <outline>
    <contour>
      <point x="144.8062215254183" y="556.0564109985438" type="line"/>
      <point x="101.6062215254183" y="626.0564109985438" type="line"/>
      <point x="146.7937784745817" y="653.9435890014562" type="line"/>
      <point x="189.99377847458172" y="583.9435890014562" type="line"/>
    </contour>
    <component base="n"/>
  </outline>
</glyph>
<glyph name="uni0150" format="2">
  <advance width="540"/>
  <unicode hex="0150"/>
  <outline>
    <contour>
      <point x="187.16564588434764" y="740.5255916930696" type="line"/>
      <point x="234.16564588434764" y="807.5255916930696" type="line"/>
      <point x="289.83435411565233" y="768.4744083069304" type="line"/>
      <point x="242.83435411565236" y="701.4744083069304" type="line"/>
    </contour>
    <contour>
      <point x="250.16564588434764" y="740.5255916930696" type="line"/>
      <point x="297.16564588434767" y="807.5255916930696" type="line"/>
      <point x="352.83435411565233" y="768.4744083069304" type="line"/>
      <point x="305.83435411565233" y="701.4744083069304" type="line"/>
    </contour>
    <component base="O"/>
  </outline>
</glyph>
<glyph name="uni0151" format="2">
  <advance width="540"/>
  <unicode hex="0151"/>
  <outline>
    <contour>
      <point x="187.16564588434764" y="591.5255916930696" type="line"/>
      <point x="234.16564588434764" y="658.5255916930696" type="line"/>
      <point x="289.83435411565233" y="619.4744083069304" type="line"/>
      <point x="242.83435411565236" y="552.4744083069304" type="line"/>
    </contour>
    <contour>
      <point x="250.16564588434764" y="591.5255916930696" type="line"/>
      <point x="297.16564588434767" y="658.5255916930696" type="line"/>
      <point x="352.83435411565233" y="619.4744083069304" type="line"/>
      <point x="305.83435411565233" y="552.4744083069304" type="line"/>
    </contour>
    <component base="o"/>
  </outline>
</glyph>
<glyph name="uni0161" format="2">
  <advance width="540"/>
  <unicode hex="0161"/>
  <outline>
    <contour>
      <point x="237.70608392076076" y="661.2530278717034" type="line"/>
      <point x="295.70608392076076" y="594.2530278717034" type="line"/>
      <point x="244.29391607923924" y="549.7469721282966" type="line"/>
      <point x="186.29391607923924" y="616.7469721282966" type="line"/>
    </contour>
    <contour>
      <point x="244.29391607923924" y="594.2530278717034" type="line"/>
      <point x="302.29391607923924" y="661.2530278717034" type="line"/>
      <point x="353.70608392076076" y="616.7469721282966" type="line"/>
      <point x="295.70608392076076" y="549.7469721282966" type="line"/>
    </contour>
    <component base="s"/>
  </outline>
</glyph>
<glyph name="uni0163" format="2">
  <advance width="540"/>
  <unicode hex="0163"/>
  <outline>
    <contour>
      <point x="304.0" y="-105.0" type="curve" smooth="yes"/>
      <point x="304.0" y="-86.2223185"/>
      <point x="288.77768149999997" y="-71.0"/>
      <point x="270.0" y="-71.0" type="curve" smooth="yes"/>
      <point x="251.2223185" y="-71.0"/>
      <point x="236.0" y="-86.2223185"/>
      <point x="236.0" y="-105.0" type="curve" smooth="yes"/>
      <point x="236.0" y="-123.7776815"/>
      <point x="251.2223185" y="-139.0"/>
      <point x="270.0" y="-139.0" type="curve" smooth="yes"/>
      <point x="288.77768149999997" y="-139.0"/>
      <point x="304.0" y="-123.7776815"/>
    </contour>
    <contour>
      <point x="303.50772200591723" y="-17.7647693773621" type="line"/>
      <point x="271.50772200591723" y="-203.7647693773621" type="line"/>
      <point x="204.4922779940828" y="-192.2352306226379" type="line"/>
      <point x="236.4922779940828" y="-6.2352306226379" type="line"/>
    </contour>
    <component base="t"/>
  </outline>
</glyph>
<glyph name="uni0174" format="2">
  <advance width="600"/>
  <unicode hex="0174"/>
  <outline>
    <contour>
      <point x="216.29391607923924" y="743.2530278717034" type="line"/>
      <point x="274.29391607923924" y="810.2530278717034" type="line"/>
      <point x="325.70608392076076" y="765.7469721282966" type="line"/>
      <point x="267.70608392076076" y="698.7469721282966" type="line"/>
    </contour>
    <contour>
      <point x="325.70608392076076" y="810.2530278717034" type="line"/>
      <point x="383.70608392076076" y="743.2530278717034" type="line"/>
      <point x="332.29391607923924" y="698.7469721282966" type="line"/>
      <point x="274.29391607923924" y="765.7469721282966" type="line"/>
    </contour>
    <component base="W"/>
  </outline>
</glyph>
<glyph name="uni0175" format="2">
  <advance width="600"/>
  <unicode hex="0175"/>
  <outline>
    <contour>
      <point x="216.29391607923924" y="594.2530278717034" type="line"/>
      <point x="274.29391607923924" y="661.2530278717034" type="line"/>
      <point x="325.70608392076076" y="616.7469721282966" type="line"/>
      <point x="267.70608392076076" y="549.7469721282966" type="line"/>
    </contour>
    <contour>
      <point x="325.70608392076076" y="661.2530278717034" type="line"/>
      <point x="383.70608392076076" y="594.2530278717034" type="line"/>
      <point x="332.29391607923924" y="549.7469721282966" type="line"/>
      <point x="274.29391607923924" y="616.7469721282966" type="line"/>
    </contour>
    <component base="w"/>
  </outline>
</glyph>
<glyph name="uni017B" format="2">
  <advance width="540"/>
  <unicode hex="017B"/>
  <outline>
    <contour>
      <point x="304.0" y="764" type="curve" smooth="yes"/>
      <point x="304.0" y="782.7776815"/>
      <point x="288.77768149999997" y="798.0"/>
      <point x="270.0" y="798.0" type="curve" smooth="yes"/>
      <point x="251.2223185" y="798.0"/>
      <point x="236.0" y="782.7776815"/>
      <point x="236.0" y="764" type="curve" smooth="yes"/>
      <point x="236.0" y="745.2223185"/>
      <point x="251.2223185" y="730.0"/>
      <point x="270.0" y="730.0" type="curve" smooth="yes"/>
      <point x="288.77768149999997" y="730.0"/>
      <point x="304.0" y="745.2223185"/>
    </contour>
    <component base="Z"/>
  </outline>
</glyph>
<glyph name="uni017C" format="2">
  <advance width="540"/>
  <unicode hex="017C"/>
  <outline>
    <contour>
      <point x="304.0" y="615" type="curve" smooth="yes"/>
      <point x="304.0" y="633.7776815"/>
      <point x="288.77768149999997" y="649.0"/>
      <point x="270.0" y="649.0" type="curve" smooth="yes"/>
      <point x="251.2223185" y="649.0"/>
      <point x="236.0" y="633.7776815"/>
      <point x="236.0" y="615" type="curve" smooth="yes"/>
      <point x="236.0" y="596.2223185"/>
      <point x="251.2223185" y="581.0"/>
      <point x="270.0" y="581.0" type="curve" smooth="yes"/>
      <point x="288.77768149999997" y="581.0"/>
      <point x="304.0" y="596.2223185"/>
    </contour>
    <component base="z"/>
  </outline>
</glyph>
<glyph name="uni01A1" format="2">
  <advance width="540"/>
  <unicode hex="01A1"/>
  <outline>
    <contour>
      <point x="332.0" y="603" type="line"/>
      <point x="354.0" y="611" type="line"/>
      <point x="386.0" y="645" type="line"/>
      <point x="355.4" y="645" type="line"/>
      <point x="319.4" y="617" type="line"/>
      <point x="332.0" y="572.4" type="line"/>
    </contour>
    <component base="o"/>
  </outline>
</glyph>
<glyph name="uni01AF" format="2">
  <advance width="540"/>
  <unicode hex="01AF"/>
  <outline>
    <contour>
      <point x="332.0" y="752" type="line"/>
      <point x="354.0" y="760" type="line"/>
      <point x="386.0" y="794" type="line"/>
      <point x="355.4" y="794" type="line"/>
      <point x="319.4" y="766" type="line"/>
      <point x="332.0" y="721.4" type="line"/>
    </contour>
    <component base="U"/>
  </outline>
</glyph>
<glyph name="uni01B0" format="2">
  <advance width="540"/>
  <unicode hex="01B0"/>
  <outline>
    <contour>
      <point x="332.0" y="603" type="line"/>
      <point x="354.0" y="611" type="line"/>
      <point x="386.0" y="645" type="line"/>
      <point x="355.4" y="645" type="line"/>
      <point x="319.4" y="617" type="line"/>
      <point x="332.0" y="572.4" type="line"/>
    </contour>
    <component base="u"/>
  </outline>
</glyph>
<glyph name="uni0219" format="2">
  <advance width="540"/>
  <unicode hex="0219"/>
  <outline>
    <contour>
      <point x="304.0" y="-105.0" type="curve" smooth="yes"/>
      <point x="304.0" y="-86.2223185"/>
      <point x="288.77768149999997" y="-71.0"/>
      <point x="270.0" y="-71.0" type="curve" smooth="yes"/>
      <point x="251.2223185" y="-71.0"/>
      <point x="236.0" y="-86.2223185"/>
      <point x="236.0" y="-105.0" type="curve" smooth="yes"/>
      <point x="236.0" y="-123.7776815"/>
      <point x="251.2223185" y="-139.0"/>
      <point x="270.0" y="-139.0" type="curve" smooth="yes"/>
      <point x="288.77768149999997" y="-139.0"/>
      <point x="304.0" y="-123.7776815"/>
    </contour>
    <contour>
      <point x="307.72044746555684" y="-16.351025479426692" type="line"/>
      <point x="283.72044746555684" y="-202.35102547942668" type="line"/>
      <point x="216.27955253444316" y="-193.64897452057332" type="line"/>
      <point x="240.27955253444316" y="-7.648974520573309" type="line"/>
    </contour>
    <component base="s"/>
  </outline>
</glyph>
<glyph name="uni038F" format="2">
  <advance width="500"/>
  <unicode hex="038F"/>
  <outline>
    <contour>
      <point x="76" y="0" type="curve"/>
      <point x="152" y="0" type="line"/>
      <point x="161.9411255" y="0"/>
      <point x="170" y="8.0588745"/>
      <point x="170" y="18" type="curve"/>
      <point x="170" y="100" type="line"/>
      <point x="170" y="109.9411255"/>
      <point x="161.9411255" y="118"/>
      <point x="152" y="118" type="curve"/>
      <point x="76" y="118" type="line"/>
      <point x="66.0588745" y="118"/>
      <point x="58" y="109.9411255"/>
      <point x="58" y="100" type="curve"/>
      <point x="58" y="18" type="line"/>
      <point x="58" y="8.0588745"/>
      <point x="66.0588745" y="0"/>
    </contour>
    <contour>
      <point x="348" y="0" type="curve"/>
      <point x="424" y="0" type="line"/>
      <point x="433.9411255" y="0"/>
      <point x="442" y="8.0588745"/>
      <point x="442" y="18" type="curve"/>
      <point x="442" y="100" type="line"/>
      <point x="442" y="109.9411255"/>
      <point x="433.9411255" y="118"/>
      <point x="424" y="118" type="curve"/>
      <point x="348" y="118" type="line"/>
      <point x="338.0588745" y="118"/>
      <point x="330" y="109.9411255"/>
      <point x="330" y="100" type="curve"/>
      <point x="330" y="18" type="line"/>
      <point x="330" y="8.0588745"/>
      <point x="338.0588745" y="0"/>
    </contour>
    <contour>
      <point x="92" y="44" type="line"/>
      <point x="38" y="190"/>
      <point x="68" y="708"/>
      <point x="250" y="708" type="curve"/>
      <point x="432" y="708"/>
      <point x="462" y="190"/>
      <point x="408" y="44" type="curve"/>
      <point x="344" y="44" type="line"/>
      <point x="384" y="172"/>
      <point x="360" y="642"/>
      <point x="250" y="642" type="curve"/>
      <point x="140" y="642"/>
      <point x="116" y="172"/>
      <point x="156" y="44" type="curve"/>
    </contour>
    <contour>
      <point x="18" y="0" type="line"/>
      <point x="138" y="0" type="line"/>
      <point x="138" y="50" type="line"/>
      <point x="18" y="50" type="line"/>
    </contour>
    <contour>
      <point x="18" y="650" type="line"/>
      <point x="138" y="650" type="line"/>
      <point x="138" y="700" type="line"/>
      <point x="18" y="700" type="line"/>
    </contour>
    <contour>
      <point x="362" y="0" type="line"/>
      <point x="482" y="0" type="line"/>
      <point x="482" y="50" type="line"/>
      <point x="362" y="50" type="line"/>
    </contour>
    <contour>
      <point x="362" y="650" type="line"/>
      <point x="482" y="650" type="line"/>
      <point x="482" y="700" type="line"/>
      <point x="362" y="700" type="line"/>
    </contour>
    <contour>
      <point x="187.64819400307294" y="727.7274007149546" type="line"/>
      <point x="263.64819400307294" y="805.7274007149546" type="line"/>
      <point x="312.35180599692706" y="758.2725992850454" type="line"/>
      <point x="236.35180599692706" y="680.2725992850454" type="line"/>
    </contour>
  </outline>
</glyph>
<glyph name="uni0390" format="2">
  <advance width="290"/>
  <unicode hex="0390"/>
  <outline>
    <contour>
      <point x="141.0" y="615" type="curve"/>
      <point x="141.0" y="633.7776815"/>
      <point x="125.7776815" y="649.0"/>
      <point x="107.0" y="649.0" type="curve"/>
      <point x="88.2223185" y="649.0"/>
      <point x="73.0" y="633.7776815"/>
      <point x="73.0" y="615" type="curve"/>
      <point x="73.0" y="596.2223185"/>
      <point x="88.2223185" y="581.0"/>
      <point x="107.0" y="581.0" type="curve"/>
      <point x="125.7776815" y="581.0"/>
      <point x="141.0" y="596.2223185"/>
    </contour>
    <contour>
      <point x="217.0" y="615" type="curve"/>
      <point x="217.0" y="633.7776815"/>
      <point x="201.7776815" y="649.0"/>
      <point x="183.0" y="649.0" type="curve"/>
      <point x="164.2223185" y="649.0"/>
      <point x="149.0" y="633.7776815"/>
      <point x="149.0" y="615" type="curve"/>
      <point x="149.0" y="596.2223185"/>
      <point x="164.2223185" y="581.0"/>
      <point x="183.0" y="581.0" type="curve"/>
      <point x="201.7776815" y="581.0"/>
      <point x="217.0" y="596.2223185"/>
    </contour>
    <contour>
      <point x="82.64819400307293" y="578.7274007149546" type="line"/>
      <point x="158.64819400307294" y="656.7274007149546" type="line"/>
      <point x="207.35180599692706" y="609.2725992850454" type="line"/>
      <point x="131.35180599692706" y="531.2725992850454" type="line"/>
    </contour>
    <component base="i"/>
  </outline>
</glyph>
<glyph name="uni0393" format="2">
  <advance width="500"/>
  <unicode hex="0393"/>
  <outline>
    <contour>
      <point x="76" y="0" type="curve"/>
      <point x="158" y="0" type="line"/>
      <point x="167.9411255" y="0"/>
      <point x="176" y="8.0588745"/>
      <point x="176" y="18" type="curve"/>
      <point x="176" y="682" type="line"/>
      <point x="176" y="691.9411255"/>
      <point x="167.9411255" y="700"/>
      <point x="158" y="700" type="curve"/>
      <point x="76" y="700" type="line"/>
      <point x="66.0588745" y="700"/>
      <point x="58" y="691.9411255"/>
      <point x="58" y="682" type="curve"/>
      <point x="58" y="18" type="line"/>
      <point x="58" y="8.0588745"/>
      <point x="66.0588745" y="0"/>
    </contour>
    <contour>
      <point x="58" y="582" type="line"/>
      <point x="408" y="582" type="line"/>
      <point x="408" y="700" type="line"/>
      <point x="58" y="700" type="line"/>
    </contour>
    <contour>
      <point x="18" y="0" type="line"/>
      <point x="138" y="0" type="line"/>
      <point x="138" y="50" type="line"/>
      <point x="18" y="50" type="line"/>
    </contour>
    <contour>
      <point x="18" y="650" type="line"/>
      <point x="138" y="650" type="line"/>
      <point x="138" y="700" type="line"/>
      <point x="18" y="700" type="line"/>
    </contour>
    <contour>
      <point x="362" y="0" type="line"/>
      <point x="482" y="0" type="line"/>
      <point x="482" y="50" type="line"/>
      <point x="362" y="50" type="line"/>
    </contour>
    <contour>
      <point x="362" y="650" type="line"/>
      <point x="482" y="650" type="line"/>
      <point x="482" y="700" type="line"/>
      <point x="362" y="700" type="line"/>
    </contour>
  </outline>
</glyph>
<glyph name="uni0394" format="2">
  <advance width="500"/>
  <unicode hex="0394"/>
  <outline>
    <contour>
      <point x="10.898472099491954" y="14.846397254132093" type="line"/>
      <point x="192.89847209949195" y="714.8463972541321" type="line"/>
      <point x="307.101527900508" y="685.1536027458679" type="line"/>
      <point x="125.10152790050805" y="-14.846397254132093" type="line"/>
    </contour>
    <contour>
      <point x="374.898472099492" y="-14.846397254132093" type="line"/>
      <point x="192.89847209949195" y="685.1536027458679" type="line"/>
      <point x="307.101527900508" y="714.8463972541321" type="line"/>
      <point x="489.101527900508" y="14.846397254132093" type="line"/>
    </contour>
    <contour>
      <point x="90" y="0" type="curve"/>
      <point x="410" y="0" type="line"/>
      <point x="419.9411255" y="0"/>
      <point x="428" y="8.0588745"/>
      <point x="428" y="18" type="curve"/>
      <point x="428" y="100" type="line"/>
      <point x="428" y="109.9411255"/>
      <point x="419.9411255" y="118"/>
      <point x="410" y="118" type="curve"/>
      <point x="90" y="118" type="line"/>
      <point x="80.0588745" y="118"/>
      <point x="72" y="109.9411255"/>
      <point x="72" y="100" type="curve"/>
      <point x="72" y="18" type="line"/>
      <point x="72" y="8.0588745"/>
      <point x="80.0588745" y="0"/>
    </contour>
    <contour>
      <point x="18" y="0" type="line"/>
      <point x="138" y="0" type="line"/>
      <point x="138" y="50" type="line"/>
      <point x="18" y="50" type="line"/>
    </contour>
    <contour>
      <point x="18" y="650" type="line"/>
      <point x="138" y="650" type="line"/>
      <point x="138" y="700" type="line"/>
      <point x="18" y="700" type="line"/>
    </contour>
    <contour>
      <point x="362" y="0" type="line"/>
      <point x="482" y="0" type="line"/>
      <point x="482" y="50" type="line"/>
      <point x="362" y="50" type="line"/>
    </contour>
    <contour>
      <point x="362" y="650" type="line"/>
      <point x="482" y="650" type="line"/>
      <point x="482" y="700" type="line"/>
      <point x="362" y="700" type="line"/>
    </contour>
  </outline>
</glyph>
<glyph name="uni039B" format="2">
  <advance width="500"/>
  <unicode hex="039B"/>
  <outline>
    <contour>
      <point x="10.898472099491954" y="14.846397254132093" type="line"/>
      <point x="192.89847209949195" y="714.8463972541321" type="line"/>
      <point x="307.101527900508" y="685.1536027458679" type="line"/>
      <point x="125.10152790050805" y="-14.846397254132093" type="line"/>
    </contour>
    <contour>
      <point x="374.898472099492" y="-14.846397254132093" type="line"/>
      <point x="192.89847209949195" y="685.1536027458679" type="line"/>
      <point x="307.101527900508" y="714.8463972541321" type="line"/>
      <point x="489.101527900508" y="14.846397254132093" type="line"/>
    </contour>
    <contour>
      <point x="18" y="0" type="line"/>
      <point x="138" y="0" type="line"/>
      <point x="138" y="50" type="line"/>
      <point x="18" y="50" type="line"/>
    </contour>
    <contour>
      <point x="18" y="650" type="line"/>
      <point x="138" y="650" type="line"/>
      <point x="138" y="700" type="line"/>
      <point x="18" y="700" type="line"/>
    </contour>
    <contour>
      <point x="362" y="0" type="line"/>
      <point x="482" y="0" type="line"/>
      <point x="482" y="50" type="line"/>
      <point x="362" y="50" type="line"/>
    </contour>
    <contour>
      <point x="362" y="650" type="line"/>
      <point x="482" y="650" type="line"/>
      <point x="482" y="700" type="line"/>
      <point x="362" y="700" type="line"/>
    </contour>
  </outline>
</glyph>
<glyph name="uni03A0" format="2">
  <advance width="500"/>
  <unicode hex="03A0"/>
  <outline>
    <contour>
      <point x="78" y="0" type="curve"/>
      <point x="160" y="0" type="line"/>
      <point x="169.9411255" y="0"/>
      <point x="178" y="8.0588745"/>
      <point x="178" y="18" type="curve"/>
      <point x="178" y="682" type="line"/>
      <point x="178" y="691.9411255"/>
      <point x="169.9411255" y="700"/>
      <point x="160" y="700" type="curve"/>
      <point x="78" y="700" type="line"/>
      <point x="68.0588745" y="700"/>
      <point x="60" y="691.9411255"/>
      <point x="60" y="682" type="curve"/>
      <point x="60" y="18" type="line"/>
      <point x="60" y="8.0588745"/>
      <point x="68.0588745" y="0"/>
    </contour>
    <contour>
      <point x="394" y="0" type="curve"/>
      <point x="476" y="0" type="line"/>
      <point x="485.9411255" y="0"/>
      <point x="494" y="8.0588745"/>
      <point x="494" y="18" type="curve"/>
      <point x="494" y="682" type="line"/>
      <point x="494" y="691.9411255"/>
      <point x="485.9411255" y="700"/>
      <point x="476" y="700" type="curve"/>
      <point x="394" y="700" type="line"/>
      <point x="384.0588745" y="700"/>
      <point x="376" y="691.9411255"/>
      <point x="376" y="682" type="curve"/>
      <point x="376" y="18" type="line"/>
      <point x="376" y="8.0588745"/>
      <point x="384.0588745" y="0"/>
    </contour>
    <contour>
      <point x="60" y="582" type="line"/>
      <point x="440" y="582" type="line"/>
      <point x="440" y="700" type="line"/>
      <point x="60" y="700" type="line"/>
    </contour>
    <contour>
      <point x="18" y="0" type="line"/>
      <point x="138" y="0" type="line"/>
      <point x="138" y="50" type="line"/>
      <point x="18" y="50" type="line"/>
    </contour>
    <contour>
      <point x="18" y="650" type="line"/>
      <point x="138" y="650" type="line"/>
      <point x="138" y="700" type="line"/>
      <point x="18" y="700" type="line"/>
    </contour>
    <contour>
      <point x="362" y="0" type="line"/>
      <point x="482" y="0" type="line"/>
      <point x="482" y="50" type="line"/>
      <point x="362" y="50" type="line"/>
    </contour>
    <contour>
      <point x="362" y="650" type="line"/>
      <point x="482" y="650" type="line"/>
      <point x="482" y="700" type="line"/>
      <point x="362" y="700" type="line"/>
    </contour>
  </outline>
</glyph>
<glyph name="uni03A3" format="2">
  <advance width="500"/>
  <unicode hex="03A3"/>
  <outline>
    <contour>
      <point x="100" y="582" type="curve"/>
      <point x="404" y="582" type="line"/>
      <point x="413.9411255" y="582"/>
      <point x="422" y="590.0588745"/>
      <point x="422" y="600" type="curve"/>
      <point x="422" y="682" type="line"/>
      <point x="422" y="691.9411255"/>
      <point x="413.9411255" y="700"/>
      <point x="404" y="700" type="curve"/>
      <point x="100" y="700" type="line"/>
      <point x="90.0588745" y="700"/>
      <point x="82" y="691.9411255"/>
      <point x="82" y="682" type="curve"/>
      <point x="82" y="600" type="line"/>
      <point x="82" y="590.0588745"/>
      <point x="90.0588745" y="582"/>
    </contour>
    <contour>
      <point x="442.9048856283151" y="602.7305442067967" type="line"/>
      <point x="194.90488562831513" y="311.73054420679676" type="line"/>
      <point x="105.09511437168489" y="388.26945579320324" type="line"/>
      <point x="353.0951143716849" y="679.2694557932033" type="line"/>
    </contour>
    <contour>
      <point x="194.90488562831513" y="388.26945579320324" type="line"/>
      <point x="442.9048856283151" y="97.26945579320326" type="line"/>
      <point x="353.0951143716849" y="20.730544206796743" type="line"/>
      <point x="105.09511437168489" y="311.73054420679676" type="line"/>
    </contour>
    <contour>
      <point x="100" y="0" type="curve"/>
      <point x="404" y="0" type="line"/>
      <point x="413.9411255" y="0"/>
      <point x="422" y="8.0588745"/>
      <point x="422" y="18" type="curve"/>
      <point x="422" y="100" type="line"/>
      <point x="422" y="109.9411255"/>
      <point x="413.9411255" y="118"/>
      <point x="404" y="118" type="curve"/>
      <point x="100" y="118" type="line"/>
      <point x="90.0588745" y="118"/>
      <point x="82" y="109.9411255"/>
      <point x="82" y="100" type="curve"/>
      <point x="82" y="18" type="line"/>
      <point x="82" y="8.0588745"/>
      <point x="90.0588745" y="0"/>
    </contour>
    <contour>
      <point x="18" y="0" type="line"/>
      <point x="138" y="0" type="line"/>
      <point x="138" y="50" type="line"/>
      <point x="18" y="50" type="line"/>
    </contour>
    <contour>
      <point x="18" y="650" type="line"/>
      <point x="138" y="650" type="line"/>
      <point x="138" y="700" type="line"/>
      <point x="18" y="700" type="line"/>
    </contour>
    <contour>
      <point x="362" y="0" type="line"/>
      <point x="482" y="0" type="line"/>
      <point x="482" y="50" type="line"/>
      <point x="362" y="50" type="line"/>
    </contour>
    <contour>
      <point x="362" y="650" type="line"/>
      <point x="482" y="650" type="line"/>
      <point x="482" y="700" type="line"/>
      <point x="362" y="700" type="line"/>
    </contour>
  </outline>
</glyph>
<glyph name="uni03A6" format="2">
  <advance width="500"/>
  <unicode hex="03A6"/>
  <outline>
    <contour>
      <point x="428" y="350.0" type="curve"/>
      <point x="428" y="488.0711875"/>
      <point x="348.3066855" y="600.0"/>
      <point x="250" y="600.0" type="curve"/>
      <point x="151.69331449999999" y="600.0"/>
      <point x="72" y="488.0711875"/>
      <point x="72" y="350.0" type="curve"/>
      <point x="72" y="211.9288125"/>
      <point x="151.69331449999999" y="100.0"/>
      <point x="250" y="100.0" type="curve"/>
      <point x="348.3066855" y="100.0"/>
      <point x="428" y="211.9288125"/>
    </contour>
    <contour>
      <point x="310" y="350.0" type="curve"/>
      <point x="310" y="277.098413"/>
      <point x="283.137085" y="218.0"/>
      <point x="250" y="218.0" type="curve"/>
      <point x="216.862915" y="218.0"/>
      <point x="190" y="277.098413"/>
      <point x="190" y="350.0" type="curve"/>
      <point x="190" y="422.901587"/>
      <point x="216.862915" y="482.0"/>
      <point x="250" y="482.0" type="curve"/>
      <point x="283.137085" y="482.0"/>
      <point x="310" y="422.901587"/>
    </contour>
    <contour>
      <point x="209.0" y="-56" type="curve"/>
      <point x="291.0" y="-56" type="line"/>
      <point x="300.9411255" y="-56"/>
      <point x="309.0" y="-47.9411255"/>
      <point x="309.0" y="-38" type="curve"/>
      <point x="309.0" y="738" type="line"/>
      <point x="309.0" y="747.9411255"/>
      <point x="300.9411255" y="756"/>
      <point x="291.0" y="756" type="curve"/>
      <point x="209.0" y="756" type="line"/>
      <point x="199.0588745" y="756"/>
      <point x="191.0" y="747.9411255"/>
      <point x="191.0" y="738" type="curve"/>
      <point x="191.0" y="-38" type="line"/>
      <point x="191.0" y="-47.9411255"/>
      <point x="199.0588745" y="-56"/>
    </contour>
    <contour>
      <point x="18" y="0" type="line"/>
      <point x="138" y="0" type="line"/>
      <point x="138" y="50" type="line"/>
      <point x="18" y="50" type="line"/>
    </contour>
    <contour>
      <point x="18" y="650" type="line"/>
      <point x="138" y="650" type="line"/>
      <point x="138" y="700" type="line"/>
      <point x="18" y="700" type="line"/>
    </contour>
    <contour>
      <point x="362" y="0" type="line"/>
      <point x="482" y="0" type="line"/>
      <point x="482" y="50" type="line"/>
      <point x="362" y="50" type="line"/>
    </contour>
    <contour>
      <point x="362" y="650" type="line"/>
      <point x="482" y="650" type="line"/>
      <point x="482" y="700" type="line"/>
      <point x="362" y="700" type="line"/>
    </contour>
  </outline>
</glyph>
<glyph name="uni03A8" format="2">
  <advance width="500"/>
  <unicode hex="03A8"/>
  <outline>
    <contour>
      <point x="428" y="478" type="curve"/>
      <point x="428" y="575.202116"/>
      <point x="348.3066855" y="654"/>
      <point x="250" y="654" type="curve"/>
      <point x="151.69331449999999" y="654"/>
      <point x="72" y="575.202116"/>
      <point x="72" y="478" type="curve"/>
      <point x="72" y="380.797884"/>
      <point x="151.69331449999999" y="302"/>
      <point x="250" y="302" type="curve"/>
      <point x="348.3066855" y="302"/>
      <point x="428" y="380.797884"/>
    </contour>
    <contour>
      <point x="310" y="478" type="curve"/>
      <point x="310" y="445.9674845"/>
      <point x="283.137085" y="420"/>
      <point x="250" y="420" type="curve"/>
      <point x="216.862915" y="420"/>
      <point x="190" y="445.9674845"/>
      <point x="190" y="478" type="curve"/>
      <point x="190" y="510.0325155"/>
      <point x="216.862915" y="536"/>
      <point x="250" y="536" type="curve"/>
      <point x="283.137085" y="536"/>
      <point x="310" y="510.0325155"/>
    </contour>
    <contour>
      <point x="209.0" y="0" type="curve"/>
      <point x="291.0" y="0" type="line"/>
      <point x="300.9411255" y="0"/>
      <point x="309.0" y="8.0588745"/>
      <point x="309.0" y="18" type="curve"/>
      <point x="309.0" y="452" type="line"/>
      <point x="309.0" y="461.9411255"/>
      <point x="300.9411255" y="470"/>
      <point x="291.0" y="470" type="curve"/>
      <point x="209.0" y="470" type="line"/>
      <point x="199.0588745" y="470"/>
      <point x="191.0" y="461.9411255"/>
      <point x="191.0" y="452" type="curve"/>
      <point x="191.0" y="18" type="line"/>
      <point x="191.0" y="8.0588745"/>
      <point x="199.0588745" y="0"/>
    </contour>
    <contour>
      <point x="18" y="0" type="line"/>
      <point x="138" y="0" type="line"/>
      <point x="138" y="50" type="line"/>
      <point x="18" y="50" type="line"/>
    </contour>
    <contour>
      <point x="18" y="650" type="line"/>
      <point x="138" y="650" type="line"/>
      <point x="138" y="700" type="line"/>
      <point x="18" y="700" type="line"/>
    </contour>
    <contour>
      <point x="362" y="0" type="line"/>
      <point x="482" y="0" type="line"/>
      <point x="482" y="50" type="line"/>
      <point x="362" y="50" type="line"/>
    </contour>
    <contour>
      <point x="362" y="650" type="line"/>
      <point x="482" y="650" type="line"/>
      <point x="482" y="700" type="line"/>
      <point x="362" y="700" type="line"/>
    </contour>
  </outline>
</glyph>
<glyph name="uni03A9" format="2">
  <advance width="500"/>
  <unicode hex="03A9"/>
  <outline>
    <contour>
      <point x="76" y="0" type="curve"/>
      <point x="152" y="0" type="line"/>
      <point x="161.9411255" y="0"/>
      <point x="170" y="8.0588745"/>
      <point x="170" y="18" type="curve"/>
      <point x="170" y="100" type="line"/>
      <point x="170" y="109.9411255"/>
      <point x="161.9411255" y="118"/>
      <point x="152" y="118" type="curve"/>
      <point x="76" y="118" type="line"/>
      <point x="66.0588745" y="118"/>
      <point x="58" y="109.9411255"/>
      <point x="58" y="100" type="curve"/>
      <point x="58" y="18" type="line"/>
      <point x="58" y="8.0588745"/>
      <point x="66.0588745" y="0"/>
    </contour>
    <contour>
      <point x="348" y="0" type="curve"/>
      <point x="424" y="0" type="line"/>
      <point x="433.9411255" y="0"/>
      <point x="442" y="8.0588745"/>
      <point x="442" y="18" type="curve"/>
      <point x="442" y="100" type="line"/>
      <point x="442" y="109.9411255"/>
      <point x="433.9411255" y="118"/>
      <point x="424" y="118" type="curve"/>
      <point x="348" y="118" type="line"/>
      <point x="338.0588745" y="118"/>
      <point x="330" y="109.9411255"/>
      <point x="330" y="100" type="curve"/>
      <point x="330" y="18" type="line"/>
      <point x="330" y="8.0588745"/>
      <point x="338.0588745" y="0"/>
    </contour>
    <contour>
      <point x="92" y="44" type="line"/>
      <point x="38" y="190"/>
      <point x="68" y="708"/>
      <point x="250" y="708" type="curve"/>
      <point x="432" y="708"/>
      <point x="462" y="190"/>
      <point x="408" y="44" type="curve"/>
      <point x="344" y="44" type="line"/>
      <point x="384" y="172"/>
      <point x="360" y="642"/>
      <point x="250" y="642" type="curve"/>
      <point x="140" y="642"/>
      <point x="116" y="172"/>
      <point x="156" y="44" type="curve"/>
    </contour>
    <contour>
      <point x="18" y="0" type="line"/>
      <point x="138" y="0" type="line"/>
      <point x="138" y="50" type="line"/>
      <point x="18" y="50" type="line"/>
    </contour>
    <contour>
      <point x="18" y="650" type="line"/>
      <point x="138" y="650" type="line"/>
      <point x="138" y="700" type="line"/>
      <point x="18" y="700" type="line"/>
    </contour>
    <contour>
      <point x="362" y="0" type="line"/>
      <point x="482" y="0" type="line"/>
      <point x="482" y="50" type="line"/>
      <point x="362" y="50" type="line"/>
    </contour>
    <contour>
      <point x="362" y="650" type="line"/>
      <point x="482" y="650" type="line"/>
      <point x="482" y="700" type="line"/>
      <point x="362" y="700" type="line"/>
    </contour>
  </outline>
</glyph>
<glyph name="uni03AD" format="2">
  <advance width="500"/>
  <unicode hex="03AD"/>
  <outline>
    <contour>
      <point x="396.15999999999997" y="443.92" type="line"/>
      <point x="333.52" y="522"/>
      <point x="176.92000000000002" y="522"/>
      <point x="76" y="382.92" type="curve"/>
      <point x="76" y="173.07999999999998"/>
      <point x="176.92000000000002" y="34"/>
      <point x="333.52" y="34" type="curve"/>
      <point x="377.02" y="95.0"/>
      <point x="396.15999999999997" y="136.48000000000002"/>
      <point x="396.15999999999997" y="156.0" type="curve"/>
      <point x="297.04" y="182.84" type="line"/>
      <point x="316.12" y="152"/>
      <point x="194" y="199.92000000000002"/>
      <point x="194" y="278" type="curve"/>
      <point x="194" y="356.08"/>
      <point x="316.12" y="404"/>
      <point x="297.04" y="373.15999999999997" type="curve"/>
    </contour>
    <contour>
      <point x="236" y="246" type="curve"/>
      <point x="364" y="246" type="line"/>
      <point x="372.836556" y="246"/>
      <point x="380" y="253.163444"/>
      <point x="380" y="262" type="curve"/>
      <point x="380" y="348" type="line"/>
      <point x="380" y="356.836556"/>
      <point x="372.836556" y="364"/>
      <point x="364" y="364" type="curve"/>
      <point x="236" y="364" type="line"/>
      <point x="227.163444" y="364"/>
      <point x="220" y="356.836556"/>
      <point x="220" y="348" type="curve"/>
      <point x="220" y="262" type="line"/>
      <point x="220" y="253.163444"/>
      <point x="227.163444" y="246"/>
    </contour>
    <contour>
      <point x="38" y="0" type="line"/>
      <point x="138" y="0" type="line"/>
      <point x="138" y="50" type="line"/>
      <point x="38" y="50" type="line"/>
    </contour>
    <contour>
      <point x="362" y="0" type="line"/>
      <point x="462" y="0" type="line"/>
      <point x="462" y="50" type="line"/>
      <point x="362" y="50" type="line"/>
    </contour>
    <contour>
      <point x="187.64819400307294" y="578.7274007149546" type="line"/>
      <point x="263.64819400307294" y="656.7274007149546" type="line"/>
      <point x="312.35180599692706" y="609.2725992850454" type="line"/>
      <point x="236.35180599692706" y="531.2725992850454" type="line"/>
    </contour>
  </outline>
</glyph>
<glyph name="uni03AF" format="2">
  <advance width="290"/>
  <unicode hex="03AF"/>
  <outline>
    <contour>
      <point x="82.64819400307293" y="578.7274007149546" type="line"/>
      <point x="158.64819400307294" y="656.7274007149546" type="line"/>
      <point x="207.35180599692706" y="609.2725992850454" type="line"/>
      <point x="131.35180599692706" y="531.2725992850454" type="line"/>
    </contour>
    <component base="i"/>
  </outline>
</glyph>
<glyph name="uni03B0" format="2">
  <advance width="540"/>
  <unicode hex="03B0"/>
  <outline>
    <contour>
      <point x="266.0" y="615" type="curve"/>
      <point x="266.0" y="633.7776815"/>
      <point x="250.7776815" y="649.0"/>
      <point x="232.0" y="649.0" type="curve"/>
      <point x="213.2223185" y="649.0"/>
      <point x="198.0" y="633.7776815"/>
      <point x="198.0" y="615" type="curve"/>
      <point x="198.0" y="596.2223185"/>
      <point x="213.2223185" y="581.0"/>
      <point x="232.0" y="581.0" type="curve"/>
      <point x="250.7776815" y="581.0"/>
      <point x="266.0" y="596.2223185"/>
    </contour>
    <contour>
      <point x="342.0" y="615" type="curve"/>
      <point x="342.0" y="633.7776815"/>
      <point x="326.77768149999997" y="649.0"/>
      <point x="308.0" y="649.0" type="curve"/>
      <point x="289.22231850000003" y="649.0"/>
      <point x="274.0" y="633.7776815"/>
      <point x="274.0" y="615" type="curve"/>
      <point x="274.0" y="596.2223185"/>
      <point x="289.22231850000003" y="581.0"/>
      <point x="308.0" y="581.0" type="curve"/>
      <point x="326.77768149999997" y="581.0"/>
      <point x="342.0" y="596.2223185"/>
    </contour>
    <contour>
      <point x="207.64819400307294" y="578.7274007149546" type="line"/>
      <point x="283.64819400307294" y="656.7274007149546" type="line"/>
      <point x="332.35180599692706" y="609.2725992850454" type="line"/>
      <point x="256.35180599692706" y="531.2725992850454" type="line"/>
    </contour>
    <component base="u"/>
  </outline>
</glyph>
<glyph name="uni03B2" format="2">
  <advance width="500"/>
  <unicode hex="03B2"/>
  <outline>
    <contour>
      <point x="90" y="-210" type="curve"/>
      <point x="172" y="-210" type="line"/>
      <point x="181.9411255" y="-210"/>
      <point x="190" y="-201.9411255"/>
      <point x="190" y="-192" type="curve"/>
      <point x="190" y="742" type="line"/>
      <point x="190" y="751.9411255"/>
      <point x="181.9411255" y="760"/>
      <point x="172" y="760" type="curve"/>
      <point x="90" y="760" type="line"/>
      <point x="80.0588745" y="760"/>
      <point x="72" y="751.9411255"/>
      <point x="72" y="742" type="curve"/>
      <point x="72" y="-192" type="line"/>
      <point x="72" y="-201.9411255"/>
      <point x="80.0588745" y="-210"/>
    </contour>
    <contour>
      <point x="382" y="386" type="curve"/>
      <point x="382" y="478.783838"/>
      <point x="316.6335735" y="554"/>
      <point x="236" y="554" type="curve"/>
      <point x="155.3664265" y="554"/>
      <point x="90" y="478.783838"/>
      <point x="90" y="386" type="curve"/>
      <point x="90" y="293.216162"/>
      <point x="155.3664265" y="218"/>
      <point x="236" y="218" type="curve"/>
      <point x="316.6335735" y="218"/>
      <point x="382" y="293.216162"/>
    </contour>
    <contour>
      <point x="264" y="386" type="curve"/>
      <point x="264" y="358.3857625"/>
      <point x="251.463973" y="336"/>
      <point x="236" y="336" type="curve"/>
      <point x="220.536027" y="336"/>
      <point x="208" y="358.3857625"/>
      <point x="208" y="386" type="curve"/>
      <point x="208" y="413.6142375"/>
      <point x="220.536027" y="436"/>
      <point x="236" y="436" type="curve"/>
      <point x="251.463973" y="436"/>
      <point x="264" y="413.6142375"/>
    </contour>
    <contour>
      <point x="382" y="142" type="curve"/>
      <point x="382" y="224.8427125"/>
      <point x="316.6335735" y="292"/>
      <point x="236" y="292" type="curve"/>
      <point x="155.3664265" y="292"/>
      <point x="90" y="224.8427125"/>
      <point x="90" y="142" type="curve"/>
      <point x="90" y="59.157287499999995"/>
      <point x="155.3664265" y="-8"/>
      <point x="236" y="-8" type="curve"/>
      <point x="316.6335735" y="-8"/>
      <point x="382" y="59.157287499999995"/>
    </contour>
    <contour>
      <point x="264" y="142" type="curve"/>
      <point x="264" y="124.326888"/>
      <point x="251.463973" y="110"/>
      <point x="236" y="110" type="curve"/>
      <point x="220.536027" y="110"/>
      <point x="208" y="124.326888"/>
      <point x="208" y="142" type="curve"/>
      <point x="208" y="159.673112"/>
      <point x="220.536027" y="174"/>
      <point x="236" y="174" type="curve"/>
      <point x="251.463973" y="174"/>
      <point x="264" y="159.673112"/>
    </contour>
    <contour>
      <point x="38" y="0" type="line"/>
      <point x="138" y="0" type="line"/>
      <point x="138" y="50" type="line"/>
      <point x="38" y="50" type="line"/>
    </contour>
    <contour>
      <point x="362" y="0" type="line"/>
      <point x="462" y="0" type="line"/>
      <point x="462" y="50" type="line"/>
      <point x="362" y="50" type="line"/>
    </contour>
  </outline>
</glyph>
<glyph name="uni03B3" format="2">
  <advance width="500"/>
  <unicode hex="03B3"/>
  <outline>
    <contour>
      <point x="129.05128817423872" y="576.2215850104775" type="line"/>
      <point x="299.0512881742387" y="135.2215850104775" type="line"/>
      <point x="188.94871182576128" y="92.77841498952249" type="line"/>
      <point x="18.94871182576128" y="533.7784149895225" type="line"/>
    </contour>
    <contour>
      <point x="480.53806207856354" y="532.4922283485294" type="line"/>
      <point x="298.53806207856354" y="91.49222834852932" type="line"/>
      <point x="189.46193792143643" y="136.50777165147068" type="line"/>
      <point x="371.46193792143646" y="577.5077716514706" type="line"/>
    </contour>
    <contour>
      <point x="230" y="-210" type="curve"/>
      <point x="312" y="-210" type="line"/>
      <point x="321.9411255" y="-210"/>
      <point x="330" y="-201.9411255"/>
      <point x="330" y="-192" type="curve"/>
      <point x="330" y="-74" type="line"/>
      <point x="330" y="-64.0588745"/>
      <point x="321.9411255" y="-56"/>
      <point x="312" y="-56" type="curve"/>
      <point x="230" y="-56" type="line"/>
      <point x="220.0588745" y="-56"/>
      <point x="212" y="-64.0588745"/>
      <point x="212" y="-74" type="curve"/>
      <point x="212" y="-192" type="line"/>
      <point x="212" y="-201.9411255"/>
      <point x="220.0588745" y="-210"/>
    </contour>
    <contour>
      <point x="38" y="0" type="line"/>
      <point x="138" y="0" type="line"/>
      <point x="138" y="50" type="line"/>
      <point x="38" y="50" type="line"/>
    </contour>
    <contour>
      <point x="362" y="0" type="line"/>
      <point x="462" y="0" type="line"/>
      <point x="462" y="50" type="line"/>
      <point x="362" y="50" type="line"/>
    </contour>
  </outline>
</glyph>
<glyph name="uni03B4" format="2">
  <advance width="500"/>
  <unicode hex="03B4"/>
  <outline>
    <contour>
      <point x="396" y="226" type="curve"/>
      <point x="396" y="350.8163535"/>
      <point x="328.8427125" y="452"/>
      <point x="246" y="452" type="curve"/>
      <point x="163.1572875" y="452"/>
      <point x="96" y="350.8163535"/>
      <point x="96" y="226" type="curve"/>
      <point x="96" y="101.18364650000001"/>
      <point x="163.1572875" y="0"/>
      <point x="246" y="0" type="curve"/>
      <point x="328.8427125" y="0"/>
      <point x="396" y="101.18364650000001"/>
    </contour>
    <contour>
      <point x="278" y="226" type="curve"/>
      <point x="278" y="166.353247"/>
      <point x="263.673112" y="118"/>
      <point x="246" y="118" type="curve"/>
      <point x="228.326888" y="118"/>
      <point x="214" y="166.353247"/>
      <point x="214" y="226" type="curve"/>
      <point x="214" y="285.646753"/>
      <point x="228.326888" y="334"/>
      <point x="246" y="334" type="curve"/>
      <point x="263.673112" y="334"/>
      <point x="278" y="285.646753"/>
    </contour>
    <contour>
      <point x="154" y="420" type="line"/>
      <point x="120" y="620"/>
      <point x="220" y="748"/>
      <point x="374" y="706" type="curve"/>
      <point x="356" y="642" type="line"/>
      <point x="258" y="658"/>
      <point x="214" y="586"/>
      <point x="218" y="438" type="curve"/>
    </contour>
    <contour>
      <point x="38" y="0" type="line"/>
      <point x="138" y="0" type="line"/>
      <point x="138" y="50" type="line"/>
      <point x="38" y="50" type="line"/>
    </contour>
    <contour>
      <point x="362" y="0" type="line"/>
      <point x="462" y="0" type="line"/>
      <point x="462" y="50" type="line"/>
      <point x="362" y="50" type="line"/>
    </contour>
  </outline>
</glyph>
<glyph name="uni03B7" format="2">
  <advance width="500"/>
  <unicode hex="03B7"/>
  <outline>
    <contour>
      <point x="78" y="0" type="curve"/>
      <point x="160" y="0" type="line"/>
      <point x="169.9411255" y="0"/>
      <point x="178" y="8.0588745"/>
      <point x="178" y="18" type="curve"/>
      <point x="178" y="537" type="line"/>
      <point x="178" y="546.9411255"/>
      <point x="169.9411255" y="555"/>
      <point x="160" y="555" type="curve"/>
      <point x="78" y="555" type="line"/>
      <point x="68.0588745" y="555"/>
      <point x="60" y="546.9411255"/>
      <point x="60" y="537" type="curve"/>
      <point x="60" y="18" type="line"/>
      <point x="60" y="8.0588745"/>
      <point x="68.0588745" y="0"/>
    </contour>
    <contour>
      <point x="124" y="-210" type="line"/>
      <point x="124" y="555" type="line"/>
      <point x="198.8" y="565"/>
      <point x="344" y="424.95"/>
      <point x="344" y="271.95" type="curve"/>
      <point x="344" y="-210" type="line"/>
      <point x="226" y="-210" type="line"/>
      <point x="226" y="271.95" type="line"/>
      <point x="226" y="490.1"/>
      <point x="316.8" y="437"/>
      <point x="242" y="437" type="curve"/>
      <point x="242" y="-210" type="line"/>
    </contour>
    <contour>
      <point x="38" y="0" type="line"/>
      <point x="138" y="0" type="line"/>
      <point x="138" y="50" type="line"/>
      <point x="38" y="50" type="line"/>
    </contour>
    <contour>
      <point x="362" y="0" type="line"/>
      <point x="462" y="0" type="line"/>
      <point x="462" y="50" type="line"/>
      <point x="362" y="50" type="line"/>
    </contour>
  </outline>
</glyph>
<glyph name="uni03B8" format="2">
  <advance width="500"/>
  <unicode hex="03B8"/>
  <outline>
    <contour>
      <point x="420" y="278" type="curve"/>
      <point x="420" y="431.53516049999996"/>
      <point x="343.88840749999997" y="556"/>
      <point x="250" y="556" type="curve"/>
      <point x="156.1115925" y="556"/>
      <point x="80" y="431.53516049999996"/>
      <point x="80" y="278" type="curve"/>
      <point x="80" y="124.46483950000001"/>
      <point x="156.1115925" y="0"/>
      <point x="250" y="0" type="curve"/>
      <point x="343.88840749999997" y="0"/>
      <point x="420" y="124.46483950000001"/>
    </contour>
    <contour>
      <point x="302" y="278" type="curve"/>
      <point x="302" y="189.63443999999998"/>
      <point x="278.71880699999997" y="118"/>
      <point x="250" y="118" type="curve"/>
      <point x="221.281193" y="118"/>
      <point x="198" y="189.63443999999998"/>
      <point x="198" y="278" type="curve"/>
      <point x="198" y="366.36556"/>
      <point x="221.281193" y="438"/>
      <point x="250" y="438" type="curve"/>
      <point x="278.71880699999997" y="438"/>
      <point x="302" y="366.36556"/>
    </contour>
    <contour>
      <point x="120" y="246" type="curve"/>
      <point x="380" y="246" type="line"/>
      <point x="388.836556" y="246"/>
      <point x="396" y="253.163444"/>
      <point x="396" y="262" type="curve"/>
      <point x="396" y="348" type="line"/>
      <point x="396" y="356.836556"/>
      <point x="388.836556" y="364"/>
      <point x="380" y="364" type="curve"/>
      <point x="120" y="364" type="line"/>
      <point x="111.163444" y="364"/>
      <point x="104" y="356.836556"/>
      <point x="104" y="348" type="curve"/>
      <point x="104" y="262" type="line"/>
      <point x="104" y="253.163444"/>
      <point x="111.163444" y="246"/>
    </contour>
    <contour>
      <point x="38" y="0" type="line"/>
      <point x="138" y="0" type="line"/>
      <point x="138" y="50" type="line"/>
      <point x="38" y="50" type="line"/>
    </contour>
    <contour>
      <point x="362" y="0" type="line"/>
      <point x="462" y="0" type="line"/>
      <point x="462" y="50" type="line"/>
      <point x="362" y="50" type="line"/>
    </contour>
  </outline>
</glyph>
<glyph name="uni03BC" format="2">
  <advance width="500"/>
  <unicode hex="03BC"/>
  <outline>
    <contour>
      <point x="78" y="-210" type="curve"/>
      <point x="160" y="-210" type="line"/>
      <point x="169.9411255" y="-210"/>
      <point x="178" y="-201.9411255"/>
      <point x="178" y="-192" type="curve"/>
      <point x="178" y="537" type="line"/>
      <point x="178" y="546.9411255"/>
      <point x="169.9411255" y="555"/>
      <point x="160" y="555" type="curve"/>
      <point x="78" y="555" type="line"/>
      <point x="68.0588745" y="555"/>
      <point x="60" y="546.9411255"/>
      <point x="60" y="537" type="curve"/>
      <point x="60" y="-192" type="line"/>
      <point x="60" y="-201.9411255"/>
      <point x="68.0588745" y="-210"/>
    </contour>
    <contour>
      <point x="244" y="0" type="curve"/>
      <point x="326" y="0" type="line"/>
      <point x="335.9411255" y="0"/>
      <point x="344" y="8.0588745"/>
      <point x="344" y="18" type="curve"/>
      <point x="344" y="537" type="line"/>
      <point x="344" y="546.9411255"/>
      <point x="335.9411255" y="555"/>
      <point x="326" y="555" type="curve"/>
      <point x="244" y="555" type="line"/>
      <point x="234.0588745" y="555"/>
      <point x="226" y="546.9411255"/>
      <point x="226" y="537" type="curve"/>
      <point x="226" y="18" type="line"/>
      <point x="226" y="8.0588745"/>
      <point x="234.0588745" y="0"/>
    </contour>
    <contour>
      <point x="124" y="180" type="line"/>
      <point x="124" y="70"/>
      <point x="160" y="48"/>
      <point x="234" y="48" type="curve"/>
      <point x="306" y="48"/>
      <point x="344" y="92"/>
      <point x="344" y="190" type="curve"/>
      <point x="280" y="190" type="line"/>
      <point x="280" y="106"/>
      <point x="264" y="54"/>
      <point x="234" y="54" type="curve"/>
      <point x="202" y="54"/>
      <point x="124" y="96"/>
      <point x="124" y="190" type="curve"/>
    </contour>
    <contour>
      <point x="38" y="0" type="line"/>
      <point x="138" y="0" type="line"/>
      <point x="138" y="50" type="line"/>
      <point x="38" y="50" type="line"/>
    </contour>
    <contour>
      <point x="362" y="0" type="line"/>
      <point x="462" y="0" type="line"/>
      <point x="462" y="50" type="line"/>
      <point x="362" y="50" type="line"/>
    </contour>
  </outline>
</glyph>
<glyph name="uni03C0" format="2">
  <advance width="500"/>
  <unicode hex="03C0"/>
  <outline>
    <contour>
      <point x="76" y="437" type="curve"/>
      <point x="424" y="437" type="line"/>
      <point x="433.9411255" y="437"/>
      <point x="442" y="445.0588745"/>
      <point x="442" y="455" type="curve"/>
      <point x="442" y="537" type="line"/>
      <point x="442" y="546.9411255"/>
      <point x="433.9411255" y="555"/>
      <point x="424" y="555" type="curve"/>
      <point x="76" y="555" type="line"/>
      <point x="66.0588745" y="555"/>
      <point x="58" y="546.9411255"/>
      <point x="58" y="537" type="curve"/>
      <point x="58" y="455" type="line"/>
      <point x="58" y="445.0588745"/>
      <point x="66.0588745" y="437"/>
    </contour>
    <contour>
      <point x="118" y="0" type="curve"/>
      <point x="200" y="0" type="line"/>
      <point x="209.9411255" y="0"/>
      <point x="218" y="8.0588745"/>
      <point x="218" y="18" type="curve"/>
      <point x="218" y="537" type="line"/>
      <point x="218" y="546.9411255"/>
      <point x="209.9411255" y="555"/>
      <point x="200" y="555" type="curve"/>
      <point x="118" y="555" type="line"/>
      <point x="108.0588745" y="555"/>
      <point x="100" y="546.9411255"/>
      <point x="100" y="537" type="curve"/>
      <point x="100" y="18" type="line"/>
      <point x="100" y="8.0588745"/>
      <point x="108.0588745" y="0"/>
    </contour>
    <contour>
      <point x="360" y="0" type="curve"/>
      <point x="442" y="0" type="line"/>
      <point x="451.9411255" y="0"/>
      <point x="460" y="8.0588745"/>
      <point x="460" y="18" type="curve"/>
      <point x="460" y="537" type="line"/>
      <point x="460" y="546.9411255"/>
      <point x="451.9411255" y="555"/>
      <point x="442" y="555" type="curve"/>
      <point x="360" y="555" type="line"/>
      <point x="350.0588745" y="555"/>
      <point x="342" y="546.9411255"/>
      <point x="342" y="537" type="curve"/>
      <point x="342" y="18" type="line"/>
      <point x="342" y="8.0588745"/>
      <point x="350.0588745" y="0"/>
    </contour>
    <contour>
      <point x="38" y="0" type="line"/>
      <point x="138" y="0" type="line"/>
      <point x="138" y="50" type="line"/>
      <point x="38" y="50" type="line"/>
    </contour>
    <contour>
      <point x="362" y="0" type="line"/>
      <point x="462" y="0" type="line"/>
      <point x="462" y="50" type="line"/>
      <point x="362" y="50" type="line"/>
    </contour>
  </outline>
</glyph>
<glyph name="uni03C1" format="2">
  <advance width="500"/>
  <unicode hex="03C1"/>
  <outline>
    <contour>
      <point x="84" y="-210" type="curve"/>
      <point x="166" y="-210" type="line"/>
      <point x="175.9411255" y="-210"/>
      <point x="184" y="-201.9411255"/>
      <point x="184" y="-192" type="curve"/>
      <point x="184" y="537" type="line"/>
      <point x="184" y="546.9411255"/>
      <point x="175.9411255" y="555"/>
      <point x="166" y="555" type="curve"/>
      <point x="84" y="555" type="line"/>
      <point x="74.0588745" y="555"/>
      <point x="66" y="546.9411255"/>
      <point x="66" y="537" type="curve"/>
      <point x="66" y="-192" type="line"/>
      <point x="66" y="-201.9411255"/>
      <point x="74.0588745" y="-210"/>
    </contour>
    <contour>
      <point x="382" y="278" type="curve"/>
      <point x="382" y="413.8620485"/>
      <point x="314.8427125" y="524"/>
      <point x="232" y="524" type="curve"/>
      <point x="149.1572875" y="524"/>
      <point x="82" y="413.8620485"/>
      <point x="82" y="278" type="curve"/>
      <point x="82" y="142.1379515"/>
      <point x="149.1572875" y="32"/>
      <point x="232" y="32" type="curve"/>
      <point x="314.8427125" y="32"/>
      <point x="382" y="142.1379515"/>
    </contour>
    <contour>
      <point x="264" y="278" type="curve"/>
      <point x="264" y="207.307552"/>
      <point x="249.673112" y="150"/>
      <point x="232" y="150" type="curve"/>
      <point x="214.326888" y="150"/>
      <point x="200" y="207.307552"/>
      <point x="200" y="278" type="curve"/>
      <point x="200" y="348.692448"/>
      <point x="214.326888" y="406"/>
      <point x="232" y="406" type="curve"/>
      <point x="249.673112" y="406"/>
      <point x="264" y="348.692448"/>
    </contour>
    <contour>
      <point x="38" y="0" type="line"/>
      <point x="138" y="0" type="line"/>
      <point x="138" y="50" type="line"/>
      <point x="38" y="50" type="line"/>
    </contour>
    <contour>
      <point x="362" y="0" type="line"/>
      <point x="462" y="0" type="line"/>
      <point x="462" y="50" type="line"/>
      <point x="362" y="50" type="line"/>
    </contour>
  </outline>
</glyph>
<glyph name="uni03C3" format="2">
  <advance width="500"/>
  <unicode hex="03C3"/>
  <outline>
    <contour>
      <point x="408.4" y="467.04" type="line"/>
      <point x="336.4" y="556"/>
      <point x="174.4" y="556"/>
      <point x="70" y="397.53999999999996" type="curve"/>
      <point x="70" y="158.46"/>
      <point x="174.4" y="0"/>
      <point x="336.4" y="0" type="curve"/>
      <point x="381.4" y="69.5"/>
      <point x="408.4" y="116.76000000000002"/>
      <point x="408.4" y="139.0" type="curve"/>
      <point x="304.56" y="169.57999999999998" type="line"/>
      <point x="318.4" y="118"/>
      <point x="188" y="189.04"/>
      <point x="188" y="278" type="curve"/>
      <point x="188" y="366.96000000000004"/>
      <point x="318.4" y="438"/>
      <point x="304.56" y="386.42" type="curve"/>
    </contour>
    <contour>
      <point x="38" y="0" type="line"/>
      <point x="138" y="0" type="line"/>
      <point x="138" y="50" type="line"/>
      <point x="38" y="50" type="line"/>
    </contour>
    <contour>
      <point x="362" y="0" type="line"/>
      <point x="462" y="0" type="line"/>
      <point x="462" y="50" type="line"/>
      <point x="362" y="50" type="line"/>
    </contour>
  </outline>
</glyph>
